<svg xmlns="http://www.w3.org/2000/svg" width="66" height="88" viewBox="0 0 66 88"><g><g ><g><g ><g><path fill="#0066b1" d="M28.35 50.54H16.66c-8.03 0-14.54 6.55-14.54 14.629v18.015h40.771V65.17c0-8.08-6.51-14.629-14.54-14.629z"/></g><g><path fill="#013f6c" d="M28.352 50.54H24.37c8.03 0 14.54 6.55 14.54 14.629v18.015h3.983V65.17c0-8.08-6.51-14.629-14.54-14.629z"/></g><g><path fill="#044472" d="M24.242 50.54H20.77l-4.8 16.413 6.536 6.734 6.535-6.734z"/></g><g><g ><path fill="#f9c295" d="M22.508 2.09c-9.167 0-16.598 7.476-16.598 16.7v8.05c0 9.223 7.431 16.7 16.598 16.7 9.167 0 16.599-7.477 16.599-16.7v-8.05c0-9.224-7.432-16.7-16.599-16.7z"/></g><g ><path fill="#e59f6a" d="M22.509 2.09c-.373 0-.743.014-1.109.038 7.567.574 13.55 7.813 13.55 16.661v8.051c0 8.848-5.983 16.087-13.55 16.661.366.025.736.038 1.109.038 9.167 0 16.598-7.476 16.598-16.699v-8.05c0-9.224-7.432-16.7-16.598-16.7z"/></g><g ><path fill="#282828" d="M33.308 6.116v-.002c-.03-.027-.062-.051-.093-.077a16.865 16.865 0 0 0-.386-.32l-.18-.14a16.242 16.242 0 0 0-1.476-1.025c-.098-.06-.196-.121-.295-.18-.088-.052-.177-.101-.266-.151-.116-.066-.233-.132-.351-.195-.061-.033-.124-.063-.185-.095a16.418 16.418 0 0 0-7.568-1.841c-9.167 0-16.598 7.476-16.598 16.7v1.543a19.637 19.637 0 0 0 7.988 1.692c5.839 0 11.084-2.544 14.71-6.587 2.293 3.555 6.097 6.032 10.499 6.503V18.79a16.69 16.69 0 0 0-5.8-12.673z"/></g><g ><path fill="#1d1d1b" d="M39.083 17.883l-.01-.165a17.841 17.841 0 0 0-.02-.286l-.015-.169a17.202 17.202 0 0 0-.028-.28l-.018-.166a17.062 17.062 0 0 0-.184-1.195l-.02-.108c-.026-.125-.052-.25-.08-.374l-.01-.051a16.703 16.703 0 0 0-5.39-8.973v-.002l-.093-.077a16.887 16.887 0 0 0-.386-.32l-.18-.14a16.25 16.25 0 0 0-1.476-1.025c-.098-.06-.196-.121-.295-.18-.088-.051-.176-.1-.265-.15-.117-.067-.233-.133-.352-.196-.06-.033-.123-.063-.185-.095-1.7-.88-3.569-1.474-5.546-1.717l-.028-.003a16.83 16.83 0 0 0-.428-.046l-.115-.01c-.116-.01-.233-.02-.35-.027l-.145-.01a17.186 17.186 0 0 0-.34-.015l-.141-.006a16.9 16.9 0 0 0-.466-.007h-.008c-.179 0-.357.004-.534.01l-.06.002c-.173.006-.344.015-.515.026 7.567.574 13.55 7.813 13.55 16.661v2.05c1.298.566 2.694.945 4.157 1.102V18.79c0-.152-.002-.304-.006-.455l-.006-.14a14.55 14.55 0 0 0-.012-.311z"/></g></g></g><g ><path fill="#ebeef2" d="M24.198 65.03L15.72 86.916h49.267L56.51 65.03z"/></g><g ><g><path fill="#f7d100" d="M50.229 68.82l-5.7 4.496c-.98.774-2.428.244-2.686-.983l-1.493-7.13 14.529-40.16a1.723 1.723 0 0 1 2.212-1.038l6.635 2.43a1.739 1.739 0 0 1 1.032 2.225z"/></g><g><path fill="#dd8d19" d="M63.731 26.434l-2.604-.954c.192.07.084.858-.242 1.759l-14.529 40.16-2.876 5.53c-.247.476-.449.685-.56.644.517.19 1.124.129 1.614-.258l5.7-4.496 14.529-40.16a1.738 1.738 0 0 0-1.032-2.225z"/></g><g><path fill="#282828" d="M44.53 73.323l5.699-4.496-9.879-3.617 1.493 7.13c.258 1.227 1.705 1.757 2.686.983z"/></g><g><path fill="#2e344c" d="M50.234 68.82l-3.878-1.42-2.876 5.53c-.247.476-.449.685-.56.644a1.683 1.683 0 0 0 1.614-.259z"/></g></g></g><g><g ><path d="M6.425 18.096c0-8.557 6.931-15.518 15.451-15.518.143 0 .286.003.429.006l.181.007.235.01.24.016.163.012.286.025.096.01a15.3 15.3 0 0 1 3.459.78l.247.088.103.04a15.11 15.11 0 0 1 1.604.716l.084.043.006.003a19.496 19.496 0 0 1 .387.211l.073.04.147.085.142.084.16.098.023.014c.092.056.184.113.273.17l.207.138.043.028.24.165.095.067.056.04a15.235 15.235 0 0 1 .745.572l.162.133c.073.062.146.123.218.186l.013.011a15.618 15.618 0 0 1 3.062 3.628l.044.071c.044.073.086.146.129.22l.078.135a15.358 15.358 0 0 1 .401.754l.046.094a15.592 15.592 0 0 1 .165.347 15.524 15.524 0 0 1 1.266 4.365l.001.007c.018.13.034.26.048.39l.004.034c.013.12.024.242.035.363l.005.06c.009.112.016.225.023.339l.005.08c.006.11.01.22.014.33 0 .03.002.059.003.088.003.138.006.276.006.415v1.66c-3.368-.737-6.313-2.774-8.226-5.734a1.282 1.282 0 0 0-2.028-.161 18.692 18.692 0 0 1-13.878 6.203c-2.337 0-4.611-.428-6.77-1.274v-.694zM6.227 32.32a1.29 1.29 0 0 0 .857-1.607 15.615 15.615 0 0 1-.66-4.502V21.54a20.997 20.997 0 0 0 6.769 1.112 21.231 21.231 0 0 0 14.68-5.924 15.62 15.62 0 0 0 9.444 5.662v3.822c0 8.561-6.93 15.526-15.446 15.526a15.444 15.444 0 0 1-12.689-6.67 1.278 1.278 0 0 0-1.785-.322 1.293 1.293 0 0 0-.32 1.795 18.007 18.007 0 0 0 14.794 7.775c9.931 0 18.01-8.121 18.01-18.104v-8.108c0-.161-.001-.322-.006-.482 0-.035-.003-.07-.004-.105a18.803 18.803 0 0 0-.015-.381l-.006-.092a18.91 18.91 0 0 0-.026-.397c-.002-.022-.005-.044-.006-.067a19.015 19.015 0 0 0-.04-.422l-.005-.041c-.017-.15-.035-.3-.055-.45l-.002-.014a18.03 18.03 0 0 0-1.457-5.056l-.048-.103c-.046-.1-.092-.199-.14-.298l-.095-.19-.1-.2a19.271 19.271 0 0 0-.132-.25c-.023-.042-.045-.085-.069-.127-.054-.1-.11-.2-.166-.3l-.036-.062a18.11 18.11 0 0 0-3.961-4.77l-.023-.019c-.05-.041-.1-.081-.148-.122l-.052-.043c-.073-.06-.144-.121-.218-.18a17.037 17.037 0 0 0-.177-.139l-.019-.014c-.06-.047-.12-.092-.181-.137l-.09-.069-.12-.09a17.761 17.761 0 0 0-.234-.17l-.24-.165-.095-.065-.032-.023-.274-.182c-.11-.071-.223-.141-.335-.21l-.013-.008-.146-.089c-.054-.033-.107-.066-.162-.098l-.084-.048c-.066-.039-.134-.076-.2-.114l-.023-.013a16.981 16.981 0 0 0-.272-.15l-.09-.05-.129-.066a17.922 17.922 0 0 0-1.033-.499l-.022-.01c-.14-.062-.28-.122-.423-.18l-.1-.041a17.606 17.606 0 0 0-.334-.132l-.16-.061-.212-.076a17.589 17.589 0 0 0-4.1-.933L23.66.089l-.333-.03-.19-.013c-.093-.007-.186-.013-.28-.018-.09-.005-.182-.009-.274-.012-.07-.003-.14-.007-.212-.008A17.216 17.216 0 0 0 21.871 0C11.94 0 3.86 8.122 3.86 18.105v8.107c0 1.787.259 3.553.769 5.249.205.681.92 1.066 1.598.86z"/></g><g ><path d="M21.87 38.025c2.454 0 4.786-1.291 6.237-3.455.396-.59.241-1.392-.346-1.79a1.278 1.278 0 0 0-1.78.349c-.988 1.473-2.487 2.318-4.112 2.318-1.624 0-3.124-.845-4.114-2.32a1.278 1.278 0 0 0-1.78-.346 1.293 1.293 0 0 0-.345 1.79c1.453 2.163 3.785 3.454 6.24 3.454z"/></g><g ><path d="M2.605 64.81c0-7.412 6.003-13.442 13.38-13.442h2.43l-4.358 14.875c-.131.447-.012.93.313 1.264l4.816 4.953-3.57 9.203H2.604zm20.053-13.442l3.517 12.017H23.57c-.529 0-1.003.325-1.195.82l-2.178 5.618-3.476-3.577 4.356-14.878h1.58zm43.217 34.876l-8.544-22.038a1.28 1.28 0 0 0-1.66-.733 1.291 1.291 0 0 0-.73 1.669l7.863 20.281H16.902l.76-1.958c.008-.018.014-.037.021-.056l4.167-10.747.014-.037 2.583-6.662h10.147c.709 0 1.283-.577 1.283-1.29 0-.711-.574-1.288-1.283-1.288h-5.746l-3.517-12.017h2.427c3.72 0 7.301 1.576 9.827 4.324.48.523 1.292.556 1.812.073.52-.484.552-1.3.072-1.822a15.952 15.952 0 0 0-11.71-5.153H15.976C7.19 48.79.04 55.977.04 64.81v18.142c0 .712.574 1.289 1.282 1.289h13.286l-.777 2.003c-.154.397-.103.844.136 1.196a1.28 1.28 0 0 0 1.059.562H64.68c.423 0 .82-.21 1.058-.562.24-.351.29-.799.137-1.196z"/></g><g ><path d="M23.49 77.97c0 .711.574 1.288 1.282 1.288h30.16c.708 0 1.282-.577 1.282-1.289s-.574-1.289-1.282-1.289h-30.16c-.708 0-1.282.577-1.282 1.29z"/></g><g ><path d="M42.874 72.071a.404.404 0 0 1-.263-.305l-1.03-4.909 5.618 2.055-3.928 3.096a.401.401 0 0 1-.397.063zm-4.233-7.645c-.01.033-.02.066-.028.1-.006.022-.013.045-.018.069-.007.035-.011.071-.015.107-.003.022-.007.044-.008.065a1.31 1.31 0 0 0 0 .122v.054c.004.058.012.117.024.175l1.505 7.18a2.972 2.972 0 0 0 1.896 2.196 2.953 2.953 0 0 0 2.857-.458l5.744-4.527c.047-.037.09-.076.13-.119.013-.012.023-.026.034-.04.028-.03.055-.06.08-.094.012-.017.022-.036.033-.053.02-.031.041-.062.059-.094l.03-.064c.014-.031.03-.063.042-.095l.006-.014 10.063-27.793a1.29 1.29 0 0 0-.766-1.652 1.28 1.28 0 0 0-1.644.77L49.04 66.842l-7.546-2.76L55.7 24.852a.457.457 0 0 1 .585-.274l6.688 2.446a.456.456 0 0 1 .273.589l-2.827 7.806a1.29 1.29 0 0 0 .767 1.652 1.28 1.28 0 0 0 1.643-.77l2.827-7.807a3.032 3.032 0 0 0-.1-2.322 3.007 3.007 0 0 0-1.706-1.57l-6.687-2.447a2.987 2.987 0 0 0-2.31.101 3.011 3.011 0 0 0-1.563 1.714L38.646 64.41l-.005.016z"/></g></g></g></g></svg>