<svg xmlns="http://www.w3.org/2000/svg" width="74" height="88" viewBox="0 0 74 88"><g><g ><g><g ><path fill="#282828" d="M23.472 32.617c-5.031 0-9.11-4.094-9.11-9.144s4.079-9.145 9.11-9.145 9.11 4.094 9.11 9.145c0 5.05-4.079 9.144-9.11 9.144zm21.332-5.22v-7.848l-4.969-.763a16.98 16.98 0 0 0-1.485-3.597l2.975-4.062-5.535-5.55-4.051 2.984a16.886 16.886 0 0 0-3.588-1.49l-.76-4.981h-7.828l-.76 4.982a16.885 16.885 0 0 0-3.588 1.49l-4.051-2.984-5.535 5.55 2.975 4.061a16.979 16.979 0 0 0-1.485 3.597l-4.969.763v7.848l4.969.763c.36 1.265.86 2.47 1.485 3.597L5.63 35.818l5.535 5.55 4.051-2.984a16.882 16.882 0 0 0 3.588 1.49l.76 4.982h7.828l.76-4.982a16.882 16.882 0 0 0 3.588-1.49l4.051 2.984 5.535-5.55-2.975-4.061a16.98 16.98 0 0 0 1.485-3.597z"/></g><g ><path fill="#f9c295" d="M61.023 44.19c0-12.4-10.024-22.45-22.39-22.45-12.366 0-22.39 10.05-22.39 22.45 0 .495.017.987.049 1.475L9.5 63.998h7.45v6.955c0 2.8 2.265 5.07 5.058 5.07h10.248V86.92H53.4V61.063a22.42 22.42 0 0 0 7.623-16.874z"/></g><g ><path fill="#e59f6a" d="M38.63 21.74c-.756 0-1.503.038-2.24.111C47.704 22.978 56.54 32.55 56.54 44.19a22.42 22.42 0 0 1-7.623 16.873v25.856h4.48V61.062a22.419 22.419 0 0 0 7.624-16.873c0-12.398-10.025-22.449-22.39-22.449z"/></g><g ><path fill="#ebeef2" d="M25.01 86.912h31.392V80.73H29.288z"/></g><g ><path fill="#d1d6de" d="M52.07 80.73h4.325v6.182H52.07z"/></g><g ><g><path fill="#f2df33" d="M61.644 40.402l10.045-7.707a1.622 1.622 0 0 0 0-2.572l-10.045-7.707c-1.063-.815-2.597-.055-2.597 1.286v3.014h-9.514a2.036 2.036 0 0 0-2.033 2.038v5.31c0 1.125.91 2.038 2.033 2.038h9.514v3.014c0 1.341 1.534 2.1 2.597 1.286z"/></g><g><path fill="#e20714" d="M40.189 44.462l-10.045-7.707a1.622 1.622 0 0 1 0-2.572l10.045-7.707c1.062-.815 2.596-.055 2.596 1.286v3.014H52.3c1.123 0 2.033.913 2.033 2.038v5.31c0 1.125-.91 2.038-2.033 2.038h-9.514v3.014c0 1.341-1.534 2.1-2.596 1.286z"/></g><g><path fill="#f7d100" d="M54.33 32.808c0-1.125-.911-2.038-2.034-2.038H47.5v3.296c0 1.126.91 2.039 2.033 2.039h4.796z"/></g></g></g><g><g ><path d="M10.639 6.488l3.226 2.357c.409.298.955.332 1.399.087a15.96 15.96 0 0 1 3.368-1.387c.488-.138.85-.546.926-1.044l.605-3.923h5.723l.604 3.923c.077.498.439.906.926 1.044 1.175.334 2.309.8 3.368 1.387.444.245.99.21 1.399-.088L35.4 6.495l4.047 4.024-2.363 3.198c-.3.406-.335.95-.088 1.39a15.76 15.76 0 0 1 1.395 3.348c.139.485.55.845 1.05.92l3.86.588a1.295 1.295 0 0 0 1.478-1.08 1.29 1.29 0 0 0-1.086-1.469l-3.057-.465c-.272-.808-.6-1.596-.982-2.356l2.542-3.44a1.283 1.283 0 0 0-.128-1.675L36.446 3.89a1.303 1.303 0 0 0-1.684-.128l-3.46 2.527a18.597 18.597 0 0 0-2.371-.976l-.65-4.22A1.294 1.294 0 0 0 26.999 0h-7.95c-.64 0-1.185.465-1.282 1.094l-.65 4.22c-.812.27-1.605.597-2.37.975l-3.46-2.526a1.302 1.302 0 0 0-1.685.127l-.662.658a1.283 1.283 0 0 0 0 1.823c.464.461 1.19.5 1.699.117z"/></g><g ><path d="M10.522 42.125c.268 0 .537-.082.767-.25l1.089-.795a1.284 1.284 0 0 0 .278-1.802 1.301 1.301 0 0 0-1.813-.276l-.192.14-4.047-4.023 2.363-3.198c.3-.406.335-.95.088-1.39a15.76 15.76 0 0 1-1.394-3.349 1.294 1.294 0 0 0-1.051-.92l-3.946-.6v-5.69l3.946-.6a1.294 1.294 0 0 0 1.05-.921 15.758 15.758 0 0 1 1.395-3.349c.247-.44.213-.983-.088-1.39l-2.363-3.198.326-.323a1.284 1.284 0 0 0 0-1.824 1.303 1.303 0 0 0-1.834 0L3.983 9.473a1.283 1.283 0 0 0-.128 1.675l2.542 3.44c-.381.76-.71 1.549-.982 2.357l-4.245.646c-.632.096-1.1.637-1.1 1.274v7.903c0 .637.468 1.178 1.1 1.274l4.245.646c.273.808.6 1.596.982 2.357l-2.542 3.44a1.283 1.283 0 0 0 .128 1.674l5.622 5.589c.25.25.583.377.917.377z"/></g><g ><path d="M23.027 14.908a7.945 7.945 0 0 1 6.246 3.005c.445.558 1.26.652 1.821.21a1.284 1.284 0 0 0 .211-1.812 10.53 10.53 0 0 0-8.278-3.981c-5.821 0-10.557 4.708-10.557 10.495 0 2.054.597 4.044 1.727 5.754a1.298 1.298 0 0 0 1.796.37c.598-.39.765-1.19.372-1.785a7.848 7.848 0 0 1-1.302-4.34c0-4.365 3.573-7.916 7.964-7.916z"/></g><g ><path d="M27.053 85.414l2.546-3.638H55.162v3.638zm34.128-40.979a1.295 1.295 0 0 0-1.407 1.17c-.49 5.46-3.053 10.468-7.216 14.102-.28.245-.442.598-.442.969v18.522H33.235v-3.456c0-.712-.58-1.29-1.297-1.29H21.53c-2.117.001-3.84-1.711-3.84-3.816v-7.004c0-.712-.58-1.29-1.297-1.29h-5.702L16.94 45.62c.064-.17.09-.352.078-.534-.031-.468-.047-.94-.047-1.4 0-11.754 9.62-21.317 21.444-21.317 2.523 0 4.995.432 7.347 1.283a1.299 1.299 0 0 0 1.662-.77 1.287 1.287 0 0 0-.774-1.652 24.117 24.117 0 0 0-8.235-1.439c-13.254 0-24.037 10.72-24.037 23.896 0 .425.012.858.035 1.291L7.611 63.183c-.148.396-.091.838.15 1.185.243.346.641.553 1.066.553h6.27v5.715c0 3.526 2.887 6.395 6.434 6.395h9.11v2.167H28.92c-.425 0-.823.207-1.065.555l-4.345 6.225a1.283 1.283 0 0 0-.084 1.333c.224.425.667.691 1.15.691h31.882c.716 0 1.297-.577 1.297-1.289v-6.226c0-.712-.58-1.289-1.297-1.289H54.71V61.25c4.406-4.037 7.115-9.489 7.647-15.416a1.291 1.291 0 0 0-1.176-1.399z"/></g><g ><path d="M71.19 31.095l-10.198 7.763a.327.327 0 0 1-.36.034.323.323 0 0 1-.192-.306v-3.035c0-.712-.58-1.29-1.296-1.29h-3.493v-2.03c0-1.843-1.508-3.343-3.36-3.343h-3.573v-.738c0-.42.344-.763.768-.763h9.658c.716 0 1.296-.577 1.296-1.29v-3.035c0-.176.104-.264.192-.306a.327.327 0 0 1 .36.035l10.198 7.762a.33.33 0 0 1 .135.271.33.33 0 0 1-.135.271zM52.292 38.34H42.63c-.717 0-1.297.577-1.297 1.29v3.034a.323.323 0 0 1-.191.307.327.327 0 0 1-.361-.035l-10.203-7.763a.33.33 0 0 1-.134-.27.33.33 0 0 1 .134-.272l10.203-7.762a.327.327 0 0 1 .36-.035c.088.042.192.13.192.306v3.035c0 .713.58 1.29 1.297 1.29h3.495v2.03c0 1.844 1.508 3.343 3.361 3.343h3.574v.738a.767.767 0 0 1-.768.764zm.768-4.075h-3.574a.768.768 0 0 1-.768-.767v-2.036h3.574c.424 0 .768.343.768.765zm19.716-5.76l-10.202-7.761a2.933 2.933 0 0 0-3.086-.299 2.9 2.9 0 0 0-1.636 2.618v1.745h-8.366c-1.854 0-3.362 1.5-3.362 3.342v.738h-2.198v-1.746a2.9 2.9 0 0 0-1.636-2.617 2.932 2.932 0 0 0-3.086.299l-10.202 7.76a2.892 2.892 0 0 0-1.152 2.319c0 .916.42 1.761 1.152 2.318l10.202 7.761a2.937 2.937 0 0 0 3.086.3 2.9 2.9 0 0 0 1.636-2.618v-1.746h8.366c1.854 0 3.362-1.5 3.362-3.342v-.738h2.198v1.746a2.9 2.9 0 0 0 1.636 2.618 2.936 2.936 0 0 0 3.086-.3l10.202-7.76a2.892 2.892 0 0 0 1.152-2.319c0-.916-.42-1.761-1.152-2.318z"/></g><g ><path d="M42.608 60.462h-1.741c-.717 0-1.297.577-1.297 1.29 0 .711.58 1.288 1.297 1.288h1.741c2.426 0 4.4-1.962 4.4-4.374v-4.482c0-2.412-1.974-4.374-4.4-4.374h-1.741c-.717 0-1.297.577-1.297 1.29 0 .711.58 1.288 1.297 1.288h1.741c.996 0 1.807.806 1.807 1.796v4.482c0 .99-.81 1.796-1.807 1.796z"/></g></g></g></g></svg>