<svg xmlns="http://www.w3.org/2000/svg" width="95" height="105" viewBox="0 0 95 105"><g><g ><g><g ><path fill="#0066b1" d="M61.567 66.98h-7.379c-.67 0-1.213-.542-1.213-1.21v-7.36c0-.668-.543-1.21-1.213-1.21h-7.534c-.67 0-1.213.542-1.213 1.21v7.36c0 .668-.543 1.21-1.213 1.21h-7.379c-.67 0-1.213.541-1.213 1.21v7.513c0 .669.543 1.21 1.213 1.21h7.38c.67 0 1.212.542 1.212 1.21v7.36c0 .668.544 1.21 1.213 1.21h7.534c.67 0 1.213-.542 1.213-1.21v-7.36c0-.668.543-1.21 1.213-1.21h7.38c.67 0 1.212-.542 1.212-1.21V68.19c0-.669-.543-1.21-1.213-1.21z"/></g><g ><g><path fill="#ebeef2" d="M18.322 85.61H11.12c-4.948 0-8.959 4-8.959 8.936v9.337h25.122v-9.337c0-4.935-4.012-8.936-8.96-8.936z"/></g><g><path fill="#d1d6de" d="M18.326 85.61H15.53c4.092 0 7.41 4 7.41 8.936v9.337h4.346v-9.337c0-4.935-4.012-8.936-8.96-8.936z"/></g><g><path fill="#e20714" d="M15.797 85.61h-2.14L10.7 95.635l4.027 4.114 4.027-4.114z"/></g><g><g ><path fill="#f9c295" d="M14.727 56.41C9.08 56.41 4.5 60.977 4.5 66.61v4.918c0 5.634 4.579 10.2 10.227 10.2 5.649 0 10.227-4.566 10.227-10.2V66.61c0-5.633-4.578-10.2-10.227-10.2z"/></g><g ><path fill="#e59f6a" d="M14.725 56.41c-.446 0-.884.032-1.315.087 3.881.644 6.882 4.925 6.882 10.113v4.918c0 5.189-3 9.47-6.882 10.114.43.055.87.087 1.315.087 5.648 0 10.227-4.567 10.227-10.2V66.61c0-5.633-4.579-10.2-10.227-10.2z"/></g><g ><path fill="#444966" d="M21.372 58.87v-.002l-.057-.047a10.814 10.814 0 0 0-.238-.195l-.11-.086a9.441 9.441 0 0 0-.565-.405 8.969 8.969 0 0 0-.346-.221c-.06-.037-.12-.075-.182-.11-.054-.032-.109-.062-.163-.092-.072-.04-.144-.081-.217-.12l-.114-.058a10.188 10.188 0 0 0-4.663-1.124c-5.648 0-10.227 4.567-10.227 10.2v.943a12.187 12.187 0 0 0 4.922 1.034c3.597 0 6.83-1.554 9.064-4.023a8.835 8.835 0 0 0 6.468 3.972v-1.925c.001-3.1-1.385-5.872-3.572-7.742z"/></g><g ><path fill="#2e344c" d="M24.892 65.51c-.007-.066-.017-.131-.025-.197a9.889 9.889 0 0 0-.048-.342c-.011-.067-.024-.134-.036-.2a9.919 9.919 0 0 0-.066-.334c-.014-.065-.03-.129-.045-.193a10.044 10.044 0 0 0-.245-.858l-.052-.155c-.044-.125-.09-.248-.14-.37-.015-.04-.03-.08-.046-.118-.058-.142-.12-.282-.185-.421l-.024-.055a10.242 10.242 0 0 0-2.6-3.398v-.001l-.002-.001-.056-.046a10.79 10.79 0 0 0-.704-.543 10.411 10.411 0 0 0-.209-.143 10.175 10.175 0 0 0-.346-.221c-.06-.037-.12-.075-.182-.11-.054-.032-.108-.062-.163-.092-.072-.04-.144-.081-.217-.12l-.113-.058a10.2 10.2 0 0 0-2.214-.827l-.047-.011c-.165-.04-.33-.075-.498-.107l-.14-.025c-.14-.024-.28-.045-.42-.063l-.176-.023a10.243 10.243 0 0 0-.416-.037c-.056-.005-.112-.01-.169-.013a10.5 10.5 0 0 0-.58-.018h-.004-.001a10.374 10.374 0 0 0-.623.02c-.055.004-.11.01-.166.013-.176.014-.35.032-.524.054 3.873.642 6.869 4.907 6.881 10.081a8.797 8.797 0 0 0 4.661 1.958V66.61c0-.186-.005-.37-.015-.553-.003-.057-.01-.114-.013-.17a10.858 10.858 0 0 0-.032-.376z"/></g></g></g><g ><g><path fill="#ebeef2" d="M51.592 31.28H44.39c-4.948 0-8.959 4-8.959 8.936v9.337h25.122v-9.337c0-4.935-4.012-8.936-8.96-8.936z"/></g><g><path fill="#d1d6de" d="M51.596 31.28H48.8c4.092 0 7.41 4 7.41 8.936v9.337h4.346v-9.337c0-4.935-4.012-8.936-8.96-8.936z"/></g><g><path fill="#282828" d="M49.057 31.28h-2.14L43.96 41.305l4.027 4.114 4.027-4.114z"/></g><g><g ><path fill="#f9c295" d="M47.987 2.08c-5.648 0-10.227 4.567-10.227 10.2v4.918c0 5.634 4.579 10.2 10.227 10.2 5.649 0 10.227-4.566 10.227-10.2V12.28c0-5.633-4.578-10.2-10.227-10.2z"/></g><g ><path fill="#e59f6a" d="M47.995 2.08c-.446 0-.884.032-1.315.087 3.881.644 6.882 4.925 6.882 10.113v4.918c0 5.189-3 9.47-6.882 10.114.43.055.87.087 1.315.087 5.648 0 10.227-4.567 10.227-10.2V12.28c0-5.633-4.579-10.2-10.227-10.2z"/></g><g ><path fill="#282828" d="M54.642 4.539v-.002c-.018-.016-.038-.03-.057-.047a10.814 10.814 0 0 0-.704-.543 9.626 9.626 0 0 0-.209-.142 8.969 8.969 0 0 0-.346-.221c-.06-.037-.12-.075-.182-.11-.054-.032-.109-.062-.163-.092-.072-.04-.144-.081-.217-.12l-.114-.058a10.188 10.188 0 0 0-4.663-1.124c-5.648 0-10.227 4.567-10.227 10.2v.943a12.187 12.187 0 0 0 4.922 1.034c3.597 0 6.83-1.554 9.064-4.023a8.835 8.835 0 0 0 6.468 3.972v-1.925c.001-3.1-1.385-5.872-3.572-7.742z"/></g><g ><path fill="#1d1d1b" d="M58.162 11.18c-.007-.066-.017-.131-.025-.197a9.889 9.889 0 0 0-.048-.342c-.011-.067-.024-.134-.036-.2a9.919 9.919 0 0 0-.066-.334c-.014-.065-.03-.129-.045-.193a10.044 10.044 0 0 0-.245-.858l-.052-.155c-.044-.125-.09-.248-.14-.37-.015-.04-.03-.08-.046-.118-.058-.142-.12-.282-.185-.421l-.024-.055a10.242 10.242 0 0 0-2.6-3.398v-.001l-.002-.001-.056-.046a10.79 10.79 0 0 0-.704-.543 10.411 10.411 0 0 0-.209-.143 10.175 10.175 0 0 0-.346-.221c-.06-.037-.12-.075-.182-.11-.054-.032-.108-.062-.163-.092-.072-.04-.144-.081-.217-.12l-.113-.058a10.2 10.2 0 0 0-2.214-.827l-.047-.011c-.165-.04-.33-.075-.498-.107l-.14-.025c-.14-.024-.28-.045-.42-.063l-.176-.023a10.243 10.243 0 0 0-.416-.037c-.056-.005-.112-.01-.169-.013a10.5 10.5 0 0 0-.58-.018h-.004-.001a10.374 10.374 0 0 0-.623.02c-.055.004-.11.01-.166.013-.176.014-.35.032-.524.054 3.873.642 6.869 4.907 6.881 10.081a8.797 8.797 0 0 0 4.661 1.958V12.28c0-.186-.005-.37-.015-.553-.003-.057-.01-.114-.013-.17a10.323 10.323 0 0 0-.032-.376z"/></g></g></g><g ><g><path fill="#ebeef2" d="M84.862 85.61H77.66c-4.948 0-8.959 4-8.959 8.936v9.337h25.122v-9.337c0-4.935-4.012-8.936-8.96-8.936z"/></g><g><path fill="#d1d6de" d="M84.856 85.61H82.06c4.092 0 7.41 4 7.41 8.936v9.337h4.346v-9.337c0-4.935-4.012-8.936-8.96-8.936z"/></g><g><path fill="#e20714" d="M82.327 85.61h-2.14L77.23 95.635l4.027 4.114 4.027-4.114z"/></g><g><g ><path fill="#f9c295" d="M81.257 56.41c-5.648 0-10.227 4.567-10.227 10.2v4.918c0 5.634 4.579 10.2 10.227 10.2 5.649 0 10.227-4.566 10.227-10.2V66.61c0-5.633-4.579-10.2-10.227-10.2z"/></g><g ><path fill="#e59f6a" d="M81.255 56.41c-.446 0-.884.032-1.315.087 3.881.644 6.882 4.925 6.882 10.113v4.918c0 5.189-3 9.47-6.882 10.114.43.055.87.087 1.315.087 5.648 0 10.227-4.567 10.227-10.2V66.61c0-5.633-4.579-10.2-10.227-10.2z"/></g><g ><path fill="#444966" d="M87.912 58.87v-.002l-.057-.047a10.814 10.814 0 0 0-.238-.195l-.11-.086a9.441 9.441 0 0 0-.565-.405 8.969 8.969 0 0 0-.346-.221c-.06-.037-.12-.075-.182-.11-.054-.032-.109-.062-.163-.092-.072-.04-.144-.081-.217-.12l-.114-.058a10.188 10.188 0 0 0-4.663-1.124c-5.648 0-10.227 4.567-10.227 10.2v.943a12.187 12.187 0 0 0 4.922 1.034c3.597 0 6.83-1.554 9.064-4.023a8.835 8.835 0 0 0 6.468 3.972v-1.925a10.154 10.154 0 0 0-3.572-7.742z"/></g><g ><path fill="#2e344c" d="M91.422 65.51c-.007-.066-.017-.131-.025-.197a9.865 9.865 0 0 0-.048-.342c-.011-.067-.024-.134-.036-.2a9.919 9.919 0 0 0-.066-.334c-.014-.065-.03-.129-.045-.193a10.044 10.044 0 0 0-.245-.858l-.052-.155c-.044-.125-.09-.248-.14-.37-.015-.04-.03-.08-.046-.118-.058-.142-.12-.282-.185-.421l-.024-.055a10.242 10.242 0 0 0-2.6-3.398v-.001l-.002-.001-.056-.046a10.79 10.79 0 0 0-.704-.543 10.411 10.411 0 0 0-.209-.143 10.175 10.175 0 0 0-.346-.221c-.06-.037-.12-.075-.182-.11-.054-.032-.108-.062-.163-.092-.072-.04-.144-.081-.217-.12l-.113-.058a10.2 10.2 0 0 0-2.214-.827l-.047-.011c-.165-.04-.33-.075-.498-.107l-.14-.025c-.14-.024-.28-.045-.42-.063l-.176-.023a10.243 10.243 0 0 0-.416-.037c-.056-.005-.112-.01-.169-.013a10.5 10.5 0 0 0-.58-.018h-.004-.001a10.374 10.374 0 0 0-.623.02c-.055.004-.11.01-.166.013-.176.014-.35.032-.524.054 3.873.642 6.869 4.907 6.881 10.081a8.797 8.797 0 0 0 4.661 1.958V66.61c0-.186-.005-.37-.015-.553-.003-.057-.01-.114-.013-.17a9.908 9.908 0 0 0-.032-.376z"/></g></g></g></g><g><g ><path fill="#1d1d1b" d="M70.682 53.415a1.542 1.542 0 0 0 2.16.296 1.535 1.535 0 0 0 .298-2.155 32.282 32.282 0 0 0-6.625-6.507 1.545 1.545 0 0 0-2.156.329 1.535 1.535 0 0 0 .33 2.15 29.21 29.21 0 0 1 5.993 5.887z"/></g><g ><path fill="#1d1d1b" d="M61.355 96.427a29.182 29.182 0 0 1-13.862 3.5c-4.877 0-9.7-1.227-13.95-3.548a1.545 1.545 0 0 0-2.093.61 1.536 1.536 0 0 0 .612 2.088 32.275 32.275 0 0 0 15.431 3.926c5.355 0 10.658-1.339 15.334-3.873a1.536 1.536 0 0 0 .62-2.085 1.544 1.544 0 0 0-2.092-.618z"/></g><g ><path fill="#1d1d1b" d="M28.464 45.049a32.277 32.277 0 0 0-6.578 6.447 1.538 1.538 0 1 0 1.226 2.47c.464 0 .924-.209 1.227-.606a29.2 29.2 0 0 1 5.95-5.832 1.535 1.535 0 0 0 .33-2.15 1.545 1.545 0 0 0-2.155-.33z"/></g><g ><path fill="#1d1d1b" d="M61.078 64.962h-7.062V57.92a2.757 2.757 0 0 0-2.757-2.75h-7.544a2.756 2.756 0 0 0-2.756 2.75v.336c0 .85.69 1.538 1.542 1.538a1.54 1.54 0 0 0 1.542-1.538v-.01h6.888v7.043a2.757 2.757 0 0 0 2.757 2.75h7.062v6.87h-7.062a2.756 2.756 0 0 0-2.757 2.75V84.7h-6.888v-7.043a2.756 2.756 0 0 0-2.757-2.75h-7.062v-6.87h7.062a2.756 2.756 0 0 0 2.757-2.75v-.88c0-.85-.69-1.538-1.542-1.538a1.54 1.54 0 0 0-1.542 1.538v.554h-7.062a2.756 2.756 0 0 0-2.757 2.75v7.523a2.757 2.757 0 0 0 2.757 2.75h7.062v7.042a2.756 2.756 0 0 0 2.756 2.75h7.544a2.756 2.756 0 0 0 2.757-2.75v-7.042h7.062a2.756 2.756 0 0 0 2.756-2.75v-7.523a2.756 2.756 0 0 0-2.756-2.75z"/></g><g ><path d="M14.18 97.093l-2.298-2.344 2.298-7.782 2.298 7.782zm3.606-13.483h-7.213C4.776 83.61.06 88.314.06 94.095v9.35c0 .849.69 1.537 1.542 1.537a1.54 1.54 0 0 0 1.542-1.538v-9.349c0-4.085 3.333-7.409 7.43-7.409h.473l-2.38 8.066a1.535 1.535 0 0 0 .377 1.509l4.032 4.118a1.544 1.544 0 0 0 2.207 0l4.032-4.118c.39-.398.534-.975.376-1.509l-2.38-8.066h.475c4.096 0 7.428 3.324 7.428 7.41v9.348c0 .85.69 1.538 1.543 1.538a1.54 1.54 0 0 0 1.542-1.538v-9.349c0-5.781-4.716-10.485-10.513-10.485z"/></g><g ><path d="M5.477 69.219c1.1.279 2.231.423 3.384.423 3.277 0 6.44-1.178 8.913-3.278a10.311 10.311 0 0 0 5.087 2.977v1.708c0 4.785-3.899 8.679-8.692 8.679s-8.692-3.894-8.692-8.679zm8.697 13.558c1.37.006 2.74-.219 4.03-.682 3.044-1.094 5.592-3.51 6.803-6.502.922-2.276 1.077-4.785 1.056-7.24-.023-2.554-.242-5.173-1.34-7.48-1.048-2.204-2.875-4.012-5.047-5.132-3.076-1.586-6.845-1.766-10.058-.48-.667.266-1.366.653-1.61 1.327-.252.695.146 1.556.84 1.817.766.288 1.596-.111 2.363-.396 2.607-.97 5.68-.578 7.959 1.012 2.28 1.59 3.7 4.336 3.682 7.11a7.014 7.014 0 0 1-3.191-2.326c-.38-.496-.752-1.086-1.36-1.232-.834-.2-1.566.526-2.187 1.116-2.756 2.616-7.003 3.55-10.606 2.33a7.05 7.05 0 0 1 .608-3.104c.241-.539.558-1.08.535-1.67a1.557 1.557 0 0 0-1.123-1.401c-3.247-.87-3.275 7.343-3.256 9.095.028 2.523.272 5.107 1.363 7.384 1.07 2.231 2.934 4.057 5.148 5.174a12.126 12.126 0 0 0 5.391 1.28z"/></g><g ><path d="M47.49 42.703l-2.298-2.345 2.297-7.781 2.298 7.781zm-12.578 7.89a1.54 1.54 0 0 0 1.542-1.539v-9.349c0-4.085 3.333-7.409 7.43-7.409h.473l-2.38 8.066a1.535 1.535 0 0 0 .377 1.509l4.032 4.118a1.544 1.544 0 0 0 2.207 0l4.032-4.118c.39-.398.534-.975.376-1.509l-2.38-8.066h.475c4.096 0 7.428 3.324 7.428 7.41v9.348c0 .85.69 1.538 1.543 1.538a1.54 1.54 0 0 0 1.542-1.538v-9.349c0-5.781-4.716-10.485-10.513-10.485h-7.213c-5.797 0-10.513 4.704-10.513 10.485v9.35c0 .849.69 1.537 1.542 1.537z"/></g><g ><path d="M38.788 14.826c1.1.28 2.23.423 3.384.423a13.8 13.8 0 0 0 8.915-3.276 10.314 10.314 0 0 0 5.088 2.976v1.707c0 4.784-3.9 8.675-8.694 8.675-4.793 0-8.693-3.891-8.693-8.675zm8.698 13.548a12.125 12.125 0 0 0 5.54-1.353c2.217-1.159 4.063-3.04 5.1-5.313 1.041-2.282 1.25-4.85 1.264-7.357.013-2.433-.156-4.917-1.074-7.17-1.172-2.874-3.571-5.217-6.462-6.361-2.89-1.144-6.232-1.083-9.094.131-.497.21-1.004.476-1.289.933-.525.843.105 2.139 1.094 2.248.587.065 1.147-.217 1.694-.438 2.622-1.057 5.763-.726 8.105.855 2.342 1.581 3.817 4.366 3.807 7.187a6.968 6.968 0 0 1-3.194-2.322c-.382-.5-.756-1.095-1.37-1.239-.828-.195-1.554.526-2.17 1.111-2.758 2.62-7.008 3.557-10.616 2.34a6.877 6.877 0 0 1 .605-3.087c.237-.522.546-1.044.54-1.617-.007-.767-.675-1.47-1.442-1.519-3.293-.21-3.033 8.615-2.915 10.569.15 2.471.675 4.976 1.98 7.082 1.326 2.142 3.429 3.775 5.804 4.627 1.31.47 2.701.699 4.093.693z"/></g><g ><path d="M80.8 97.093L78.5 94.75l2.298-7.782 2.298 7.782zm3.606-13.483h-7.213c-5.797 0-10.513 4.704-10.513 10.485v9.35c0 .849.69 1.537 1.542 1.537a1.54 1.54 0 0 0 1.542-1.538v-9.349c0-4.085 3.333-7.409 7.43-7.409h.473l-2.38 8.066a1.535 1.535 0 0 0 .377 1.509l4.032 4.118a1.544 1.544 0 0 0 2.207 0l4.032-4.118c.39-.398.534-.975.376-1.509l-2.38-8.066h.475c4.096 0 7.428 3.324 7.428 7.41v9.348c0 .85.69 1.538 1.543 1.538a1.54 1.54 0 0 0 1.542-1.538v-9.349c0-5.781-4.716-10.485-10.513-10.485z"/></g><g ><path d="M80.8 79.726c-4.793 0-8.693-3.892-8.693-8.675v-1.83c1.1.279 2.23.422 3.384.422a13.8 13.8 0 0 0 8.915-3.276 10.312 10.312 0 0 0 5.088 2.976v1.708c0 4.783-3.9 8.675-8.694 8.675zm-3.983-21.353c.39-.11.767-.273 1.15-.409 2.6-.922 5.64-.5 7.889 1.095 2.249 1.594 3.647 4.319 3.628 7.071a6.982 6.982 0 0 1-3.188-2.321c-.382-.5-.756-1.096-1.37-1.24-.829-.194-1.554.527-2.17 1.112-2.759 2.62-7.01 3.556-10.617 2.339a7.037 7.037 0 0 1 .608-3.103c.24-.538.556-1.076.535-1.664a1.563 1.563 0 0 0-1.189-1.425c-3.328-.74-3.239 7.937-3.174 9.758.09 2.529.45 5.114 1.662 7.338 1.224 2.246 3.287 4.002 5.662 4.965 3.103 1.258 6.737 1.147 9.757-.297 2.314-1.107 4.267-2.988 5.364-5.302 1.1-2.321 1.32-4.956 1.336-7.523.015-2.43-.146-4.912-1.057-7.166-1.136-2.808-3.443-5.116-6.24-6.293-2.798-1.177-6.049-1.218-8.89-.149-.586.221-1.177.503-1.573.988-.396.485-.544 1.22-.197 1.741.323.485.976.653 1.556.588a3.24 3.24 0 0 0 .518-.103z"/></g></g></g></g></svg>