<svg xmlns="http://www.w3.org/2000/svg" width="95" height="86" viewBox="0 0 95 86"><g><g ><g><g ><g><path fill="#ebeef2" d="M25.727 58.33H15.193c-7.237 0-13.103 5.8-13.103 12.957v13.538h36.74V71.287c0-7.156-5.866-12.957-13.103-12.957z"/></g><g><path fill="#d1d6de" d="M25.725 58.33H20.05c7.236 0 13.103 5.8 13.103 12.957v13.538h5.675V71.287c0-7.156-5.867-12.957-13.103-12.957z"/></g><g><path fill="#282828" d="M22.024 58.33h-3.129L14.57 72.866l5.89 5.965 5.889-5.965z"/></g><g><g ><path fill="#f9c295" d="M20.467 15.99c-8.26 0-14.957 6.622-14.957 14.79v7.13c0 8.17 6.697 14.791 14.957 14.791 8.26 0 14.957-6.622 14.957-14.79v-7.13c0-8.17-6.696-14.791-14.957-14.791z"/></g><g ><path fill="#e59f6a" d="M20.462 15.99c-.52 0-1.035.027-1.542.078 6.127.763 10.907 7.059 10.907 14.712v7.13c0 7.654-4.78 13.95-10.907 14.713.507.051 1.021.078 1.542.078 8.261 0 14.958-6.622 14.958-14.79v-7.13c0-8.17-6.697-14.791-14.958-14.791z"/></g><g ><path fill="#282828" d="M30.199 19.556v-.002l-.084-.068a15.59 15.59 0 0 0-.348-.283l-.162-.125a15.047 15.047 0 0 0-1.33-.908c-.088-.053-.176-.107-.266-.159-.079-.046-.16-.09-.24-.134-.104-.058-.21-.117-.316-.173-.055-.028-.111-.055-.166-.084a15.003 15.003 0 0 0-6.82-1.63c-8.26 0-14.957 6.622-14.957 14.79v1.367a17.957 17.957 0 0 0 7.198 1.499c5.262 0 9.989-2.253 13.256-5.833a12.935 12.935 0 0 0 9.46 5.759V30.78c0-4.492-2.028-8.513-5.225-11.224z"/></g><g ><path fill="#1d1d1b" d="M35.332 29.186c-.01-.096-.025-.192-.037-.287a14.521 14.521 0 0 0-.07-.496c-.016-.098-.035-.194-.053-.291a14.28 14.28 0 0 0-.36-1.507c-.05-.168-.104-.334-.16-.5-.025-.075-.05-.15-.077-.225-.064-.18-.132-.359-.203-.535l-.068-.173c-.086-.205-.176-.409-.27-.61l-.037-.079a14.866 14.866 0 0 0-3.804-4.93l-.083-.067c-.114-.096-.23-.19-.347-.283l-.162-.125a15.186 15.186 0 0 0-1.33-.908c-.09-.053-.177-.107-.267-.159-.079-.046-.159-.09-.239-.134-.105-.058-.21-.117-.317-.173l-.166-.084a15.046 15.046 0 0 0-2.71-1.06l-.17-.048a15.468 15.468 0 0 0-.823-.198c-.088-.019-.176-.035-.264-.052a14.821 14.821 0 0 0-1.223-.183l-.169-.018c-.211-.02-.424-.036-.639-.048l-.13-.006a15.311 15.311 0 0 0-2.233.06c6.126.764 10.906 7.06 10.906 14.713v.838a12.922 12.922 0 0 0 5.592 1.954V30.78c0-.27-.008-.537-.022-.802-.005-.083-.013-.165-.02-.248a14.306 14.306 0 0 0-.045-.544z"/></g></g></g><g ><path fill="#fff0a0" d="M41.693 8.55l2.762-6.44a48.638 48.638 0 0 0-3.87.313A47.895 47.895 0 0 0 26.67 6.3 45.743 45.743 0 0 1 41.693 8.55z"/></g><g ><path fill="#f7d100" d="M70.73 65.464l16.823 7.054c4.394-7.522 6.718-16.298 6.307-25.488l-20.888 2.544a44.32 44.32 0 0 1-2.242 15.89z"/></g><g ><path fill="#e20714" d="M83.179 78.787l-15.4-6.457a45.386 45.386 0 0 1-9.819 12.497h19.231a47.454 47.454 0 0 0 5.988-6.04z"/></g><g ><path fill="#fff0a0" d="M61.428 21.338l13.355-9.958a47.726 47.726 0 0 0-22.277-8.93l-3.866 9.017a45.756 45.756 0 0 1 12.788 9.871z"/></g><g ><path fill="#f7d100" d="M72.055 42.167l20.888-2.544c-1.857-9.014-6.266-16.97-12.374-23.213L65.98 27.29a44.496 44.496 0 0 1 6.075 14.877z"/></g><g ><path fill="#0066b1" d="M82.684 61.226a.996.996 0 0 0-.15-1.412 1.008 1.008 0 0 0-.25-.141l.002-.005-34.376-14.21v.003c-1.571-.65-3.449-.235-4.574 1.14a3.86 3.86 0 0 0 .583 5.47c.467.373.995.62 1.542.751l-.001.004 36.194 8.744v-.003c.37.09.775-.029 1.03-.34z"/></g><g ><path fill="#ebeef2" d="M46.4 55.936c3.845 0 6.962-3.082 6.962-6.883S50.245 42.17 46.4 42.17c-3.845 0-6.961 3.082-6.961 6.883s3.116 6.883 6.96 6.883z"/></g></g><g><g ><path d="M20.372 59.326l3.82 12.86-4.35 4.412-4.35-4.412 3.82-12.86zm17.463 7.968a1.38 1.38 0 0 0-1.122 1.602c.125.683.188 1.385.188 2.086v12.24H2.783v-12.24c0-6.427 5.28-11.656 11.769-11.656h1.859l-3.82 12.856c-.142.478-.012.995.34 1.352l5.915 6a1.399 1.399 0 0 0 1.991 0l5.915-6c.352-.357.482-.874.34-1.352l-3.82-12.856h1.86c3.87 0 7.494 1.887 9.695 5.047a1.4 1.4 0 0 0 1.935.352 1.37 1.37 0 0 0 .356-1.917 14.604 14.604 0 0 0-11.986-6.238h-10.58C6.528 56.57 0 63.035 0 70.982V84.6c0 .761.623 1.378 1.392 1.378h36.9c.769 0 1.392-.617 1.392-1.378V70.98c0-.864-.078-1.73-.232-2.575a1.392 1.392 0 0 0-1.617-1.112z"/></g><g ><path d="M6.209 33.603a19.463 19.463 0 0 0 18.999-4.237 14.303 14.303 0 0 0 8.263 4.86v3.182c0 7.444-6.115 13.5-13.631 13.5s-13.631-6.056-13.631-13.5zm13.63 20.087h.073c6.33-.025 12.464-4.07 14.922-9.85 1.375-3.23 1.648-6.814 1.624-10.32-.022-3.284-.304-6.632-1.574-9.666-4.068-9.723-16.95-12.792-25.224-6.393-.424.329-.845.693-1.074 1.177-.23.483-.219 1.114.158 1.496.372.377.992.407 1.492.227.5-.18.916-.53 1.339-.85 4.169-3.147 10.231-3.597 14.828-1.102 4.596 2.496 7.473 7.8 7.036 12.974a10.849 10.849 0 0 1-6.277-4.094c-.441-.599-.926-1.31-1.672-1.37-.727-.058-1.316.534-1.83 1.046-4.435 4.428-11.587 5.941-17.463 3.695a13.036 13.036 0 0 1 1.015-5.453c.359-.85.768-1.944.103-2.588-.506-.489-1.394-.354-1.922.11-.528.464-.778 1.158-.978 1.83-.906 3.039-1.198 6.23-1.205 9.398-.007 3.406.326 6.88 1.692 10.007 2.506 5.733 8.632 9.72 14.938 9.726z"/></g><g ><path d="M19.842 43.069h1.774c.769 0 1.392-.617 1.392-1.378 0-.762-.623-1.378-1.392-1.378h-.383v-3.215c0-.761-.623-1.378-1.391-1.378-.769 0-1.392.617-1.392 1.378v4.593c0 .761.623 1.378 1.392 1.378z"/></g><g ><path d="M40.22 3.082a46.477 46.477 0 0 1 1.554-.163l-1.398 3.268a47.142 47.142 0 0 0-7.563-1.59 47 47 0 0 1 7.407-1.515zM26.107 6.99c4.977-.089 9.9.65 14.628 2.196a1.393 1.393 0 0 0 1.717-.77l2.774-6.48a1.367 1.367 0 0 0-.137-1.322 1.386 1.386 0 0 0-1.202-.592 50.182 50.182 0 0 0-4 .324 49.456 49.456 0 0 0-14.382 4.012c-.6.27-.926.922-.78 1.559.145.636.715 1.08 1.382 1.073z"/></g><g ><path d="M53.065 52.914c.04-.064.075-.13.113-.195.044-.077.088-.153.13-.231.035-.067.068-.135.102-.203.038-.078.078-.157.114-.236.032-.07.06-.14.09-.21.034-.08.069-.16.1-.24l.078-.216a8.15 8.15 0 0 0 .085-.245 8.227 8.227 0 0 0 .136-.47c.019-.074.036-.15.053-.225a7.827 7.827 0 0 0 .16-.969c.006-.047.013-.095.017-.143l22.771 9.432-5.467-1.323-18.509-4.48.027-.046zm-6.488 1.212c-.231.028-.46.042-.688.042-2.785 0-5.206-2.062-5.554-4.867-.377-3.035 1.81-5.81 4.873-6.184.226-.027.452-.041.676-.041 2.613 0 4.954 1.835 5.492 4.421a5.522 5.522 0 0 1-1.748 5.255v.001a5.588 5.588 0 0 1-3.051 1.373zm48.38-7.601a1.374 1.374 0 0 0-.492-.992 1.399 1.399 0 0 0-1.07-.315l-20.979 2.56c-.72.087-1.252.709-1.22 1.427.012.285.021.57.027.854.014.761.652 1.37 1.417 1.352a1.39 1.39 0 0 0 1.325-1.045l18.253-2.227a45.304 45.304 0 0 1-5.591 22.336L72.041 64.35c.371-1.226.69-2.471.959-3.723l7.977 1.93a2.44 2.44 0 0 0 2.449-.819c.404-.495.59-1.116.523-1.75a2.365 2.365 0 0 0-1.327-1.886 1.355 1.355 0 0 0-.142-.068c-1.52-.628-18.305-7.578-28.567-11.827-1.166-3.798-4.995-6.318-9.045-5.826-4.586.561-7.859 4.713-7.295 9.256.522 4.2 4.145 7.288 8.315 7.288.34 0 .684-.02 1.03-.063A8.377 8.377 0 0 0 50.9 55.28l19.395 4.694a43.322 43.322 0 0 1-1.282 4.725 1.374 1.374 0 0 0 .778 1.702l16.898 7.095a1.4 1.4 0 0 0 1.748-.58 48.054 48.054 0 0 0 6.52-26.39z"/></g><g ><path d="M76.3 83.211H60.928a46.703 46.703 0 0 0 7.054-9.426l12.559 5.269a46.59 46.59 0 0 1-4.243 4.157zm7.074-5.956l-15.467-6.496a1.398 1.398 0 0 0-1.774.627 44.1 44.1 0 0 1-9.564 12.19 1.37 1.37 0 0 0-.366 1.518c.207.532.723.884 1.299.884h19.315a1.4 1.4 0 0 0 .903-.33 49.216 49.216 0 0 0 6.188-6.252c.277-.336.378-.782.273-1.203a1.382 1.382 0 0 0-.807-.938z"/></g><g ><path d="M52.89 3.25a46.618 46.618 0 0 1 19.158 7.5l-10.892 8.136a47.136 47.136 0 0 0-11.24-8.69zm-5.397 8.778a44.41 44.41 0 0 1 12.456 9.63c.274.303.654.46 1.038.46.293 0 .587-.092.837-.279l13.413-10.017c.35-.262.555-.67.554-1.105a1.374 1.374 0 0 0-.56-1.1A49.402 49.402 0 0 0 52.203.37a1.393 1.393 0 0 0-1.459.83l-3.883 9.07a1.372 1.372 0 0 0 .632 1.757z"/></g><g ><path d="M80.047 17.631a45.51 45.51 0 0 1 10.896 20.327l-18.204 2.22A46.04 46.04 0 0 0 67.4 27.08zM64.376 27.47a43.34 43.34 0 0 1 5.914 14.508 1.389 1.389 0 0 0 1.533 1.088l20.98-2.56c.384-.046.732-.25.959-.562.226-.312.311-.703.234-1.08-1.865-9.066-6.288-17.377-12.791-24.034a1.401 1.401 0 0 0-1.838-.142L64.714 25.632a1.37 1.37 0 0 0-.338 1.838z"/></g></g></g></g></svg>