<svg xmlns="http://www.w3.org/2000/svg" width="82" height="79" viewBox="0 0 82 79"><g><g ><g><g ><g><path fill="#ebeef2" d="M2.08 8.49v48.962c0 1.199.977 2.17 2.183 2.17h64.336a2.177 2.177 0 0 0 2.182-2.17V8.49c0-1.198-.977-2.17-2.182-2.17H4.263A2.177 2.177 0 0 0 2.08 8.49z"/></g><g><path fill="#d1d6de" d="M68.602 6.32H64.65c1.205 0 2.182.972 2.182 2.17v48.962c0 1.198-.977 2.17-2.182 2.17h3.952a2.177 2.177 0 0 0 2.182-2.17V8.49c0-1.198-.977-2.17-2.182-2.17z"/></g><g><g ><path fill="#0066b1" d="M19.995 33.869a2.777 2.777 0 0 0 2.785-2.77c0-1.53-1.247-2.769-2.785-2.769a2.777 2.777 0 0 0-2.785 2.77c0 1.529 1.247 2.769 2.785 2.769z"/></g><g ><path fill="#f7d100" d="M30.955 27.689a2.777 2.777 0 0 0 2.785-2.77c0-1.53-1.247-2.769-2.785-2.769a2.777 2.777 0 0 0-2.785 2.77c0 1.529 1.247 2.769 2.785 2.769z"/></g><g ><path fill="#282828" d="M41.905 33.869a2.777 2.777 0 0 0 2.785-2.77c0-1.53-1.247-2.769-2.785-2.769a2.777 2.777 0 0 0-2.785 2.77c0 1.529 1.247 2.769 2.785 2.769z"/></g><g ><path fill="#e20714" d="M52.865 18.649a2.777 2.777 0 0 0 2.785-2.77c0-1.53-1.247-2.769-2.785-2.769a2.777 2.777 0 0 0-2.785 2.77c0 1.529 1.247 2.769 2.785 2.769z"/></g></g><g><path fill="#f7d100" d="M13.68 63.418V59.62h45.492v3.798c0 .835-.681 1.512-1.52 1.512H15.2c-.84 0-1.52-.677-1.52-1.512z"/></g><g><path fill="#fcab29" d="M55.32 59.62v3.798c0 .835-.68 1.512-1.52 1.512h3.859c.84 0 1.52-.677 1.52-1.512V59.62z"/></g><g><path fill="#f7d100" d="M31 6.32V2.8c0-.988.806-1.79 1.8-1.79h7.26c.994 0 1.8.802 1.8 1.79v3.52H31z"/></g><g><path fill="#fcab29" d="M40.056 1.01H36.17c.995 0 1.8.802 1.8 1.79v3.52h3.887V2.8c0-.988-.806-1.79-1.8-1.79z"/></g><g><path fill="#f7d100" d="M17.58 42.31h4.842v10.487H17.58z"/></g><g><path fill="#f7d100" d="M28.53 36.25h4.842v16.552H28.53z"/></g><g><path fill="#f7d100" d="M39.49 42.31h4.842v10.487H39.49z"/></g><g><path fill="#f7d100" d="M50.44 31.52h4.842v21.281H50.44z"/></g></g><g ><g><path fill="#282828" d="M66.04 48.165l8.884 15.302a3.354 3.354 0 0 0 4.568 1.217 3.315 3.315 0 0 0 1.223-4.542L71.831 44.84z"/></g><g><path fill="#1d1d1b" d="M71.831 44.84l-5.791 3.325 3.463 5.965a18.23 18.23 0 0 0 5.791-3.325z"/></g><g><path fill="#f7d100" d="M63.505 51.48c7.956 0 14.406-6.414 14.406-14.325 0-7.912-6.45-14.325-14.406-14.325S49.1 29.243 49.1 37.155c0 7.911 6.45 14.324 14.405 14.324z"/></g><g><path fill="#0066b1" d="M63.508 47.232c5.599 0 10.138-4.513 10.138-10.08 0-5.569-4.54-10.082-10.138-10.082-5.6 0-10.138 4.513-10.138 10.081s4.539 10.081 10.138 10.081z"/></g></g></g><g><g ><path d="M41.282 32.906c-.883 0-1.601-.71-1.601-1.585 0-.873.718-1.584 1.601-1.584.884 0 1.602.71 1.602 1.584 0 .874-.718 1.585-1.602 1.585zm-11.024-6.173c-.883 0-1.602-.71-1.602-1.584 0-.874.719-1.585 1.602-1.585.883 0 1.602.711 1.602 1.585 0 .873-.719 1.584-1.602 1.584zm-11.025 6.173c-.883 0-1.601-.71-1.601-1.585 0-.873.718-1.584 1.601-1.584.884 0 1.602.71 1.602 1.584 0 .874-.718 1.585-1.602 1.585zm33.074-18.357c.883 0 1.602.71 1.602 1.584 0 .874-.719 1.585-1.602 1.585-.883 0-1.602-.711-1.602-1.585 0-.873.719-1.584 1.602-1.584zm0 5.531c2.208 0 4.004-1.772 4.004-3.95s-1.796-3.95-4.004-3.95c-2.208 0-4.004 1.772-4.004 3.95 0 .89.3 1.711.805 2.372l-6.579 9.07a4.037 4.037 0 0 0-3.972.863l-4.385-2.455c.059-.268.09-.546.09-.83 0-2.179-1.796-3.95-4.004-3.95-2.207 0-4.004 1.771-4.004 3.95 0 .284.032.562.09.83l-4.385 2.455a4.018 4.018 0 0 0-2.725-1.06c-2.208 0-4.004 1.772-4.004 3.95s1.796 3.95 4.004 3.95c2.208 0 4.004-1.772 4.004-3.95 0-.285-.032-.563-.09-.83l4.385-2.455a4.018 4.018 0 0 0 2.725 1.06c1.052 0 2.01-.403 2.726-1.06l4.385 2.455c-.059.268-.09.545-.09.83 0 2.178 1.796 3.95 4.004 3.95 2.208 0 4.004-1.772 4.004-3.95 0-.89-.3-1.711-.805-2.372l6.578-9.07c.393.127.812.197 1.247.197z"/></g><g ><path d="M57.476 63.59a.327.327 0 0 1-.33.324H14.412a.327.327 0 0 1-.329-.324v-2.608h43.394zm9.597-4.978H3.398a.99.99 0 0 1-.996-.982V8.742a.99.99 0 0 1 .996-.982H9.06c.664 0 1.201-.53 1.201-1.185s-.537-1.185-1.2-1.185H3.397C1.524 5.39 0 6.894 0 8.742V57.63c0 1.848 1.524 3.352 3.398 3.352h8.282v2.608c0 1.486 1.225 2.694 2.731 2.694h12.024l-5.66 10.902a1.177 1.177 0 0 0 .521 1.595c.175.089.362.13.547.13.436 0 .857-.235 1.07-.644l6.22-11.983h13.281l6.221 11.983a1.212 1.212 0 0 0 1.617.515c.59-.3.824-1.013.521-1.596l-5.66-10.902h12.024c1.506 0 2.731-1.208 2.731-2.694v-2.608h7.205c.663 0 1.201-.53 1.201-1.185 0-.654-.538-1.185-1.201-1.185z"/></g><g ><path d="M31.51 3.064c0-.334.273-.605.61-.605h7.29c.335 0 .61.271.61.605V5.4h-8.51V3.064zM13.86 7.762h54.285a.99.99 0 0 1 .996.982v11.267c0 .655.537 1.185 1.2 1.185.664 0 1.202-.53 1.202-1.185V8.744c0-1.848-1.524-3.352-3.398-3.352h-25.71v-2.33c0-1.638-1.351-2.972-3.013-2.972h-7.306c-1.661 0-3.013 1.334-3.013 2.973v2.33H13.86c-.663 0-1.201.53-1.201 1.184 0 .655.538 1.185 1.201 1.185z"/></g><g ><path d="M18 51.801v-8.1h2.476v8.1zM16.8 41.33c-.663 0-1.201.53-1.201 1.185v10.471c0 .655.538 1.185 1.201 1.185h4.873c.664 0 1.201-.53 1.201-1.185V42.515c0-.655-.537-1.185-1.2-1.185z"/></g><g ><path d="M31.493 51.797h-2.47V37.64h2.47zM27.821 35.27c-.663 0-1.201.53-1.201 1.185v16.527c0 .655.538 1.185 1.201 1.185h4.873c.664 0 1.201-.53 1.201-1.185V36.455c0-.655-.537-1.185-1.2-1.185z"/></g><g ><path d="M42.526 51.801H40.05v-8.1h2.477zM38.851 41.33c-.663 0-1.201.53-1.201 1.185v10.471c0 .655.538 1.185 1.201 1.185h4.873c.664 0 1.201-.53 1.201-1.185V42.515c0-.655-.537-1.185-1.2-1.185z"/></g><g ><path d="M49.871 48.32c-.663 0-1.201.53-1.201 1.185v3.479c0 .654.538 1.185 1.201 1.185h4.873c.664 0 1.201-.53 1.201-1.185s-.537-1.185-1.2-1.185h-3.673v-2.294c0-.655-.537-1.185-1.2-1.185z"/></g><g ><path d="M78.514 63.829a2.182 2.182 0 0 1-2.956-.781l-6.629-11.33a15.921 15.921 0 0 0 3.745-2.136l6.631 11.33c.19.326.291.695.291 1.066 0 .761-.415 1.47-1.082 1.85zm-18.93-13.792c-3.43-.907-6.297-3.078-8.073-6.113-3.666-6.264-1.483-14.303 4.867-17.92a13.354 13.354 0 0 1 6.626-1.754c4.599 0 9.078 2.353 11.538 6.556a12.88 12.88 0 0 1 1.328 9.954c-.919 3.385-3.12 6.214-6.195 7.966a13.368 13.368 0 0 1-10.09 1.31zm21.802 9.691l-6.891-11.775a15.354 15.354 0 0 0 3.696-6.58 15.206 15.206 0 0 0-1.568-11.752c-4.329-7.396-13.95-9.939-21.446-5.669-7.497 4.27-10.075 13.761-5.747 21.157 2.097 3.583 5.483 6.146 9.533 7.217 1.353.357 2.725.534 4.089.534 1.192 0 2.377-.135 3.536-.403l6.89 11.776c.844 1.443 2.382 2.251 3.961 2.251a4.59 4.59 0 0 0 2.276-.602 4.508 4.508 0 0 0 2.284-3.904c0-.787-.212-1.565-.613-2.25z"/></g><g ><path d="M73.92 40.704c.848-2.694.647-5.58-.568-8.123a1.208 1.208 0 0 0-1.599-.567c-.6.279-.857.985-.574 1.577a8.74 8.74 0 0 1 .447 6.41 8.876 8.876 0 0 1-4.095 5.056 9.05 9.05 0 0 1-6.831.887 8.928 8.928 0 0 1-5.467-4.138c-2.481-4.24-1.003-9.683 3.296-12.131a9.09 9.09 0 0 1 9.937.61c.53.394 1.283.291 1.683-.23.4-.523.296-1.266-.233-1.66a11.515 11.515 0 0 0-12.589-.773c-2.638 1.503-4.525 3.929-5.313 6.832a11.046 11.046 0 0 0 1.139 8.537c1.523 2.603 3.982 4.464 6.925 5.242a11.456 11.456 0 0 0 8.654-1.124 11.244 11.244 0 0 0 5.188-6.405z"/></g></g></g></g></svg>