<svg xmlns="http://www.w3.org/2000/svg" width="38" height="38" viewBox="0 0 38 38"><g><g><g><path fill="#282828" d="M19 38c10.493 0 19-8.507 19-19S29.493 0 19 0 0 8.507 0 19s8.507 19 19 19z"/></g><g><path fill="#fff" d="M24.013 29.716c-1.508 0-2.734-1.268-2.734-2.828 0-1.56 1.226-2.827 2.734-2.827s2.733 1.268 2.733 2.827c0 1.56-1.225 2.828-2.733 2.828zm-13.026-7.388c-1.508 0-2.733-1.268-2.733-2.828 0-1.56 1.225-2.827 2.733-2.827s2.734 1.268 2.734 2.827c0 1.56-1.23 2.828-2.734 2.828zM24.013 9.294c1.508 0 2.733 1.268 2.733 2.828 0 1.56-1.225 2.827-2.733 2.827s-2.734-1.268-2.734-2.827c0-1.56 1.23-2.828 2.734-2.828zm0 13.482c-1.282 0-2.424.63-3.155 1.605l-6.12-3.53a4.247 4.247 0 0 0-.004-2.717l6.115-3.524c.726.979 1.873 1.614 3.16 1.614 2.192 0 3.982-1.844 3.982-4.112C27.99 9.843 26.205 8 24.008 8s-3.982 1.843-3.982 4.112c0 .477.078.936.226 1.361l-6.11 3.525a3.922 3.922 0 0 0-3.16-1.615C8.79 15.383 7 17.227 7 19.495c0 2.269 1.79 4.112 3.987 4.112 1.286 0 2.433-.635 3.164-1.619l6.115 3.53c-.148.43-.231.893-.231 1.37 0 2.264 1.785 4.112 3.982 4.112C26.215 31 28 29.157 28 26.888c0-2.268-1.79-4.112-3.987-4.112z"/></g></g></g></svg>