<svg xmlns="http://www.w3.org/2000/svg" width="21" height="23" viewBox="0 0 21 23"><g><g><g><path d="M19.754 13.592c0 1.162-.911 2.11-2.028 2.11h-.567v-1.505h.814a.628.628 0 0 0 .618-.643.628.628 0 0 0-.618-.643H2.87a.628.628 0 0 0-.618.643c0 .357.275.643.618.643h.911v1.505h-.517c-1.117 0-2.028-.948-2.028-2.11V8.116c0-1.162.911-2.11 2.028-2.11h14.462c1.117 0 2.028.948 2.028 2.11zm-3.818 7.711c0 .224-.178.41-.394.41H5.408a.405.405 0 0 1-.394-.41v-7.098h10.922zM5.014 3.393c0-1.16.911-2.106 2.029-2.106h6.85c1.117 0 2.029.946 2.029 2.106v1.311H5.014zm12.721 1.321h-.568V3.4C17.167 1.525 15.702 0 13.902 0H7.047c-1.8 0-3.265 1.525-3.265 3.399v1.315h-.517C1.465 4.714 0 6.24 0 8.114v5.481c0 1.873 1.465 3.399 3.265 3.399h.513v4.309c0 .934.732 1.697 1.63 1.697h10.124c.898 0 1.63-.763 1.63-1.697v-4.31h.573c1.8 0 3.265-1.525 3.265-3.398V8.113c0-1.873-1.465-3.399-3.265-3.399z"/></g><g><path d="M6.61 17h7.78c.339 0 .61-.222.61-.5s-.271-.5-.61-.5H6.61c-.339 0-.61.222-.61.5s.276.5.61.5z"/></g><g><path d="M14.394 19H6.61c-.34 0-.611.222-.611.5s.271.5.61.5h7.78c.339 0 .61-.222.61-.5s-.271-.5-.606-.5z"/></g><g><path d="M17.256 7h-1.512c-.413 0-.744.222-.744.5s.33.5.744.5h1.512c.413 0 .744-.222.744-.5s-.33-.5-.744-.5z"/></g></g></g></svg>