<svg xmlns="http://www.w3.org/2000/svg" width="17" height="18" viewBox="0 0 17 18"><g><g ><g><g ><path fill="#f7d100" d="M6 10.364c0-.201-.245-.364-.547-.364H3.546c-.301 0-.546.163-.546.364v1.272c0 .201.245.364.546.364h1.907c.302 0 .547-.163.547-.364v-1.272z"/></g><g ><path fill="#f7d100" d="M10 10.364c0-.201-.245-.364-.546-.364H7.546c-.301 0-.546.163-.546.364v1.272c0 .201.245.364.546.364h1.908c.301 0 .546-.163.546-.364z"/></g><g ><path fill="#f7d100" d="M14 10.364c0-.201-.245-.364-.546-.364h-1.907c-.302 0-.547.163-.547.364v1.272c0 .201.245.364.547.364h1.907c.301 0 .546-.163.546-.364z"/></g><g ><path fill="#f7d100" d="M6 13.364c0-.201-.245-.364-.547-.364H3.546c-.301 0-.546.163-.546.364v1.272c0 .201.245.364.546.364h1.907c.302 0 .547-.163.547-.364v-1.272z"/></g><g ><path fill="#f7d100" d="M10 13.364c0-.201-.245-.364-.546-.364H7.546c-.301 0-.546.163-.546.364v1.272c0 .201.245.364.546.364h1.908c.301 0 .546-.163.546-.364z"/></g><g ><path fill="#f7d100" d="M14 13.364c0-.201-.245-.364-.546-.364h-1.907c-.302 0-.547.163-.547.364v1.272c0 .201.245.364.547.364h1.907c.301 0 .546-.163.546-.364v-1.272z"/></g><g ><path fill="#f7d100" d="M14.309 16.28H2.662a.686.686 0 0 1-.674-.697v-6.59c0-.385.301-.697.674-.697h11.647c.372 0 .673.312.673.697v6.59a.686.686 0 0 1-.673.697zm1.178-14.272v2.177c0 .984-.771 1.777-1.722 1.777H12.68c-.95 0-1.732-.793-1.732-1.777V2H6.053v2.185c0 .984-.782 1.777-1.732 1.777H3.235c-.95 0-1.722-.793-1.722-1.777V2.008C.683 2.034 0 2.745 0 3.62v12.757C0 17.268.698 18 1.558 18h13.884c.86 0 1.558-.733 1.558-1.623V3.62c0-.875-.683-1.586-1.513-1.612z"/></g><g ><path fill="#f7d100" d="M3.524 5h.952C4.766 5 5 4.715 5 4.363V.638C5 .285 4.766 0 4.476 0h-.952C3.234 0 3 .285 3 .638v3.725c0 .352.234.637.524.637z"/></g><g ><path fill="#f7d100" d="M12.524 5h.952c.29 0 .524-.285.524-.637V.638C14 .285 13.766 0 13.476 0h-.952c-.29 0-.524.285-.524.638v3.725c0 .352.234.637.524.637z"/></g></g></g></g></svg>