<svg xmlns="http://www.w3.org/2000/svg" width="21" height="19" viewBox="0 0 21 19"><g><g ><g><g ><path d="M20.398 9.089a.597.597 0 0 0-.601.597v5.439c0 1.48-1.213 2.68-2.697 2.68H3.9a2.691 2.691 0 0 1-2.697-2.68V9.598A.597.597 0 0 0 .602 9 .597.597 0 0 0 0 9.598v5.527C0 17.264 1.751 19 3.9 19h13.2c2.153 0 3.9-1.74 3.9-3.875V9.686a.6.6 0 0 0-.602-.597z"/></g><g ><path d="M10.072 13.832a.64.64 0 0 0 .43.168.621.621 0 0 0 .43-.168l3.888-3.602a.536.536 0 0 0 0-.802.644.644 0 0 0-.865 0l-2.841 2.637V.567c0-.315-.272-.567-.612-.567-.34 0-.611.252-.611.567v11.498L7.045 9.428a.644.644 0 0 0-.865 0 .536.536 0 0 0 0 .802z"/></g></g></g></g></svg>