<?xml version="1.0" encoding="UTF-8"?>
<svg width="24px" height="24px" viewBox="0 0 24 24" version="1.1" xmlns="http://www.w3.org/2000/svg" xmlns:xlink="http://www.w3.org/1999/xlink">
    <!-- Generator: sketchtool 61.2 (101010) - https://sketch.com -->
    <title>B5ED49FE-8EAD-417D-BD3A-AD777FD62C16</title>
    <desc>Created with sketchtool.</desc>
    <g id="Page-1" stroke="none" stroke-width="1" fill="none" fill-rule="evenodd">
        <g id="Home_v3" transform="translate(-1093.000000, -25.000000)" fill-rule="nonzero">
            <g id="topnav">
                <g id="fb" transform="translate(1092.000000, 24.000000)">
                    <g id="flaticon1578552808-svg" transform="translate(1.000000, 1.000000)">
                        <path d="M24,12 C24,5.37270588 18.6272549,0 12,0 C5.37270588,0 0,5.37270588 0,12 C0,18.6272549 5.37270588,24 12,24 C18.6272549,24 24,18.6272549 24,12 Z M2,12 C2,6.47699707 6.47699707,2 12,2 C17.5230029,2 22,6.47699707 22,12 C22,17.5230029 17.5230029,22 12,22 C6.47699707,22 2,17.5230029 2,12 Z" id="Shape" fill="#000000"></path>
                        <path d="M4,11 L5.99979272,11 C5.99979272,8.24303979 8.24307976,5.99997174 11,5.99997174 L11,4 C7.14069419,4 4,7.1406646 4,11 Z" id="Path" fill="#F7D100"></path>
                        <path d="M14.4222101,22 L14.4222101,14.990614 L16.5458869,14.990614 L16.8814248,12.6677779 L14.4222101,12.6677779 L14.4222101,11.503046 C14.4222101,10.8969472 14.6046643,10.3184309 15.4034618,10.3184309 L17,10.3184309 L17,8 L14.7334062,8 C12.827676,8 12.3076433,9.36673839 12.3076433,11.2612732 L12.3076433,12.6667064 L11,12.6667064 L11,14.990614 L12.3076433,14.990614 L12.3076433,22 L14.4222101,22 L14.4222101,22 Z" id="Path" fill="#000000"></path>
                    </g>
                </g>
            </g>
        </g>
    </g>
</svg>