<svg xmlns="http://www.w3.org/2000/svg" width="12" height="18" viewBox="0 0 12 18"><g><g><path fill="#f7d100" d="M5.967 8.336c-.774 0-1.62-.4-2.039-1.504-.062-.176-.057-.528-.057-.56v-.496c0-1.408 1.157-2.048 2.163-2.048 1.239 0 2.197 1.024 2.197 2.304 0 1.28-1.025 2.304-2.264 2.304zm5.75-3.856c-.063-.24-.188-.496-.282-.72C10.321.992 7.885 0 5.92 0 3.286 0 .387 1.824 0 5.584v.768c0 .032.01.32.026.464.217 1.792 1.585 3.696 2.607 5.488 1.1 1.92 2.24 3.808 3.37 5.696.697-1.232 1.392-2.48 2.073-3.68.185-.352.4-.704.587-1.04.123-.224.36-.448.468-.656 1.1-2.08 2.869-4.176 2.869-6.24v-.848c0-.224-.268-1.008-.283-1.056z"/></g></g></svg>