<svg xmlns="http://www.w3.org/2000/svg" width="70" height="70" viewBox="0 0 70 70"><defs><clipPath id="bpvea"><path fill="#fff" d="M32 62V40h3v9h23v-9h3v22zm26-29H35v7h23z"/></clipPath><clipPath id="bpveb"><path fill="#fff" d="M17 56V34h29v22zm3-3h23V37H20z"/></clipPath></defs><g><g ><g><g ><path fill="#010002" d="M65.625 61.25a4.382 4.382 0 0 1-4.375 4.375H8.75a4.38 4.38 0 0 1-4.375-4.375V17.5c0-1.208.98-2.188 2.188-2.188H8.75v43.75c0 1.21.978 2.188 2.188 2.188 1.21 0 2.187-.978 2.187-2.188v-52.5c0-1.207.98-2.187 2.188-2.187h48.124a2.19 2.19 0 0 1 2.188 2.188zM63.437 0H15.313A6.56 6.56 0 0 0 8.75 6.563v4.375H6.562A6.56 6.56 0 0 0 0 17.5v43.75A8.75 8.75 0 0 0 8.75 70h52.5A8.75 8.75 0 0 0 70 61.25V6.562A6.562 6.562 0 0 0 63.437 0z"/></g><g ><path fill="#010002" d="M43.111 28H60.89c.615 0 1.111-.672 1.111-1.5s-.496-1.5-1.111-1.5H43.11C42.5 25 42 25.672 42 26.5s.5 1.5 1.111 1.5z"/></g><g ><path fill="#010002" d="M43.111 23H60.89c.615 0 1.111-.672 1.111-1.5s-.496-1.5-1.111-1.5H43.11C42.5 20 42 20.672 42 21.5s.5 1.5 1.111 1.5z"/></g><g ><path fill="#010002" d="M43.111 17H60.89c.615 0 1.111-.672 1.111-1.5s-.496-1.5-1.111-1.5H43.11C42.5 14 42 14.672 42 15.5s.5 1.5 1.111 1.5z"/></g><g ><path fill="#f7d100" d="M21.444 12.438h11.122v11.106H21.444zM19.222 28h15.556A2.22 2.22 0 0 0 37 25.777V10.223A2.22 2.22 0 0 0 34.778 8H19.222A2.22 2.22 0 0 0 17 10.223v15.554c0 1.227.993 2.223 2.222 2.223z"/></g></g><g transform="rotate(-90 23 57.5)"><path fill="#f7d100" d="M25.787 56h-5.676c-.615 0-1.111.675-1.111 1.5 0 .831.496 1.5 1.111 1.5h5.676c.611 0 1.111-.669 1.111-1.5 0-.825-.5-1.5-1.11-1.5z"/></g><g transform="rotate(180 46.5 46)"><g  transform="rotate(-90 55 38.5)"><path fill="#1d1d1b" d="M40.787 52h-5.676c-.615 0-1.111.675-1.111 1.5 0 .831.496 1.5 1.111 1.5h5.676c.611 0 1.111-.669 1.111-1.5 0-.825-.5-1.5-1.11-1.5z"/></g><g  transform="rotate(-59 53.5 37.5)"><path fill="#1d1d1b" d="M42.904 52.47h-6.468c-.701 0-1.266.675-1.266 1.5 0 .831.565 1.5 1.266 1.5h6.468c.696 0 1.266-.669 1.266-1.5 0-.825-.57-1.5-1.266-1.5z"/></g><g ><path fill="none" stroke="#1d1d1b" stroke-linejoin="round" stroke-miterlimit="20" stroke-width="6" d="M35 33v0h23v16H35v0z" clip-path="url(&quot;#bpvea&quot;)"/></g></g><g transform="rotate(-59 24.5 58.5)"><path fill="#f7d100" d="M27.904 56.47h-6.468c-.701 0-1.266.675-1.266 1.5 0 .831.565 1.5 1.266 1.5h6.468c.696 0 1.266-.669 1.266-1.5 0-.825-.57-1.5-1.266-1.5z"/></g><g><path fill="none" stroke="#f7d100" stroke-linejoin="round" stroke-miterlimit="20" stroke-width="6" d="M20 37v0h23v16H20v0z" clip-path="url(&quot;#bpveb&quot;)"/></g></g></g></svg>