<svg xmlns="http://www.w3.org/2000/svg" width="70" height="70" viewBox="0 0 70 70"><g><g ><g><g ><path fill="#010002" d="M65.625 61.25a4.382 4.382 0 0 1-4.375 4.375H8.75a4.38 4.38 0 0 1-4.375-4.375V17.5c0-1.208.98-2.188 2.188-2.188H8.75v43.75c0 1.21.978 2.188 2.188 2.188 1.21 0 2.187-.978 2.187-2.188v-52.5c0-1.207.98-2.187 2.188-2.187h48.124a2.19 2.19 0 0 1 2.188 2.188zM63.437 0H15.313A6.56 6.56 0 0 0 8.75 6.563v4.375H6.562A6.56 6.56 0 0 0 0 17.5v43.75A8.75 8.75 0 0 0 8.75 70h52.5A8.75 8.75 0 0 0 70 61.25V6.562A6.562 6.562 0 0 0 63.437 0z"/></g><g ><path fill="#010002" d="M43.111 28H60.89c.615 0 1.111-.672 1.111-1.5s-.496-1.5-1.111-1.5H43.11C42.5 25 42 25.672 42 26.5s.5 1.5 1.111 1.5z"/></g><g ><path fill="#010002" d="M43.111 23H60.89c.615 0 1.111-.672 1.111-1.5s-.496-1.5-1.111-1.5H43.11C42.5 20 42 20.672 42 21.5s.5 1.5 1.111 1.5z"/></g><g ><path fill="#010002" d="M43.111 17H60.89c.615 0 1.111-.672 1.111-1.5s-.496-1.5-1.111-1.5H43.11C42.5 14 42 14.672 42 15.5s.5 1.5 1.111 1.5z"/></g><g ><path fill="#f7d100" d="M25.928 59h-7.817c-.613 0-1.111.675-1.111 1.5 0 .831.498 1.5 1.111 1.5h7.817c.611 0 1.111-.669 1.111-1.5 0-.825-.497-1.5-1.11-1.5z"/></g><g ><path fill="#f7d100" d="M26.053 53h-7.942c-.613 0-1.111.675-1.111 1.5 0 .831.498 1.5 1.111 1.5h7.942c.611 0 1.111-.669 1.111-1.5 0-.825-.498-1.5-1.111-1.5z"/></g><g ><path fill="#1d1d1b" d="M35.5 34H18.111c-.613 0-1.111.675-1.111 1.5 0 .831.498 1.5 1.111 1.5H35.5c.611 0 1.111-.669 1.111-1.5 0-.825-.498-1.5-1.111-1.5z"/></g><g ><path fill="#1d1d1b" d="M26.053 39h-7.942c-.613 0-1.111.675-1.111 1.5 0 .831.498 1.5 1.111 1.5h7.942c.611 0 1.111-.669 1.111-1.5 0-.825-.498-1.5-1.111-1.5z"/></g><g ><path fill="#1d1d1b" d="M26.053 45h-7.942c-.613 0-1.111.675-1.111 1.5 0 .831.498 1.5 1.111 1.5h7.942c.611 0 1.111-.669 1.111-1.5 0-.825-.498-1.5-1.111-1.5z"/></g><g ><path fill="#f7d100" d="M21.444 12.438h11.122v11.106H21.444zM19.222 28h15.556A2.22 2.22 0 0 0 37 25.777V10.223A2.22 2.22 0 0 0 34.778 8H19.222A2.22 2.22 0 0 0 17 10.223v15.554c0 1.227.993 2.223 2.222 2.223z"/></g></g><g><g ><path d="M33 55.652v4.811a.55.55 0 0 0 .56.537h3.88a.55.55 0 0 0 .56-.537V52l-2.818 2.701a3.486 3.486 0 0 1-2.182.951z"/></g><g ><path d="M40 52v8.467c0 .29.248.533.56.533h3.88c.306 0 .56-.236.56-.533v-4.984a3.468 3.468 0 0 1-2.335-.945z"/></g><g ><path d="M47 54.787v5.665c0 .299.248.548.56.548h3.88c.306 0 .56-.243.56-.548V50l-4.447 4.351a3.319 3.319 0 0 1-.553.436z"/></g><g ><path d="M58.625 44L54 48.416v12.05c0 .291.248.534.56.534h3.88c.306 0 .56-.237.56-.534V44.334c-.127-.103-.223-.194-.293-.255z"/></g><g ><path d="M61.736 35.301c-.185-.199-.465-.301-.821-.301h-.102c-1.81.083-3.611.173-5.42.256-.242.013-.573.026-.835.288a.955.955 0 0 0-.197.295c-.267.583.108.96.287 1.14l.452.46c.312.321.63.641.949.955l-10.93 10.995-4.91-4.937a1.557 1.557 0 0 0-2.21 0l-6.54 6.57a1.575 1.575 0 0 0 0 2.222l.293.295a1.557 1.557 0 0 0 2.21 0l5.14-5.168 4.91 4.937c.293.295.687.461 1.108.461.42 0 .809-.166 1.108-.46l12.33-12.398 1.395 1.396c.165.166.395.397.745.397a.918.918 0 0 0 .446-.122c.102-.058.191-.122.267-.198.274-.276.325-.628.338-.903.05-1.179.108-2.357.166-3.542l.082-1.774c.02-.37-.063-.66-.26-.864z"/></g></g></g></g></svg>