<svg xmlns="http://www.w3.org/2000/svg" width="70" height="70" viewBox="0 0 70 70"><g><g ><g><g ><path fill="#010002" d="M65.625 61.25a4.382 4.382 0 0 1-4.375 4.375H8.75a4.38 4.38 0 0 1-4.375-4.375V17.5c0-1.208.98-2.188 2.188-2.188H8.75v43.75c0 1.21.978 2.188 2.188 2.188 1.21 0 2.187-.978 2.187-2.188v-52.5c0-1.207.98-2.187 2.188-2.187h48.124a2.19 2.19 0 0 1 2.188 2.188zM63.437 0H15.313A6.56 6.56 0 0 0 8.75 6.563v4.375H6.562A6.56 6.56 0 0 0 0 17.5v43.75A8.75 8.75 0 0 0 8.75 70h52.5A8.75 8.75 0 0 0 70 61.25V6.562A6.562 6.562 0 0 0 63.437 0z"/></g><g ><path fill="#010002" d="M43.111 28H60.89c.615 0 1.111-.672 1.111-1.5s-.496-1.5-1.111-1.5H43.11C42.5 25 42 25.672 42 26.5s.5 1.5 1.111 1.5z"/></g><g ><path fill="#010002" d="M43.111 23H60.89c.615 0 1.111-.672 1.111-1.5s-.496-1.5-1.111-1.5H43.11C42.5 20 42 20.672 42 21.5s.5 1.5 1.111 1.5z"/></g><g ><path fill="#010002" d="M43.111 17H60.89c.615 0 1.111-.672 1.111-1.5s-.496-1.5-1.111-1.5H43.11C42.5 14 42 14.672 42 15.5s.5 1.5 1.111 1.5z"/></g><g  transform="rotate(-90 35 49)"><path fill="#f7d100" d="M45.516 47.38H24.491c-.613 0-1.111.675-1.111 1.5 0 .831.498 1.5 1.111 1.5h21.025c.611 0 1.111-.669 1.111-1.5 0-.825-.498-1.5-1.11-1.5z"/></g><g  transform="rotate(-90 27 50.5)"><path fill="#1d1d1b" d="M35.889 49H18.11c-.613 0-1.111.675-1.111 1.5 0 .831.498 1.5 1.111 1.5H35.89C36.5 52 37 51.331 37 50.5c0-.825-.498-1.5-1.111-1.5z"/></g><g  transform="rotate(-90 43 53)"><path fill="#1d1d1b" d="M49.328 51.57H36.68c-.613 0-1.111.675-1.111 1.5 0 .831.498 1.5 1.111 1.5h12.647c.61 0 1.11-.669 1.11-1.5 0-.825-.497-1.5-1.11-1.5z"/></g><g  transform="rotate(-90 51 50.5)"><path fill="#f7d100" d="M59.889 49H42.11c-.613 0-1.111.675-1.111 1.5 0 .831.498 1.5 1.111 1.5H59.89C60.5 52 61 51.331 61 50.5c0-.825-.498-1.5-1.111-1.5z"/></g><g  transform="rotate(-90 59 48)"><path fill="#1d1d1b" d="M70.593 46.3H47.41c-.613 0-1.111.675-1.111 1.5 0 .831.498 1.5 1.111 1.5h23.182c.61 0 1.11-.669 1.11-1.5 0-.825-.497-1.5-1.11-1.5z"/></g><g  transform="rotate(-90 19 47)"><path fill="#f7d100" d="M31.654 45.23H6.341c-.613 0-1.111.675-1.111 1.5 0 .831.498 1.5 1.111 1.5h25.313c.611 0 1.111-.669 1.111-1.5 0-.825-.498-1.5-1.111-1.5z"/></g><g ><path fill="#1d1d1b" d="M60.256 59H18.11c-.613 0-1.111.675-1.111 1.5 0 .831.498 1.5 1.111 1.5h42.145c.61 0 1.11-.669 1.11-1.5 0-.825-.497-1.5-1.11-1.5z"/></g><g ><path fill="#f7d100" d="M21.444 12.438h11.122v11.106H21.444zM19.222 28h15.556A2.22 2.22 0 0 0 37 25.777V10.223A2.22 2.22 0 0 0 34.778 8H19.222A2.22 2.22 0 0 0 17 10.223v15.554c0 1.227.993 2.223 2.222 2.223z"/></g></g></g></g></svg>