<?xml version="1.0" encoding="UTF-8"?>
<svg width="24px" height="24px" viewBox="0 0 24 24" version="1.1" xmlns="http://www.w3.org/2000/svg" xmlns:xlink="http://www.w3.org/1999/xlink">
    <!-- Generator: sketchtool 61.2 (101010) - https://sketch.com -->
    <title>B64C3B85-2914-4C7C-9ABB-639C50930855</title>
    <desc>Created with sketchtool.</desc>
    <g id="Page-1" stroke="none" stroke-width="1" fill="none" fill-rule="evenodd">
        <g id="Home_v3" transform="translate(-1141.000000, -25.000000)" fill-rule="nonzero">
            <g id="topnav">
                <g id="search" transform="translate(1140.000000, 24.000000)">
                    <g transform="translate(1.000000, 1.000000)">
                        <path d="M23.3652073,20.3019564 L18.0637882,15 C17.2738737,16.2285218 16.2284966,17.2733964 15,18.0633748 L20.3018477,23.3653312 C21.1482459,24.2115563 22.5205712,24.2115563 23.3651597,23.3653312 C24.2116055,22.5204873 24.2116055,21.1481338 23.3652073,20.3019564 Z" id="Path" fill="#000000"></path>
                        <path d="M18,9.00009893 C18,4.02992531 13.9702947,0 9.00004946,0 C4.02990316,0 0,4.02992531 0,9.00009893 C0,13.9702725 4.02990316,18 9.00004946,18 C13.9702947,18 18,13.9702725 18,9.00009893 Z M9.00004946,15.7499134 C5.27785594,15.7499134 2.25007419,12.7223624 2.25007419,9.00014839 C2.25007419,5.27793441 5.27785594,2.25013602 9.00004946,2.25013602 C12.7221441,2.25013602 15.7501731,5.27793441 15.7501731,9.00014839 C15.7501731,12.7223624 12.7221441,15.7499134 9.00004946,15.7499134 Z" id="Shape" fill="#000000"></path>
                        <path d="M3,10 L4.99979272,10 C4.99979272,7.24303979 7.24307976,4.99997174 10,4.99997174 L10,3 C6.14069419,3 3,6.1406646 3,10 Z" id="Path" fill="#F7D100"></path>
                    </g>
                </g>
            </g>
        </g>
    </g>
</svg>