<svg xmlns="http://www.w3.org/2000/svg" width="32" height="32" viewBox="0 0 32 32"><g><g><path fill="#282828" d="M16 32c8.837 0 16-7.163 16-16S24.837 0 16 0 0 7.163 0 16s7.163 16 16 16z"/></g><g><path fill="#fff" d="M19.699 8.003L17.779 8c-2.155 0-3.548 1.449-3.548 3.692v1.702h-1.93A.304.304 0 0 0 12 13.7v2.466c0 .169.135.305.302.305h1.929v6.223c0 .17.135.306.302.306h2.517a.304.304 0 0 0 .302-.306v-6.223h2.255a.304.304 0 0 0 .302-.305l.001-2.466a.308.308 0 0 0-.088-.217.3.3 0 0 0-.214-.09h-2.256v-1.442c0-.694.163-1.046 1.054-1.046h1.292a.304.304 0 0 0 .302-.306v-2.29a.304.304 0 0 0-.301-.306z"/></g></g></svg>