<svg xmlns="http://www.w3.org/2000/svg" width="32" height="32" viewBox="0 0 32 32"><g><g><g ><g><path fill="#282828" d="M16 32c8.837 0 16-7.163 16-16S24.837 0 16 0 0 7.163 0 16s7.163 16 16 16z"/></g><g><path fill="#fff" d="M24 11.42c-.589.24-1.22.404-1.885.477a3.1 3.1 0 0 0 1.443-1.675 6.96 6.96 0 0 1-2.086.735A3.405 3.405 0 0 0 19.077 10c-1.813 0-3.282 1.357-3.282 3.03 0 .237.028.469.084.69-2.727-.126-5.146-1.333-6.764-3.166a2.833 2.833 0 0 0-.444 1.523c0 1.052.58 1.98 1.46 2.522a3.492 3.492 0 0 1-1.487-.38v.038c0 1.467 1.132 2.692 2.632 2.971a3.584 3.584 0 0 1-.864.106c-.212 0-.417-.019-.618-.056.418 1.205 1.63 2.08 3.065 2.105a6.94 6.94 0 0 1-4.076 1.295c-.265 0-.526-.015-.783-.041A9.845 9.845 0 0 0 13.031 22c6.038 0 9.338-4.618 9.338-8.622l-.01-.393A6.303 6.303 0 0 0 24 11.42z"/></g></g></g></g></svg>