<svg xmlns="http://www.w3.org/2000/svg" width="25" height="25" viewBox="0 0 25 25"><g><g><path fill="#010002" d="M23.438 21.875c0 .86-.702 1.563-1.563 1.563H3.125a1.565 1.565 0 0 1-1.563-1.563V6.25c0-.431.35-.781.782-.781h.781v15.625a.78.78 0 1 0 1.563 0V2.344c0-.431.35-.781.78-.781h17.188c.43 0 .782.35.782.78zM22.655 0H5.47a2.343 2.343 0 0 0-2.344 2.344v1.562h-.781A2.343 2.343 0 0 0 0 6.25v15.625C0 23.601 1.4 25 3.125 25h18.75C23.601 25 25 23.6 25 21.875V2.344A2.344 2.344 0 0 0 22.656 0z"/></g><g><path fill="#010002" d="M15.389 10h6.222c.216 0 .389-.224.389-.5s-.173-.5-.389-.5H15.39c-.214 0-.389.224-.389.5s.175.5.389.5z"/></g><g><path fill="#010002" d="M15.389 8h6.222c.216 0 .389-.224.389-.5s-.173-.5-.389-.5H15.39c-.214 0-.389.224-.389.5s.175.5.389.5z"/></g><g><path fill="#010002" d="M15.389 6h6.222c.216 0 .389-.224.389-.5s-.173-.5-.389-.5H15.39c-.214 0-.389.224-.389.5s.175.5.389.5z"/></g><g><path fill="#f7d100" d="M12.611 21H6.39c-.215 0-.389.225-.389.5 0 .277.174.5.389.5h6.222c.214 0 .389-.223.389-.5 0-.275-.174-.5-.389-.5z"/></g><g><path fill="#f7d100" d="M12.611 19H6.39c-.215 0-.389.225-.389.5 0 .277.174.5.389.5h6.222c.214 0 .389-.223.389-.5 0-.275-.174-.5-.389-.5z"/></g><g><path fill="#010002" d="M12.611 16H6.39c-.215 0-.389.225-.389.5 0 .277.174.5.389.5h6.222c.214 0 .389-.223.389-.5 0-.275-.174-.5-.389-.5z"/></g><g><path fill="#f7d100" d="M21.611 21H15.39c-.216 0-.389.225-.389.5 0 .277.173.5.389.5h6.222c.214 0 .389-.223.389-.5 0-.275-.175-.5-.389-.5z"/></g><g><path fill="#f7d100" d="M21.611 19H15.39c-.216 0-.389.225-.389.5 0 .277.173.5.389.5h6.222c.214 0 .389-.223.389-.5 0-.275-.175-.5-.389-.5z"/></g><g><path fill="#010002" d="M21.611 16H15.39c-.216 0-.389.225-.389.5 0 .277.173.5.389.5h6.222c.214 0 .389-.223.389-.5 0-.275-.175-.5-.389-.5z"/></g><g><path fill="#010002" d="M21.6 12H6.4c-.22 0-.4.224-.4.5s.18.5.4.5h15.2c.22 0 .4-.224.4-.5s-.18-.5-.4-.5z"/></g><g><path fill="#010002" d="M21.6 14H6.4c-.22 0-.4.225-.4.5 0 .277.18.5.4.5h15.2c.22 0 .4-.223.4-.5 0-.275-.18-.5-.4-.5z"/></g><g><path fill="#f7d100" d="M7.556 4.553h3.878v3.89H7.556zM6.778 10h5.444c.43 0 .778-.348.778-.778V3.778A.777.777 0 0 0 12.222 3H6.778A.777.777 0 0 0 6 3.778v5.444c0 .43.348.778.778.778z"/></g></g></svg>