<?xml version="1.0" encoding="UTF-8"?>
<svg width="28px" height="24px" viewBox="0 0 28 24" version="1.1" xmlns="http://www.w3.org/2000/svg" xmlns:xlink="http://www.w3.org/1999/xlink">
    <!-- Generator: sketchtool 61.2 (101010) - https://sketch.com -->
    <title>23CBE01A-E39D-4722-9D02-00F5181185D3</title>
    <desc>Created with sketchtool.</desc>
    <g id="Page-1" stroke="none" stroke-width="1" fill="none" fill-rule="evenodd">
        <g id="Home_v3" transform="translate(-1043.000000, -25.000000)" stroke-width="2">
            <g id="topnav">
                <g id="tw" transform="translate(1044.000000, 24.000000)">
                    <g transform="translate(0.000000, 2.000000)" id="Path">
                        <path d="M5,14 C-0.436,9.462 1.908,2.359 2,2 C2.095,1.842 2.042,1.674 2.232,1.659 C2.421,1.646 2.604,1.721 2.724,1.861 C5.063,4.612 8.447,6.356 12.097,6.715 C12.081,6.547 12.073,6.376 12.073,6.208 C12.073,3.206 14.619,0.763 17.748,0.763 C19.201,0.763 20.607,1.303 21.657,2.257 C22.622,2.045 23.547,1.689 24.41,1.198 C24.617,1.083 24.876,1.099 25.064,1.241 C25.251,1.385 25.328,1.625 25.255,1.844 C25.253,1.85 25.805,2.83 25.157,3.105 C25.389,3.003 25.667,3.066 25.833,3.256 C25.999,3.445 26.013,3.716 25.871,3.921 C25.2,4.882 24.381,5.719 23.437,6.414 C23.44,6.534 23.441,6.655 23.441,6.774 C23.441,13.885 17.8,21.241 8.361,21.241 C5.472,21.241 2.006,20.052 0,18" stroke="#000000"></path>
                        <path d="M12,15 C12,15 15.93,14.04 17,11 C18.01,8.13 18,8 18,8" stroke="#F7D100"></path>
                    </g>
                </g>
            </g>
        </g>
    </g>
</svg>