<svg xmlns="http://www.w3.org/2000/svg" width="62" height="62" viewBox="0 0 62 62"><g><g><path fill="#fff" d="M42.838 31.005L25.797 21.38c-1.553-.879-2.806-.177-2.797 1.563l.087 19.109c.008 1.74 1.276 2.447 2.834 1.576l16.91-9.457c1.556-.87 1.56-2.286.007-3.165zm.66 21.641c-11.954 6.904-27.243 2.807-34.145-9.149C2.45 31.543 6.548 16.254 18.502 9.354c11.955-6.904 27.243-2.807 34.145 9.148 6.903 11.956 2.806 27.242-9.149 34.144zm14.343-37.144C49.282.678 30.326-4.402 15.502 4.16.678 12.717-4.402 31.673 4.16 46.497c8.557 14.824 27.514 19.905 42.337 11.345 14.825-8.56 19.907-27.516 11.345-42.34z"/></g></g></svg>