<svg xmlns="http://www.w3.org/2000/svg" width="24" height="24" viewBox="0 0 24 24"><g><g><path fill="#fff" d="M2 12C2 6.477 6.477 2 12 2s10 4.477 10 10-4.477 10-10 10S2 17.523 2 12zm22 0c0-6.627-5.373-12-12-12S0 5.373 0 12s5.373 12 12 12 12-5.373 12-12z"/></g><g><path fill="#f7d100" d="M4 11h2c0-2.757 2.243-5 5-5V4c-3.86 0-7 3.14-7 7z"/></g><g><path fill="#fff" d="M14.422 22v-7.01h2.124l.335-2.322h-2.459v-1.165c0-.606.183-1.185.981-1.185H17V8h-2.267c-1.905 0-2.425 1.367-2.425 3.261v1.406H11v2.324h1.308V22h2.114z"/></g></g></svg>