<svg xmlns="http://www.w3.org/2000/svg" width="25" height="25" viewBox="0 0 25 25"><g><g><path fill="#fff" d="M22.596 24.198h-18.3c-.6 0-1-.4-1-1s.4-1 1-1h18v-20h-20v16c0 .6-.4 1-1 1s-1-.4-1-1v-16.2c-.1-.5 0-1 .4-1.4.3-.3.8-.4 1.3-.3h20.5c.5-.1 1 .1 1.4.4.2.3.4.8.3 1.3v20.5c.1.5-.1 1-.4 1.4-.3.2-.7.4-1.2.3z"/></g><g><path fill="#fff" d="M16.3 12.3c0 2.2-1.8 4-4 4s-4-1.8-4-4 1.8-4 4-4 4 1.8 4 4zm2-.1c0-3.3-2.7-6-6-6s-6 2.7-6 6 2.7 6 6 6 6-2.6 6-6z"/></g><g><path fill="#f7d100" d="M18.8 6.9a1.6 1.6 0 1 0 0-3.2 1.6 1.6 0 0 0 0 3.2z"/></g></g></svg>