<svg xmlns="http://www.w3.org/2000/svg" width="28" height="24" viewBox="0 0 28 24"><g><g><path fill="none" stroke="#fff" stroke-miterlimit="20" stroke-width="2" d="M6 14.997c-5.436-4.538-3.092-11.641-3-12 .095-.158.042-.326.232-.341a.594.594 0 0 1 .492.202c2.339 2.751 5.723 4.495 9.373 4.854a5.376 5.376 0 0 1-.024-.507c0-3.002 2.546-5.445 5.675-5.445 1.453 0 2.859.54 3.909 1.494a9.82 9.82 0 0 0 2.753-1.059.604.604 0 0 1 .654.043.544.544 0 0 1 .191.603c-.002.006.55.986-.098 1.261a.59.59 0 0 1 .676.151c.166.189.18.46.038.665a10.688 10.688 0 0 1-2.434 2.493c.003.12.004.241.004.36 0 7.111-5.641 14.467-15.08 14.467-2.889 0-6.355-1.189-8.361-3.241"/></g><g><path fill="none" stroke="#f7d100" stroke-miterlimit="20" stroke-width="2" d="M13 16v0s3.93-.96 5-4c1.01-2.87 1-3 1-3v0"/></g></g></svg>