<svg xmlns="http://www.w3.org/2000/svg" width="25" height="19" viewBox="0 0 25 19"><g><g><path fill="#fff" d="M23.608 15.947c0 .914-.744 1.658-1.66 1.658H3.058c-.916 0-1.661-.744-1.661-1.658V3.058c0-.914.745-1.658 1.66-1.658h18.886c.915 0 1.66.744 1.66 1.658v12.889zM21.948 0H3.058A3.058 3.058 0 0 0 0 3.053v12.894A3.058 3.058 0 0 0 3.057 19h18.886A3.058 3.058 0 0 0 25 15.947V3.058A3.054 3.054 0 0 0 21.948 0z"/></g><g><path fill="#f7d100" d="M15.722 9.833l6.038-5.587a.731.731 0 0 0 .051-1.006.678.678 0 0 0-.975-.053l-8.327 7.71L10.885 9.4c-.005-.005-.01-.01-.01-.015a1.032 1.032 0 0 0-.113-.1l-6.61-6.103a.674.674 0 0 0-.976.058.726.726 0 0 0 .056 1.006l6.11 5.634-6.084 5.876a.73.73 0 0 0-.03 1.007.695.695 0 0 0 .505.226.68.68 0 0 0 .47-.19l6.176-5.96 1.675 1.544a.674.674 0 0 0 .92-.005l1.721-1.591 6.14 6.018a.674.674 0 0 0 .976-.026.73.73 0 0 0-.025-1.007z"/></g></g></svg>