<svg xmlns="http://www.w3.org/2000/svg" width="30" height="22" viewBox="0 0 30 22"><g><g><path fill="none" stroke="#fff" stroke-miterlimit="20" stroke-width="2" d="M5.427 20.754c3.382.033 9.569.125 9.569.125v0s8.709 0 10.881-.589a3.515 3.515 0 0 0 2.463-2.496c.582-2.201.582-6.794.582-6.794v0s0-4.593-.582-6.794a3.515 3.515 0 0 0-2.463-2.496c-2.172-.59-10.881-.59-10.881-.59v0s-8.709 0-10.881.59a3.511 3.511 0 0 0-2.463 2.496C1.07 6.407 1.07 11 1.07 11v0s.129 3.837.712 6.038"/></g><g><path fill="#fff" d="M11.64 15.541V6.53l7.996 4.506z"/></g><g><path fill="none" stroke="#f7d100" stroke-miterlimit="20" stroke-width="2" d="M13 17l7-4"/></g></g></svg>