<svg xmlns="http://www.w3.org/2000/svg" width="329" height="243" viewBox="0 0 329 243"><g><g><g><path fill="#1d1d1b" d="M48.699 236c-64.932-63.133-64.932-165.867 0-229L68 25.777C13.717 78.559 13.717 164.44 68 217.225z"/></g><g><path fill="#0066b1" d="M280.274 236L261 217.225c26.253-25.566 40.731-59.562 40.731-95.722 0-36.168-14.478-70.162-40.731-95.726L280.274 7C311.693 37.58 329 78.248 329 121.503c0 43.25-17.307 83.92-48.726 114.497"/></g><g><path fill="#e20714" d="M68.96 121H42C42.013 54.284 97.188.004 165 0v26.527c-52.948.008-96.02 42.386-96.04 94.473"/></g><g><path fill="#0066b1" d="M164 243v-26.75c52.943 0 96.027-42.733 96.027-95.25H287c0 67.268-55.177 122-123 122"/></g><g><path fill="#f7d100" d="M165.01 203c-21.002 0-42.004-7.997-58.01-24.004L125.989 160c21.51 21.518 56.513 21.518 78.05 0L223 178.996C207.016 195.003 186 203 165.01 203"/></g><g><path fill="#f7d100" d="M125.987 83L107 64.012c31.988-32.009 84.036-32.021 116-.006l-18.961 18.983c-21.526-21.517-56.541-21.532-78.052.011"/></g></g></g></svg>