<svg xmlns="http://www.w3.org/2000/svg" width="72" height="72" viewBox="0 0 72 72"><g><g ><g><path fill="#1d1d1b" d="M23.095 15.298l1.306 1.124c-.094.33-.206.66-.336.99l-1.752.16a1.23 1.23 0 0 0-.933.578c-.266.433-.569.843-.905 1.224a1.228 1.228 0 0 0-.276 1.088l.361 1.577-.939.672-1.446-.839a1.234 1.234 0 0 0-1.086-.072c-.48.196-.976.35-1.482.463a1.227 1.227 0 0 0-.857.716l-.672 1.576h-1.156l-.672-1.576a1.222 1.222 0 0 0-.856-.716 9.186 9.186 0 0 1-1.482-.463 1.224 1.224 0 0 0-1.086.072l-1.506.873a11.2 11.2 0 0 1-.895-.64l.376-1.643a1.23 1.23 0 0 0-.275-1.086 9.029 9.029 0 0 1-.906-1.226 1.23 1.23 0 0 0-.932-.578l-1.753-.16c-.13-.33-.242-.66-.336-.99l1.307-1.124a1.23 1.23 0 0 0 .426-.93v-1.725a1.23 1.23 0 0 0-.426-.93l-1.307-1.127c.094-.328.206-.658.336-.989l1.752-.16c.385-.035.73-.249.933-.577.266-.433.569-.843.905-1.224.262-.297.365-.702.276-1.088l-.376-1.644c.29-.229.588-.442.895-.64l1.505.874c.332.19.733.217 1.087.072.48-.196.975-.351 1.482-.463.383-.088.702-.354.856-.716l.672-1.576h1.156l.672 1.576c.154.363.472.63.856.716a9.171 9.171 0 0 1 1.482.463c.354.146.756.12 1.087-.072l1.505-.874c.307.198.605.411.895.64L20.2 6.548c-.088.385.014.79.275 1.086.336.383.64.793.906 1.226.203.328.548.542.933.578l1.752.16c.13.33.242.66.336.99l-1.306 1.124a1.23 1.23 0 0 0-.426.93v1.725c0 .357.155.697.426.93zm3.479-.25l-1.45-1.248v-.6l1.45-1.249a1.23 1.23 0 0 0 .4-1.181c-.21-.983-.53-1.938-.956-2.848a1.227 1.227 0 0 0-1.002-.706l-1.89-.173a11.483 11.483 0 0 0-.4-.539l.409-1.782a1.23 1.23 0 0 0-.377-1.189 13.858 13.858 0 0 0-2.468-1.767 1.228 1.228 0 0 0-1.215.01l-1.627.944c-.22-.075-.445-.146-.678-.21L16.018.744A1.228 1.228 0 0 0 14.89 0h-2.778c-.492 0-.936.293-1.129.745l-.751 1.765c-.234.064-.46.135-.679.21l-1.626-.944a1.234 1.234 0 0 0-1.216-.01 13.905 13.905 0 0 0-2.467 1.767 1.227 1.227 0 0 0-.378 1.19l.408 1.78c-.137.175-.27.356-.398.54l-1.89.173c-.437.04-.819.309-1.003.706-.426.91-.747 1.866-.956 2.849-.091.437.062.889.4 1.18l1.45 1.25v.598l-1.45 1.25a1.23 1.23 0 0 0-.4 1.181c.21.983.53 1.938.956 2.848.184.397.566.666 1.002.706l1.89.172c.129.185.262.365.4.54l-.409 1.782c-.1.435.045.89.378 1.189.755.678 1.583 1.27 2.468 1.765.378.212.84.208 1.214-.01l1.627-.943c.22.076.445.147.678.211l.752 1.765c.193.452.637.745 1.129.745h2.778c.491 0 .936-.293 1.129-.745l.751-1.765c.234-.064.46-.135.678-.21l1.627.944a1.23 1.23 0 0 0 1.33-.064l2.249-1.61c.402-.288.592-.79.481-1.272l-.408-1.781c.138-.175.27-.356.399-.54l1.89-.173c.437-.04.818-.309 1.002-.706.426-.91.747-1.865.957-2.848a1.229 1.229 0 0 0-.4-1.181z"/></g><g><path fill="#1d1d1b" d="M13 16.6a3.6 3.6 0 1 1 0-7.2 3.6 3.6 0 0 1 0 7.2zM13 7a6 6 0 1 0 6 6 6.007 6.007 0 0 0-6-6z"/></g><g><path fill="#1d1d1b" d="M11.6 69.6H4.4v-7.2h7.2zm1.2-9.6H3.2A1.2 1.2 0 0 0 2 61.2v9.6A1.2 1.2 0 0 0 3.2 72h9.6a1.2 1.2 0 0 0 1.2-1.2v-9.6a1.2 1.2 0 0 0-1.2-1.2z"/></g><g><path fill="#1d1d1b" d="M29.6 69.538h-7.2V58.462h7.2zM30.8 56h-9.6c-.663 0-1.2.55-1.2 1.23v13.54c0 .679.537 1.23 1.2 1.23h9.6c.663 0 1.2-.55 1.2-1.23V57.23c0-.679-.537-1.23-1.2-1.23z"/></g><g><path fill="#1d1d1b" d="M47.6 69.657h-7.2V54.353h7.2zM48.8 52h-9.6c-.663 0-1.2.526-1.2 1.176v17.648c0 .65.537 1.176 1.2 1.176h9.6c.663 0 1.2-.526 1.2-1.176V53.176c0-.65-.537-1.176-1.2-1.176z"/></g><g><path fill="#1d1d1b" d="M65.6 69.625h-7.2v-26.24h7.2zM66.8 41h-9.6c-.663 0-1.2.533-1.2 1.192v28.616c0 .658.537 1.192 1.2 1.192h9.6c.663 0 1.2-.533 1.2-1.192V42.192c0-.658-.537-1.192-1.2-1.192z"/></g><g><path fill="#1d1d1b" d="M41.157 26.426a1.155 1.155 0 0 0-.021-.006L32.79 24l-.656 2.327 5.843 1.694L2 51.977 3.309 54l35.386-23.563-1.961 6.469 2.278.711 2.935-9.678a1.214 1.214 0 0 0-.79-1.513z"/></g><g><path fill="#f7d100" d="M59.806 15.968c-.263.27-.382.649-.321 1.02l.587 3.603-2.997-1.658a1.187 1.187 0 0 0-1.15 0l-2.997 1.658.588-3.602a1.186 1.186 0 0 0-.322-1.02l-2.543-2.607 3.46-.528c.391-.06.727-.31.895-.67L56.5 8.982l1.494 3.182c.168.36.504.61.896.67l3.459.528zm5.836-4.28a1.187 1.187 0 0 0-.65-.324l-5.117-.782-2.3-4.899a1.188 1.188 0 0 0-2.15 0l-2.3 4.899-5.117.782a1.188 1.188 0 0 0-.67 2.003l3.737 3.83-.884 5.424a1.187 1.187 0 0 0 1.746 1.23L56.5 21.33l4.563 2.522a1.187 1.187 0 0 0 1.746-1.23l-.884-5.424 3.737-3.83c.458-.47.45-1.22-.02-1.679z"/></g><g><path fill="#f7d100" d="M58.615 29c-.698.102-1.404.153-2.112.153h-.017c-.705 0-1.41-.05-2.105-.151L54 30.822c.83.098 1.666.158 2.504.178.837 0 1.672-.061 2.496-.182z"/></g><g><path fill="#f7d100" d="M59.443 0L59 2.415c1.653.265 3.244.802 4.698 1.585L65 1.875A17.592 17.592 0 0 0 59.443 0z"/></g><g><path fill="#f7d100" d="M53.539 0A17.683 17.683 0 0 0 48 1.895L49.316 4A14.951 14.951 0 0 1 54 2.397z"/></g><g><path fill="#f7d100" d="M66.282 24A12.609 12.609 0 0 1 63 26.934L64.125 29A14.87 14.87 0 0 0 68 25.537z"/></g><g><path fill="#f7d100" d="M71.502 16l-1.758.041c.002 1.431-.25 2.852-.744 4.197l2.12.762c.588-1.6.885-3.29.88-4.991z"/></g><g><path fill="#f7d100" d="M68.009 5L66 6.688A14.3 14.3 0 0 1 68.53 11l2.47-.904A16.886 16.886 0 0 0 68.009 5z"/></g><g><path fill="#f7d100" d="M44.972 6A16.881 16.881 0 0 0 42 11.112l2.485.888A14.272 14.272 0 0 1 47 7.676z"/></g><g><path fill="#f7d100" d="M46.715 24L45 25.54A14.868 14.868 0 0 0 48.879 29L50 26.93A12.584 12.584 0 0 1 46.715 24z"/></g><g><path fill="#f7d100" d="M43.25 16l-2.25.004c0 1.705.301 3.396.887 4.996L44 20.227A12.31 12.31 0 0 1 43.25 16z"/></g></g></g></svg>