<svg xmlns="http://www.w3.org/2000/svg" width="203" height="69" viewBox="0 0 203 69"><defs><clipPath id="7nr4a"><path d="M0 68.81h202.418V0H0z"/></clipPath></defs><g><g ><g><g ><path fill="#fff" d="M118.679 13.604h1.508v2.859a4.33 4.33 0 0 1-1.345.664 5.284 5.284 0 0 1-1.54.231c-.739 0-1.405-.156-1.996-.468a3.516 3.516 0 0 1-1.392-1.299 3.543 3.543 0 0 1-.504-1.877c0-.698.168-1.323.504-1.877a3.491 3.491 0 0 1 1.402-1.299c.597-.312 1.27-.468 2.018-.468a4.46 4.46 0 0 1 1.702.312c.51.208.937.51 1.284.906l-1.06.966c-.51-.53-1.125-.795-1.845-.795-.455 0-.86.094-1.212.282a2.041 2.041 0 0 0-.826.795 2.32 2.32 0 0 0-.296 1.178c0 .436.099.826.296 1.168.197.342.47.609.82.8.35.191.75.287 1.198.287a2.7 2.7 0 0 0 1.284-.302z"/></g><g ><path fill="#fff" d="M128.254 15.927v1.309h-5.524V10.19h5.391v1.309h-3.75v1.53h3.312v1.268h-3.313v1.63z"/></g><g ><path fill="#fff" d="M135.135 17.236l-1.375-1.962h-1.52v1.962h-1.65V10.19h3.088c.632 0 1.18.104 1.645.312.466.209.825.503 1.076.886.251.382.377.836.377 1.359s-.128.975-.382 1.354c-.255.38-.617.67-1.085.87l1.599 2.265zm-1.549-5.717h-1.345v2.446h1.345c.496 0 .873-.107 1.131-.321.259-.214.388-.515.388-.902 0-.394-.13-.697-.388-.908-.258-.21-.635-.315-1.13-.315z"/></g><g ><path fill="#fff" d="M145.592 17.236l-.01-4.227-2.1 3.483h-.743l-2.09-3.393v4.137H139.1V10.19h1.366l2.67 4.38 2.63-4.38h1.356l.02 7.046z"/></g><g ><path fill="#fff" d="M154.556 15.726h-3.312l-.632 1.51h-1.692l3.18-7.046h1.63l3.19 7.046h-1.732zm-.51-1.237l-1.136-2.699-1.136 2.699z"/></g><g ><path fill="#fff" d="M165.222 10.19v7.046h-1.355l-3.557-4.278v4.278h-1.63V10.19h1.365l3.547 4.278V10.19z"/></g><g ><path fill="#fff" d="M114.65 26.592c-.567-.557-.85-1.352-.85-2.386V20.26h1.65v3.885c0 1.262.53 1.893 1.59 1.893.517 0 .911-.153 1.183-.458.27-.305.407-.784.407-1.435V20.26h1.63v3.946c0 1.034-.282 1.829-.85 2.386-.568.557-1.36.835-2.38.835-1.019 0-1.812-.278-2.38-.835"/></g><g ><path fill="#fff" d="M125.508 24.538l-.958.987v1.78h-1.64V20.26h1.64v3.291l3.16-3.291h1.835l-2.957 3.14 3.13 3.906h-1.927z"/></g><g ><path fill="#fff" d="M136.015 27.306l-1.375-1.962h-1.519v1.962h-1.651V20.26h3.088c.632 0 1.18.104 1.646.312.466.209.824.503 1.075.886.252.382.378.836.378 1.359s-.128.975-.383 1.354c-.255.38-.617.67-1.085.87l1.6 2.265zm-1.544-5.717h-1.35v2.446h1.35c.498 0 .876-.107 1.135-.321.26-.214.39-.515.39-.902 0-.394-.13-.697-.39-.908-.26-.21-.637-.315-1.135-.315z"/></g><g ><path fill="#fff" d="M144.675 25.796h-3.312l-.632 1.51h-1.691l3.18-7.046h1.63l3.19 7.046h-1.732zm-.51-1.237l-1.135-2.699-1.137 2.699z"/></g><g /><g clip-path="url(#7nr4a)" ><path fill="#fff" d="M148.8 27.306h1.651V20.26H148.8z"/></g><g clip-path="url(#7nr4a)" ><path fill="#fff" d="M159.703 20.26v7.046h-1.355l-3.557-4.278v4.278h-1.631V20.26h1.366l3.546 4.278V20.26z"/></g><g clip-path="url(#7nr4a)" ><path fill="#fff" d="M162.42 27.306h1.651V20.26h-1.651z"/></g><g clip-path="url(#7nr4a)" ><path fill="#fff" d="M171.476 25.796h-3.312l-.632 1.51h-1.692l3.18-7.046h1.63l3.19 7.046h-1.732zm-.51-1.237l-1.136-2.699-1.136 2.699z"/></g><g clip-path="url(#7nr4a)" ><path fill="#fff" d="M182.153 20.26v7.046h-1.355l-3.557-4.278v4.278h-1.631V20.26h1.366l3.546 4.278V20.26z"/></g><g clip-path="url(#7nr4a)" ><path fill="#fff" d="M118.405 37.366l-1.375-1.962h-1.52v1.962h-1.65V30.32h3.088c.632 0 1.18.104 1.645.312.466.209.825.503 1.076.886.251.382.377.836.377 1.359s-.128.975-.382 1.354c-.255.38-.617.67-1.085.87l1.599 2.265zm-1.549-5.717h-1.345v2.446h1.345c.496 0 .873-.107 1.131-.321.259-.214.388-.515.388-.902 0-.394-.13-.697-.388-.908-.258-.21-.635-.315-1.13-.315z"/></g><g clip-path="url(#7nr4a)" ><path fill="#fff" d="M127.894 36.057v1.309h-5.524V30.32h5.391v1.309h-3.75v1.53h3.312v1.268h-3.312v1.63z"/></g><g clip-path="url(#7nr4a)" ><path fill="#fff" d="M130.929 37.262c-.527-.151-.95-.347-1.269-.59l.56-1.227c.306.221.67.4 1.091.533.42.135.843.201 1.264.201.469 0 .815-.068 1.04-.206.224-.137.336-.32.336-.548a.525.525 0 0 0-.199-.419c-.132-.11-.303-.199-.51-.266-.207-.066-.487-.14-.84-.221a11.584 11.584 0 0 1-1.336-.383 2.165 2.165 0 0 1-.891-.614c-.248-.282-.373-.658-.373-1.127 0-.41.113-.78.337-1.113.224-.332.562-.595 1.014-.79.452-.195 1.004-.292 1.657-.292.454 0 .9.054 1.334.162.435.106.815.261 1.142.462l-.51 1.238c-.66-.368-1.318-.553-1.977-.553-.462 0-.803.073-1.024.221-.221.148-.331.343-.331.584 0 .242.127.42.382.539.255.117.643.233 1.167.347.543.127.988.255 1.335.383.346.127.643.328.891.603.248.276.372.648.372 1.118 0 .403-.114.77-.341 1.102-.228.333-.57.595-1.024.79-.456.195-1.01.292-1.662.292a5.889 5.889 0 0 1-1.635-.226"/></g><g clip-path="url(#7nr4a)" ><path fill="#fff" d="M143.274 36.057v1.309h-5.524V30.32h5.391v1.309h-3.75v1.53h3.312v1.268h-3.313v1.63z"/></g><g clip-path="url(#7nr4a)" ><path fill="#fff" d="M150.306 35.856h-3.312l-.632 1.51h-1.692l3.18-7.046h1.63l3.19 7.046h-1.732zm-.51-1.237l-1.136-2.699-1.136 2.699z"/></g><g clip-path="url(#7nr4a)" ><path fill="#fff" d="M158.975 37.366l-1.375-1.962h-1.519v1.962h-1.651V30.32h3.088c.632 0 1.18.104 1.646.312.466.209.824.503 1.075.886.251.382.377.836.377 1.359s-.127.975-.382 1.354c-.255.38-.617.67-1.085.87l1.6 2.265zm-1.549-5.717h-1.345v2.446h1.345c.496 0 .873-.107 1.131-.321.259-.214.388-.515.388-.902 0-.394-.13-.697-.388-.908-.258-.21-.635-.315-1.13-.315z"/></g><g clip-path="url(#7nr4a)" ><path fill="#fff" d="M164.38 37.02a3.505 3.505 0 0 1-1.386-1.299c-.336-.553-.504-1.179-.504-1.877 0-.697.168-1.323.504-1.877a3.504 3.504 0 0 1 1.386-1.299c.588-.312 1.249-.468 1.982-.468.618 0 1.177.108 1.677.323a3.36 3.36 0 0 1 1.258.926l-1.06.966c-.482-.55-1.08-.826-1.793-.826-.442 0-.835.096-1.182.288-.347.19-.617.458-.81.8-.194.342-.29.73-.29 1.167 0 .437.096.826.29 1.168.193.342.463.609.81.8.347.191.74.288 1.182.288.713 0 1.311-.279 1.794-.836l1.06.966c-.34.41-.762.722-1.264.936a4.226 4.226 0 0 1-1.682.322c-.727 0-1.384-.156-1.972-.468"/></g><g clip-path="url(#7nr4a)" ><path fill="#fff" d="M177.973 30.32v7.046h-1.65v-2.889h-3.242v2.89h-1.651V30.32h1.651v2.778h3.241V30.32z"/></g><g clip-path="url(#7nr4a)" ><path fill="#fff" d="M186.204 36.057v1.309h-5.524V30.32h5.391v1.309h-3.75v1.53h3.312v1.268h-3.313v1.63z"/></g><g clip-path="url(#7nr4a)" ><path fill="#fff" d="M193.085 37.366l-1.375-1.962h-1.519v1.962h-1.651V30.32h3.088c.632 0 1.18.104 1.647.312.465.209.823.503 1.074.886.251.382.377.836.377 1.359s-.127.975-.382 1.354c-.255.38-.617.67-1.085.87l1.6 2.265zm-1.549-5.717h-1.345v2.446h1.345c.496 0 .873-.107 1.131-.321.259-.214.388-.515.388-.902 0-.394-.13-.697-.388-.908-.258-.21-.635-.315-1.13-.315z"/></g><g clip-path="url(#7nr4a)" ><path fill="#fff" d="M197.758 37.262c-.526-.151-.949-.347-1.268-.59l.56-1.227c.306.221.67.4 1.09.533.422.135.844.201 1.264.201.469 0 .816-.068 1.04-.206.224-.137.336-.32.336-.548a.524.524 0 0 0-.198-.419c-.133-.11-.303-.199-.51-.266-.207-.066-.487-.14-.84-.221a11.584 11.584 0 0 1-1.336-.383 2.16 2.16 0 0 1-.891-.614c-.248-.282-.373-.658-.373-1.127 0-.41.113-.78.337-1.113.224-.332.562-.595 1.014-.79.451-.195 1.004-.292 1.656-.292.455 0 .9.054 1.335.162.435.106.815.261 1.142.462l-.51 1.238c-.66-.368-1.319-.553-1.977-.553-.462 0-.804.073-1.024.221-.222.148-.331.343-.331.584 0 .242.127.42.382.539.255.117.643.233 1.166.347.544.127.989.255 1.336.383.346.127.643.328.891.603.248.276.372.648.372 1.118 0 .403-.114.77-.341 1.102-.228.333-.57.595-1.024.79-.456.195-1.01.292-1.662.292-.563 0-1.11-.075-1.636-.226"/></g><g clip-path="url(#7nr4a)" ><path fill="#fff" d="M120.403 40.39v7.046h-1.356l-3.556-4.278v4.278h-1.631V40.39h1.366l3.546 4.278V40.39z"/></g><g clip-path="url(#7nr4a)" ><path fill="#fff" d="M128.634 46.127v1.309h-5.524V40.39h5.391v1.309h-3.75v1.53h3.312v1.268h-3.312v1.63z"/></g><g clip-path="url(#7nr4a)" ><path fill="#fff" d="M132.443 41.719h-2.283V40.39h6.217v1.329h-2.283v5.717h-1.651z"/></g><g clip-path="url(#7nr4a)" ><path fill="#fff" d="M148.934 40.39l-2.334 7.046h-1.773l-1.57-4.77-1.62 4.77h-1.763l-2.344-7.046h1.713l1.61 4.953 1.68-4.953h1.53l1.63 4.993 1.662-4.993z"/></g><g clip-path="url(#7nr4a)" ><path fill="#fff" d="M152.24 47.085a3.535 3.535 0 0 1-1.396-1.304 3.525 3.525 0 0 1-.504-1.867c0-.692.168-1.314.504-1.868a3.529 3.529 0 0 1 1.397-1.303c.594-.316 1.261-.473 2.002-.473.74 0 1.407.157 1.997.473.592.315 1.057.75 1.396 1.303.34.554.51 1.176.51 1.868a3.49 3.49 0 0 1-.51 1.867 3.58 3.58 0 0 1-1.396 1.304c-.59.316-1.257.473-1.997.473-.74 0-1.408-.157-2.002-.473m3.144-1.203c.34-.191.606-.458.8-.8a2.33 2.33 0 0 0 .29-1.168c0-.437-.097-.825-.29-1.168a2.074 2.074 0 0 0-.8-.8 2.29 2.29 0 0 0-1.142-.288c-.421 0-.801.097-1.141.288a2.07 2.07 0 0 0-.8.8c-.194.343-.29.731-.29 1.168 0 .436.096.825.29 1.168.193.342.46.609.8.8.34.19.72.287 1.141.287.42 0 .801-.096 1.142-.287"/></g><g clip-path="url(#7nr4a)" ><path fill="#fff" d="M164.955 47.436l-1.375-1.962h-1.519v1.962h-1.651V40.39h3.088c.632 0 1.18.104 1.646.312.466.209.824.503 1.075.886.251.382.377.836.377 1.359s-.127.975-.382 1.354c-.255.38-.617.67-1.085.87l1.6 2.265zm-1.549-5.717h-1.345v2.446h1.345c.496 0 .873-.107 1.131-.321.259-.214.388-.515.388-.902 0-.394-.13-.697-.388-.908-.258-.21-.635-.315-1.13-.315z"/></g><g clip-path="url(#7nr4a)" ><path fill="#fff" d="M171.518 44.668l-.958.987v1.78h-1.64V40.39h1.64v3.291l3.16-3.291h1.835l-2.956 3.14 3.129 3.906h-1.926z"/></g><g clip-path="url(#7nr4a)" ><path fill="#fff" d="M114.56 56.658c-.2-.798-.3-1.66-.3-2.586 0-.927.1-1.794.3-2.603.201-.808.488-1.511.862-2.109h.49c-.769 1.296-1.152 2.866-1.152 4.712 0 1.845.383 3.415 1.151 4.71h-.489a7.7 7.7 0 0 1-.861-2.124"/></g><g clip-path="url(#7nr4a)" ><path fill="#fff" d="M123.849 54.004h.499v2.637c-.313.296-.691.52-1.137.675a4.257 4.257 0 0 1-1.411.23c-.706 0-1.343-.153-1.91-.461a3.422 3.422 0 0 1-1.336-1.279 3.524 3.524 0 0 1-.484-1.833c0-.677.162-1.288.484-1.831.323-.544.768-.97 1.335-1.278.568-.31 1.208-.464 1.921-.464.524 0 1.004.083 1.443.247.437.165.813.404 1.125.72l-.326.342a2.71 2.71 0 0 0-1.003-.64c-.37-.13-.78-.196-1.228-.196-.612 0-1.164.135-1.657.403-.492.269-.878.64-1.156 1.112a3.061 3.061 0 0 0-.418 1.585 3.022 3.022 0 0 0 1.58 2.693c.489.273 1.039.408 1.65.408.816 0 1.492-.215 2.029-.644z"/></g><g clip-path="url(#7nr4a)" ><path fill="#fff" d="M128.339 56.781c-.5-.517-.749-1.272-.749-2.265V50.46h.52v4.037c0 .864.2 1.513.6 1.942.401.43.983.644 1.743.644.755 0 1.333-.214 1.733-.644.4-.43.601-1.078.601-1.942V50.46h.52v4.056c0 .993-.251 1.748-.754 2.265-.503.517-1.206.775-2.11.775-.903 0-1.605-.258-2.104-.775"/></g><g clip-path="url(#7nr4a)" ><path fill="#fff" d="M141.703 57.506l-1.701-2.355c-.252.034-.483.05-.693.05h-2.039v2.305h-.52V50.46h2.559c.896 0 1.6.21 2.109.629.51.42.764 1.002.764 1.747 0 .556-.144 1.024-.433 1.404-.289.379-.702.646-1.238.8l1.783 2.466zm-2.394-2.758c.76 0 1.341-.166 1.742-.498.4-.332.6-.804.6-1.414 0-.611-.2-1.083-.6-1.415-.4-.332-.982-.498-1.742-.498h-2.039v3.825z"/></g><g clip-path="url(#7nr4a)" ><path fill="#fff" d="M150.91 50.46v7.046h-.429l-4.861-6.12v6.12h-.52V50.46h.438l4.852 6.12v-6.12z"/></g><g clip-path="url(#7nr4a)" ><path fill="#fff" d="M153.77 58.782a7.502 7.502 0 0 0 .866-2.155c.184-.778.275-1.63.275-2.556 0-.926-.091-1.778-.275-2.557a7.512 7.512 0 0 0-.866-2.154h.479c.38.597.67 1.3.872 2.109.2.808.3 1.676.3 2.602 0 .926-.1 1.79-.3 2.592-.201.802-.492 1.508-.872 2.12z"/></g><g clip-path="url(#7nr4a)" ><path fill="#fff" d="M13.617 66.925c-18.156-17.935-18.156-47.12 0-65.055l5.397 5.334c-15.178 14.995-15.178 39.393 0 54.388z"/></g><g clip-path="url(#7nr4a)" ><path fill="#fff" d="M79.477 66.925l-5.397-5.333c7.35-7.263 11.404-16.92 11.404-27.193 0-10.275-4.053-19.932-11.404-27.195l5.397-5.334c8.797 8.687 13.642 20.24 13.642 32.529 0 12.287-4.845 23.84-13.642 32.527"/></g><g clip-path="url(#7nr4a)" ><path fill="#fff" d="M19.355 34.403H11.72C11.724 15.434 27.35.001 46.553 0v7.542C31.56 7.545 19.36 19.594 19.355 34.403"/></g><g clip-path="url(#7nr4a)" ><path fill="#fff" d="M46.55 68.806v-7.544c14.992 0 27.193-12.051 27.193-26.862h7.638c0 18.97-15.625 34.406-34.831 34.406"/></g><g clip-path="url(#7nr4a)" ><path fill="#fff" d="M46.55 57.45c-5.977 0-11.955-2.244-16.51-6.738l5.404-5.332c6.123 6.04 16.085 6.04 22.214 0l5.397 5.332c-4.55 4.494-10.53 6.739-16.505 6.739"/></g><g clip-path="url(#7nr4a)" ><path fill="#fff" d="M35.444 23.439l-5.404-5.334c9.104-8.991 23.918-8.995 33.015-.002l-5.397 5.333c-6.126-6.045-16.092-6.049-22.214.003"/></g></g></g></g></svg>