<svg xmlns="http://www.w3.org/2000/svg" width="264" height="82" viewBox="0 0 264 82"><defs><clipPath id="hqira"><path d="M0 82.197h265.276V.44H0z"/></clipPath></defs><g><g opacity=".6"><path fill="#fff" d="M0 0h264v82H0z"/></g><g ><g><path fill="#cfcfcf" d="M37 67h3V51h-3z"/></g><g><path fill="#9c9c9c" d="M37 50h3V34h-3z"/></g><g><path fill="#1d1d1b" d="M37 34h3V18h-3z"/></g><g><path fill="#1d1d1b" d="M27.922 20.661c0 1.633-1.612 3.15-3.452 3.183.024-.184.035-.377.035-.571 0-.105 0-.229-.01-.369 1.621-.022 3.042-1.207 3.042-2.57 0-.691-.445-1.214-.697-1.526l.171-.04c.237.21.911.953.911 1.893m-2.534 11.31c-.154-.451-.61-1.083-1.083-1.665.054-.2.107-.347.313-.347.106 0 .156.018.22.042.223.627 1.082 1.804 1.216 1.986.371-.061.89-.127 1.308-.127.099 0 .234-.01.234.23 0 .137-.06.38-.134.461-.186-.22-.504-.288-.897-.288-.153 0-.34.055-.409.072.501.513.974.94.974 1.225 0 .16-.163.37-.3.441 0-.42-.43-1.001-.852-1.328 0 .058-.018.28-.018.52 0 .793-.078.95-.379.95a.483.483 0 0 1-.184-.042c.161-.19.23-.44.23-.91 0-.136-.003-.264-.003-.374 0-.209.022-.356.038-.472-.115-.015-.377-.054-.57-.054-.41 0-.665.04-.85.228-.133-.102-.28-.297-.28-.429 0-.19.127-.203.26-.203.208 0 .378.083 1.166.083m-4.684-1.664c-.473.582-.928 1.214-1.083 1.664.788 0 .957-.083 1.166-.083.134 0 .261.012.261.203 0 .132-.147.327-.28.429-.187-.188-.44-.228-.851-.228-.192 0-.455.04-.569.054.015.116.04.263.04.472 0 .11-.006.238-.006.374 0 .47.069.72.231.91a.49.49 0 0 1-.184.041c-.302 0-.38-.156-.38-.95 0-.239-.019-.46-.019-.519-.421.327-.85.908-.85 1.328-.138-.072-.3-.282-.3-.441 0-.285.472-.712.973-1.225-.07-.017-.255-.072-.409-.072-.392 0-.712.067-.896.288-.074-.082-.134-.324-.134-.46 0-.24.135-.231.234-.231.418 0 .937.066 1.306.127.136-.182.994-1.359 1.218-1.986a.519.519 0 0 1 .219-.042c.207 0 .26.146.313.347m-3.241-9.968c0 1.378 1.449 2.576 3.09 2.576a5.04 5.04 0 0 0 .016.941c-1.858-.012-3.491-1.542-3.491-3.19 0-.942.673-1.687.913-1.897l.169.04c-.252.313-.697.837-.697 1.53m4.991-1.27c-.094-.501-.495-1.111-1.03-1.111-.151 0-.413.077-.556.142-.052-.09-.184-.38-.184-.512 0-.133.202-.264.603-.264.781 0 1.365.34 1.365 1.055 0 .259-.114.493-.198.69m.384-.913a1.133 1.133 0 0 0-.203-.49c.005-.167.071-.327.338-.196-.145.15-.033.412-.033.412s.292-.138.232-.334c.433.106.122.698-.334.608m1.478 4.06c-.117-.27-.504-.72-.504-1.231 0-.86.553-1.563.553-2.415 0-.53-.255-.858-.353-.993.159-.149.332-.333.372-.457-.093.039-.201.045-.36.045-.616 0-1.12-.164-1.609-.164-.28 0-.355.088-.355.172 0 .03.004.062.013.077a1.69 1.69 0 0 0-.319-.091 2.527 2.527 0 0 0-.467-.042c-.595 0-.807.254-.807.47 0 .185.143.521.305.776.232-.118.51-.199.638-.199.316 0 .597.306.747.668-.212.026-.255.035-.47.035-.579 0-.974-.21-1.077-.193 0 .083.163.302.488.421.427.158 1.051.24 1.157.258 0 .02-.101.199-.222.236a.112.112 0 0 1-.066 0c-.104-.028-1.1-.346-1.165-.308 0 .228.579.728 1.099.92-.433.563-.976 1.138-1.23 2.014-.074.005-.143.01-.215.01-1.287 0-2.561-.845-2.561-1.927 0-.577.255-.98.57-1.427.186.031.356.048.487.048.583 0 .9-.316.921-.627 0-.28-.223-.492-.572-.492-.54 0-1.526.513-2.52.513.098.075.262.155.456.229a3.684 3.684 0 0 0-1.12 2.008l-1.52 2.473c-.256.414-.796 1.226-1.61 1.86.984 0 1.637.023 2.468-1.314l.78-1.268c.058.164.13.324.213.481l-1.551 2.52c-.258.42-.793 1.225-1.61 1.86.983 0 1.636.025 2.469-1.312l1.336-2.171c.099.108.205.212.315.314l-1.884 3.062c-.259.42-.792 1.222-1.61 1.86.984 0 1.636.024 2.47-1.313l1.835-2.987c.122.078.245.153.374.224l-2.242 3.645c-.26.419-.79 1.22-1.61 1.859.983 0 1.637.023 2.469-1.316l2.309-3.751c.137.054.276.103.416.15l-2.61 4.242c-.254.41-.799 1.226-1.609 1.857.984 0 1.638.023 2.47-1.314l2.78-4.52.085.016c.076.244.128.472.128.7 0 1.42-.918 2.673-2.018 3.642.069.032.193.043.307.043.227 0 .373-.014.476-.032-.257.59-.804 1.35-1.081 1.743a8.004 8.004 0 0 0-1.228-.118c-.36 0-.4.215-.4.406 0 .331.153.597.33.744.066-.171.201-.397.864-.397l.068.003c-.194.22-.802.718-.802 1.12 0 .266.288.665.666.665-.023-.086-.019-.165-.019-.224 0-.325.283-.705.523-.97-.006.079-.004.069-.004.161 0 .77.07 1.123.55 1.123.236 0 .4-.131.455-.17-.313-.293-.329-.522-.329-.954l.003-.374c.002-.097 0-.227-.016-.324.173-.024.241-.023.374-.023 0 0 .683-.054.848.307.184-.173.455-.416.455-.687 0-.178-.084-.378-.435-.378-.133 0-.552.083-.904.083.094-.213.514-.836.877-1.288.055.174.142.365.332.52.026-.291.195-1.21.641-1.746.053.362.124.734.124 1.52 0 1.912-.454 3.324-1.414 3.593.124.223.389.42.663.42.352 0 .543-.403.739-.785.101.282.382.971.664.971.282 0 .563-.69.663-.97.196.38.388.784.74.784.273 0 .538-.197.663-.42-.962-.269-1.415-1.681-1.415-3.594 0-.785.071-1.157.124-1.52.447.537.615 1.456.641 1.747.19-.155.278-.346.333-.52.362.452.783 1.075.876 1.288-.351 0-.77-.083-.904-.083-.351 0-.433.2-.433.378 0 .271.269.514.454.687.163-.361.847-.307.847-.307.134 0 .202 0 .375.023a2.267 2.267 0 0 0-.016.324l.003.374c0 .432-.018.661-.33.955.057.038.22.17.456.17.481 0 .549-.354.549-1.124 0-.092.003-.082-.003-.162.24.266.523.646.523.971 0 .059.004.138-.02.224.38 0 .667-.4.667-.665 0-.402-.607-.9-.803-1.12l.068-.003c.664 0 .798.226.864.397a.973.973 0 0 0 .33-.744c0-.19-.04-.406-.4-.406-.342 0-.867.052-1.228.118-.276-.393-.825-1.154-1.08-1.743.102.018.25.032.476.032.114 0 .236-.011.308-.043-1.102-.969-2.02-2.223-2.02-3.642 0-.228.053-.456.128-.7l.086-.016 2.78 4.52c.831 1.337 1.486 1.314 2.47 1.314-.81-.631-1.356-1.447-1.61-1.857l-2.61-4.242c.14-.047.28-.096.417-.15l2.31 3.751c.83 1.339 1.484 1.316 2.468 1.316-.82-.639-1.352-1.44-1.61-1.86l-2.242-3.644c.127-.07.25-.146.373-.224l1.836 2.987c.833 1.337 1.486 1.312 2.47 1.312-.818-.637-1.351-1.439-1.61-1.859l-1.885-3.062c.11-.102.216-.206.316-.315l1.336 2.172c.833 1.337 1.484 1.313 2.47 1.313-.819-.636-1.353-1.441-1.611-1.86l-1.552-2.52c.083-.158.156-.318.212-.482l.78 1.268c.833 1.337 1.486 1.314 2.47 1.314-.814-.634-1.355-1.446-1.61-1.86l-1.522-2.473a3.68 3.68 0 0 0-1.12-2.008c.197-.074.359-.154.457-.229-.993 0-1.978-.514-2.52-.514-.348 0-.573.212-.573.493.024.311.34.627.922.627.132 0 .3-.017.486-.048.317.447.572.85.572 1.427 0 1.082-1.275 1.926-2.56 1.926-.073 0-.143-.004-.216-.009"/></g><g><g ><path fill="#1d1d1b" d="M51.9 20.899c0 .836-.234 1.494-.698 1.972-.465.478-1.153.718-2.065.718v.668h-.905v-.668c-.912 0-1.6-.24-2.065-.718-.465-.478-.697-1.136-.697-1.972 0-.854.252-1.501.756-1.94.504-.439 1.172-.659 2.006-.659v-.56h.905v.56c.834 0 1.502.22 2.006.66.504.438.756 1.085.756 1.939m-3.667 1.977v-3.9c-1.208 0-1.811.638-1.811 1.914 0 .602.153 1.083.461 1.444.309.361.758.542 1.35.542m2.716-1.986c0-1.276-.603-1.913-1.81-1.913v3.899c.591 0 1.04-.181 1.349-.542.308-.361.461-.842.461-1.444"/></g><g ><path fill="#1d1d1b" d="M53.632 22.146v.144c0 .458.116.82.349 1.088.232.268.55.401.956.401.301 0 .544-.08.728-.243.184-.163.298-.394.34-.695h.851c-.03.258-.087.473-.172.64-.15.29-.382.513-.693.673-.31.16-.674.24-1.09.24-.695 0-1.22-.2-1.577-.601-.356-.4-.534-.988-.534-1.765 0-.746.18-1.335.54-1.768.358-.433.9-.65 1.624-.65.634 0 1.119.188 1.453.564.336.376.503.922.503 1.638 0 .132-.002.244-.009.334zm2.4-.596v-.081c0-.397-.099-.705-.294-.925-.197-.22-.473-.33-.829-.33-.374 0-.673.121-.897.361-.223.241-.337.566-.343.975z"/></g><g ><path fill="#1d1d1b" d="M62.657 25.533h-.815V24.26h-3.477v1.273h-.815v-1.931h.462c.2-.27.344-.526.435-.767.186-.53.28-1.333.28-2.41v-.695h3.35v3.872h.58zm-1.43-1.931v-3.231h-1.664c-.012.963-.078 1.712-.2 2.247-.098.433-.233.762-.41.984z"/></g><g ><path fill="#1d1d1b" d="M64.142 22.146v.144c0 .458.116.82.349 1.088.232.268.55.401.956.401.301 0 .544-.08.728-.243.184-.163.298-.394.34-.695h.851c-.03.258-.087.473-.172.64-.15.29-.382.513-.693.673-.31.16-.674.24-1.09.24-.695 0-1.22-.2-1.577-.601-.356-.4-.534-.988-.534-1.765 0-.746.18-1.335.54-1.768.358-.433.9-.65 1.624-.65.634 0 1.119.188 1.453.564.336.376.503.922.503 1.638 0 .132-.002.244-.009.334zm2.4-.596v-.081c0-.397-.099-.705-.294-.925-.197-.22-.473-.33-.829-.33-.374 0-.673.121-.897.361-.223.241-.337.566-.343.975z"/></g><g ><path fill="#1d1d1b" d="M68.577 26.003V20.47c0-.252-.008-.5-.027-.74h.86l.019.731c.157-.264.37-.468.638-.609.269-.141.572-.212.91-.212.586-.006 1.05.202 1.395.623.343.42.516.996.516 1.724 0 .746-.185 1.337-.557 1.773-.372.436-.877.655-1.517.655-.646 0-1.111-.227-1.394-.677v2.265zm2.092-2.211c.429 0 .758-.16.987-.479.23-.319.345-.78.345-1.38 0-1.108-.417-1.661-1.25-1.661-.447 0-.785.153-1.014.46-.23.307-.345.758-.345 1.354 0 1.137.426 1.706 1.277 1.706z"/></g><g ><path fill="#1d1d1b" d="M76.838 24.267c-.054-.133-.082-.323-.082-.57v-.107c-.302.547-.773.82-1.412.82-.477 0-.862-.12-1.155-.365-.293-.243-.439-.567-.439-.97 0-.445.166-.815.498-1.11.387-.343 1.01-.515 1.874-.515.272 0 .453.007.544.019l.072.009v-.199c0-.397-.054-.664-.163-.803-.14-.198-.401-.298-.788-.298-.58 0-.884.256-.914.767h-.851a1.79 1.79 0 0 1 .163-.632c.114-.229.312-.404.593-.528.28-.123.62-.185 1.018-.185.326 0 .643.053.951.159.308.105.531.275.67.509.103.175.154.406.154.695l-.036 2.167a8.58 8.58 0 0 0 .072 1.137zm-.1-2.203l-.063-.009a4.374 4.374 0 0 0-1.105.036c-.302.048-.537.148-.706.3a.727.727 0 0 0-.254.562c0 .239.087.429.258.57.172.14.4.21.684.21.242 0 .46-.059.657-.175a.938.938 0 0 0 .411-.498c.055-.137.09-.392.11-.762z"/></g><g ><path fill="#1d1d1b" d="M78.49 23.584c.09.036.193.054.307.054.296 0 .5-.196.612-.591.112-.393.168-1.108.168-2.144V19.73h3.232v4.531h-.86v-3.89h-1.512v.938a8.88 8.88 0 0 1-.145 1.711c-.097.484-.23.81-.398.98-.218.216-.526.324-.925.324-.18 0-.34-.02-.479-.063z"/></g><g ><path fill="#1d1d1b" d="M84.25 24.26v-4.53h.86v1.597h1.268c.507 0 .912.133 1.214.397.301.266.452.623.452 1.075 0 .45-.14.807-.42 1.069-.281.262-.67.392-1.164.392zm.86-.631h1.132c.278 0 .497-.075.657-.226.16-.15.24-.355.24-.614 0-.554-.317-.83-.951-.83H85.11z"/></g><g ><path fill="#1d1d1b" d="M89.94 22.23v2.031h-.86V19.73h.86v1.869h2.237V19.73h.86v4.531h-.86v-2.03z"/></g><g ><path fill="#1d1d1b" d="M95.052 22.146v.144c0 .458.116.82.349 1.088.232.268.55.401.956.401.301 0 .544-.08.728-.243.184-.163.298-.394.34-.695h.851c-.03.258-.087.473-.172.64-.15.29-.382.513-.693.673-.31.16-.674.24-1.09.24-.695 0-1.22-.2-1.577-.601-.356-.4-.534-.988-.534-1.765 0-.746.18-1.335.54-1.768.358-.433.9-.65 1.624-.65.634 0 1.119.188 1.453.564.336.376.503.922.503 1.638 0 .132-.002.244-.009.334zm2.4-.596v-.081c0-.397-.099-.705-.294-.925-.197-.22-.473-.33-.829-.33-.374 0-.673.121-.897.361-.223.241-.337.566-.343.975z"/></g><g ><path fill="#1d1d1b" d="M106.893 24.261h-.824v-3.655h-.018l-1.322 3.655h-.715l-1.322-3.655h-.018v3.655h-.824V19.73h1.294l1.223 3.484h.009l1.222-3.484h1.295z"/></g><g ><path fill="none" d="M0 82.197h265.276V.44H0z"/></g><g clip-path="url(#hqira)" ><path fill="#1d1d1b" d="M108.26 18.67h1.024v-.93h-1.024zm.09 5.596h.852v-4.541h-.851z"/></g><g clip-path="url(#hqira)" ><path fill="#1d1d1b" d="M111.51 22.23v2.031h-.86V19.73h.86v1.869h2.237V19.73h.86v4.531h-.86v-2.03z"/></g><g clip-path="url(#hqira)" ><path fill="#1d1d1b" d="M115.97 18.67h1.024v-.93h-1.024zm.09 5.596h.852v-4.541h-.851z"/></g><g clip-path="url(#hqira)" ><path fill="#1d1d1b" d="M121.86 21.18H121c-.055-.631-.356-.947-.906-.947-.23 0-.425.051-.589.154a.954.954 0 0 0-.367.419c-.08.178-.139.36-.171.546-.034.186-.05.388-.05.605 0 1.186.377 1.778 1.132 1.778.295 0 .53-.089.706-.267.175-.177.269-.416.28-.717h.861c-.024.488-.207.88-.548 1.178-.341.298-.771.447-1.29.447-.652 0-1.155-.202-1.508-.606-.353-.402-.53-.974-.53-1.714 0-.782.19-1.384.57-1.805.38-.427.879-.641 1.495-.641.513 0 .928.135 1.245.406.317.27.493.66.53 1.165"/></g><g clip-path="url(#hqira)" ><path fill="#1d1d1b" d="M126.577 19.73v.64h-1.648v3.891h-.86v-3.89h-1.649v-.641z"/></g><g clip-path="url(#hqira)" ><path fill="#1d1d1b" d="M127.952 22.146v.144c0 .458.116.82.349 1.088.232.268.55.401.956.401.301 0 .544-.08.728-.243.184-.163.298-.394.34-.695h.851c-.03.258-.087.473-.172.64-.15.29-.382.513-.693.673-.31.16-.674.24-1.09.24-.695 0-1.22-.2-1.577-.601-.356-.4-.534-.988-.534-1.765 0-.746.18-1.335.54-1.768.358-.433.9-.65 1.624-.65.634 0 1.119.188 1.453.564.336.376.503.922.503 1.638 0 .132-.002.244-.009.334zm2.4-.596v-.081c0-.397-.099-.705-.294-.925-.197-.22-.473-.33-.829-.33-.374 0-.673.121-.897.361-.223.241-.337.566-.343.975z"/></g><g clip-path="url(#hqira)" ><path fill="#1d1d1b" d="M132.387 26.003V20.47c0-.252-.01-.5-.027-.74h.86l.019.731c.156-.264.37-.468.638-.609.268-.141.571-.212.91-.212.586-.006 1.05.202 1.394.623.344.42.516.996.516 1.724 0 .746-.184 1.337-.556 1.773-.372.436-.878.655-1.517.655-.646 0-1.11-.227-1.395-.677v2.265zm2.091-2.211c.43 0 .759-.16.987-.479.23-.319.345-.78.345-1.38 0-1.108-.417-1.661-1.25-1.661-.446 0-.784.153-1.013.46-.23.307-.345.758-.345 1.354 0 1.137.425 1.706 1.276 1.706z"/></g><g clip-path="url(#hqira)" ><path fill="#1d1d1b" d="M141.37 21.18h-.86c-.055-.631-.357-.947-.906-.947-.23 0-.425.051-.589.154a.953.953 0 0 0-.366.419 2.21 2.21 0 0 0-.172.546 3.45 3.45 0 0 0-.05.605c0 1.186.376 1.778 1.132 1.778.295 0 .53-.089.706-.267.176-.177.269-.416.28-.717h.861c-.024.488-.207.88-.548 1.178-.341.298-.771.447-1.29.447-.652 0-1.155-.202-1.508-.606-.353-.402-.53-.974-.53-1.714 0-.782.19-1.384.57-1.805.382-.427.879-.641 1.495-.641.513 0 .928.135 1.245.406.317.27.493.66.53 1.165"/></g><g clip-path="url(#hqira)" ><path fill="#1d1d1b" d="M146.087 19.73v.64h-1.649v3.891h-.86v-3.89h-1.648v-.641z"/></g><g clip-path="url(#hqira)" ><path fill="#1d1d1b" d="M149.745 21.852c.295.06.538.19.728.387a.96.96 0 0 1 .286.686c0 .397-.142.72-.425.966-.284.247-.655.37-1.114.37h-2.3V19.73h2.064c.477 0 .852.1 1.127.298.275.2.413.484.413.858a.934.934 0 0 1-.222.604.96.96 0 0 1-.557.343zm-1.983-.208h1.077c.544 0 .815-.22.815-.659 0-.421-.253-.632-.76-.632h-1.132zm0 1.994h1.24c.266 0 .475-.063.626-.19.15-.126.225-.3.225-.523 0-.462-.301-.695-.904-.695h-1.187z"/></g><g clip-path="url(#hqira)" ><path fill="#1d1d1b" d="M151.64 22.047c0-.74.2-1.331.602-1.774.402-.441.971-.663 1.708-.663.712 0 1.261.214 1.648.641.385.428.58 1.005.58 1.733 0 .746-.21 1.337-.626 1.774-.416.436-.975.654-1.675.654-.694 0-1.24-.211-1.639-.633-.398-.42-.598-.998-.598-1.732m.888-.1c0 .572.12 1.02.362 1.346.242.324.576.486 1.005.486.453 0 .796-.175 1.028-.527.232-.352.349-.784.349-1.295 0-.542-.117-.964-.349-1.268-.232-.304-.558-.456-.973-.456-.429 0-.773.156-1.033.47-.26.312-.39.727-.39 1.245"/></g><g clip-path="url(#hqira)" ><path fill="#1d1d1b" d="M162.997 22.958c0 .446-.17.799-.507 1.06-.338.263-.797.393-1.376.393-.845 0-1.395-.261-1.648-.785-.067-.132-.113-.322-.136-.569h.906c.096.482.4.722.914.722.29 0 .523-.073.702-.22a.691.691 0 0 0 .267-.556.657.657 0 0 0-.272-.55c-.18-.139-.429-.208-.742-.208h-.363v-.65h.29c.314 0 .559-.064.734-.194a.632.632 0 0 0 .262-.537c0-.42-.268-.631-.805-.631-.285 0-.494.054-.63.162-.136.109-.228.292-.276.55h-.897c.018-.427.185-.756.498-.988.314-.231.752-.347 1.313-.347.532 0 .943.108 1.237.325.292.217.439.52.439.911 0 .536-.297.867-.888.993v.018c.308.042.548.16.72.352.173.193.258.442.258.75"/></g><g clip-path="url(#hqira)" ><path fill="#1d1d1b" d="M166.988 24.267c-.054-.133-.083-.323-.083-.57v-.107c-.301.547-.772.82-1.412.82-.476 0-.861-.12-1.154-.365-.293-.243-.439-.567-.439-.97 0-.445.166-.815.498-1.11.386-.343 1.01-.515 1.874-.515.272 0 .453.007.543.019l.073.009v-.199c0-.397-.054-.664-.163-.803-.14-.198-.401-.298-.788-.298-.58 0-.885.256-.915.767h-.85c.023-.252.077-.463.162-.632.115-.229.313-.404.594-.528.28-.123.62-.185 1.018-.185.326 0 .643.053.951.159.308.105.531.275.67.509.103.175.154.406.154.695l-.036 2.167c-.006.294.018.673.072 1.137zm-.1-2.203l-.064-.009a4.366 4.366 0 0 0-1.104.036c-.302.048-.538.148-.706.3a.725.725 0 0 0-.255.562c0 .239.087.429.26.57.17.14.4.21.682.21.242 0 .461-.059.658-.175a.938.938 0 0 0 .411-.498c.054-.137.09-.392.109-.762z"/></g><g clip-path="url(#hqira)" ><path fill="#1d1d1b" d="M169.93 24.261h-.86V19.73h.86v2.077h.018l1.684-2.077h1.113l-1.946 2.14 2.065 2.391h-1.114l-1.802-2.238h-.018z"/></g><g clip-path="url(#hqira)" ><path fill="#1d1d1b" d="M173.12 22.047c0-.74.2-1.331.602-1.774.402-.441.971-.663 1.708-.663.712 0 1.261.214 1.648.641.385.428.58 1.005.58 1.733 0 .746-.21 1.337-.626 1.774-.416.436-.975.654-1.675.654-.694 0-1.24-.211-1.639-.633-.398-.42-.598-.998-.598-1.732m.888-.1c0 .572.12 1.02.362 1.346.242.324.576.486 1.005.486.453 0 .796-.175 1.028-.527.232-.352.349-.784.349-1.295 0-.542-.117-.964-.349-1.268-.232-.304-.558-.456-.973-.456-.429 0-.773.156-1.033.47-.26.312-.39.727-.39 1.245"/></g><g clip-path="url(#hqira)" ><path fill="#1d1d1b" d="M178.807 26.003V20.47c0-.252-.01-.5-.027-.74h.86l.019.731c.157-.264.37-.468.638-.609.269-.141.572-.212.91-.212.586-.006 1.05.202 1.395.623.343.42.516.996.516 1.724 0 .746-.185 1.337-.557 1.773-.372.436-.877.655-1.516.655-.647 0-1.111-.227-1.396-.677v2.265zm2.092-2.211c.429 0 .758-.16.987-.479.23-.319.345-.78.345-1.38 0-1.108-.417-1.661-1.25-1.661-.447 0-.785.153-1.014.46-.23.307-.345.758-.345 1.354 0 1.137.426 1.706 1.277 1.706z"/></g><g clip-path="url(#hqira)" ><path fill="#1d1d1b" d="M188.797 25.533h-.815V24.26h-3.476v1.273h-.816v-1.931h.462c.2-.27.344-.526.435-.767.187-.53.28-1.333.28-2.41v-.695h3.35v3.872h.58zm-1.43-1.931v-3.231h-1.664c-.012.963-.078 1.712-.2 2.247-.097.433-.233.762-.41.984z"/></g><g clip-path="url(#hqira)" ><path fill="#1d1d1b" d="M189.43 22.047c0-.74.2-1.331.602-1.774.402-.441.971-.663 1.708-.663.712 0 1.261.214 1.648.641.385.428.58 1.005.58 1.733 0 .746-.21 1.337-.626 1.774-.416.436-.975.654-1.675.654-.694 0-1.24-.211-1.639-.633-.398-.42-.598-.998-.598-1.732m.888-.1c0 .572.12 1.02.362 1.346.242.324.576.486 1.005.486.453 0 .796-.175 1.028-.527.232-.352.349-.784.349-1.295 0-.542-.117-.964-.349-1.268-.232-.304-.558-.456-.973-.456-.429 0-.773.156-1.033.47-.26.312-.39.727-.39 1.245"/></g><g clip-path="url(#hqira)" ><path fill="#1d1d1b" d="M196.02 22.23v2.031h-.86V19.73h.86v1.869h2.237V19.73h.86v4.531h-.86v-2.03z"/></g><g clip-path="url(#hqira)" ><path fill="#1d1d1b" d="M201.41 22.23v2.031h-.86V19.73h.86v1.869h2.237V19.73h.86v4.531h-.86v-2.03z"/></g><g clip-path="url(#hqira)" ><path fill="#1d1d1b" d="M206.9 24.261h-.95V19.73h.833v3.394h.027l2.146-3.394h.952v4.531h-.834V20.86h-.027z"/></g><g clip-path="url(#hqira)" ><path fill="#1d1d1b" d="M213.734 21.941l1.775 2.32h-1.122l-1.295-1.815-1.287 1.814h-.995l1.801-2.373-1.702-2.157h1.115l1.213 1.706 1.267-1.706h1.005z"/></g><g clip-path="url(#hqira)" ><path fill="#1d1d1b" d="M222.13 21.18h-.86c-.055-.631-.357-.947-.906-.947-.23 0-.425.051-.589.154a.953.953 0 0 0-.366.419 2.21 2.21 0 0 0-.172.546 3.45 3.45 0 0 0-.05.605c0 1.186.376 1.778 1.132 1.778.295 0 .53-.089.706-.267.176-.177.269-.416.28-.717h.861c-.024.488-.207.88-.548 1.178-.341.298-.771.447-1.29.447-.652 0-1.155-.202-1.508-.606-.353-.402-.53-.974-.53-1.714 0-.782.19-1.384.57-1.805.382-.427.879-.641 1.495-.641.513 0 .928.135 1.245.406.317.27.493.66.53 1.165"/></g><g clip-path="url(#hqira)" ><path fill="#1d1d1b" d="M224.09 20.37v3.89h-.86v-4.53h3.957v4.53h-.86v-3.89z"/></g><g clip-path="url(#hqira)" ><path fill="#1d1d1b" d="M228.617 26.003V20.47c0-.252-.01-.5-.027-.74h.86l.019.731c.157-.264.37-.468.638-.609.269-.141.572-.212.91-.212.586-.006 1.05.202 1.395.623.343.42.516.996.516 1.724 0 .746-.185 1.337-.557 1.773-.372.436-.877.655-1.516.655-.647 0-1.111-.227-1.396-.677v2.265zm2.092-2.211c.429 0 .758-.16.987-.479.23-.319.345-.78.345-1.38 0-1.108-.417-1.661-1.25-1.661-.447 0-.785.153-1.014.46-.23.307-.345.758-.345 1.354 0 1.137.426 1.706 1.277 1.706z"/></g><g clip-path="url(#hqira)" ><path fill="#1d1d1b" d="M236.868 24.267c-.054-.133-.083-.323-.083-.57v-.107c-.301.547-.772.82-1.412.82-.476 0-.861-.12-1.154-.365-.293-.243-.439-.567-.439-.97 0-.445.166-.815.498-1.11.386-.343 1.01-.515 1.874-.515.272 0 .453.007.543.019l.073.009v-.199c0-.397-.054-.664-.163-.803-.14-.198-.401-.298-.788-.298-.58 0-.885.256-.915.767h-.85c.023-.252.077-.463.162-.632.115-.229.313-.404.594-.528.28-.123.62-.185 1.018-.185.326 0 .643.053.951.159.308.105.531.275.67.509.103.175.154.406.154.695l-.036 2.167c-.006.294.018.673.072 1.137zm-.1-2.203l-.064-.009a4.366 4.366 0 0 0-1.104.036c-.302.048-.538.148-.706.3a.725.725 0 0 0-.255.562c0 .239.087.429.26.57.17.14.4.21.682.21.242 0 .461-.059.658-.175a.938.938 0 0 0 .411-.498c.054-.137.09-.392.109-.762z"/></g><g clip-path="url(#hqira)" ><path fill="#1d1d1b" d="M241.775 21.852c.295.06.538.19.728.387a.96.96 0 0 1 .286.686c0 .397-.142.72-.425.966-.284.247-.655.37-1.114.37h-2.3V19.73h2.064c.477 0 .852.1 1.127.298.275.2.413.484.413.858a.934.934 0 0 1-.222.604.96.96 0 0 1-.557.343zm-1.983-.208h1.077c.544 0 .815-.22.815-.659 0-.421-.253-.632-.76-.632h-1.132zm0 1.994h1.24c.266 0 .475-.063.626-.19.15-.126.225-.3.225-.523 0-.462-.301-.695-.904-.695h-1.187z"/></g></g></g></g></svg>