<?xml version="1.0" encoding="UTF-8"?>
<svg width="160px" height="55px" viewBox="0 0 160 55" version="1.1" xmlns="http://www.w3.org/2000/svg" xmlns:xlink="http://www.w3.org/1999/xlink">
    <!-- Generator: sketchtool 61.2 (101010) - https://sketch.com -->
    <title>666C6BB5-B5EA-4FFB-8BA4-CA2A65C1299C</title>
    <desc>Created with sketchtool.</desc>
    <g id="Page-1" stroke="none" stroke-width="1" fill="none" fill-rule="evenodd">
        <g id="Home_v3" transform="translate(-145.000000, -10.000000)">
            <g id="topnav">
                <g id="GURN_logo_SourceSansPro-02" transform="translate(145.000000, 10.000000)">
                    <g>
                        <path d="M10.9574737,53.3836735 C-3.45150877,39.0960204 -3.45150877,15.8461735 10.9574737,1.55852041 L15.2398596,5.80811224 C3.19494737,17.7532143 3.19494737,37.1895408 15.2398596,49.1352041 L10.9574737,53.3836735" id="Fill-1" fill="#1A1919"></path>
                        <path d="M63.2190877,53.3836735 L58.9361404,49.1352041 C64.7696842,43.3489796 67.9870877,35.6557143 67.9870877,27.4719388 C67.9870877,19.2870408 64.7696842,11.5932143 58.9361404,5.80811224 L63.2190877,1.55852041 C70.1995789,8.47897959 74.0457544,17.6825 74.0457544,27.4719388 C74.0457544,37.2602551 70.1995789,46.4637755 63.2190877,53.3836735" id="Fill-2" fill="#0065A3"></path>
                        <path d="M15.5070877,27.4719388 L9.44785965,27.4719388 C9.45066667,12.3604082 21.850386,0.0662244898 37.0902456,0.0651020408 L37.0902456,6.07413265 C25.1912982,6.07581633 15.5110175,15.6738776 15.5070877,27.4719388" id="Fill-3" fill="#D8232A"></path>
                        <path d="M37.0902456,54.8804592 L37.0902456,48.8708673 C48.9880702,48.8708673 58.6694737,39.2705612 58.6694737,27.4719388 L64.7315088,27.4719388 C64.7315088,42.5845918 52.3317895,54.8804592 37.0902456,54.8804592" id="Fill-4" fill="#0065A3"></path>
                        <path d="M37.0902456,45.8290306 C32.3469474,45.8290306 27.6025263,44.0415306 23.9882105,40.4620408 L28.2767719,36.2135714 C33.1351579,41.0260714 41.0408421,41.0260714 45.9054035,36.2135714 L50.1877895,40.4620408 C46.5779649,44.0415306 41.8312982,45.8290306 37.0902456,45.8290306" id="Fill-5" fill="#F1CC1F"></path>
                        <path d="M28.2767719,18.7336735 L23.9882105,14.4852041 C31.2134737,7.32229592 42.9692632,7.3194898 50.1877895,14.4835204 L45.9054035,18.7314286 C41.0436491,13.9166837 33.1351579,13.9133163 28.2767719,18.7336735" id="Fill-6" fill="#F1CC1F"></path>
                        <path d="M93.794807,15.1889796 C93.3484912,15.1889796 92.930807,15.1177041 92.5417544,14.9745918 C92.1521404,14.8314796 91.8141754,14.619898 91.5278596,14.3404082 C91.2415439,14.0609184 91.0169825,13.7135204 90.853614,13.2970918 C90.690807,12.8812245 90.6088421,12.4002551 90.6088421,11.8547449 C90.6088421,11.3159694 90.6924912,10.835 90.8586667,10.412398 C91.0254035,9.98979592 91.2533333,9.63173469 91.5430175,9.33877551 C91.8321404,9.04637755 92.1706667,8.82357143 92.5563509,8.67035714 C92.9425965,8.51714286 93.3518596,8.44081633 93.7847018,8.44081633 C94.2574035,8.44081633 94.6632982,8.5272449 95.0035088,8.70010204 C95.3425965,8.87352041 95.618807,9.06938776 95.8315789,9.28882653 L95.0630175,10.2277551 C94.8962807,10.0812755 94.72,9.95780612 94.5341754,9.85790816 C94.3472281,9.75857143 94.114807,9.70806122 93.8346667,9.70806122 C93.5814737,9.70806122 93.3501754,9.75688776 93.1407719,9.85341837 C92.930807,9.94994898 92.7494737,10.0880102 92.5967719,10.2670408 C92.4429474,10.4471939 92.3250526,10.6666327 92.2419649,10.9264796 C92.1583158,11.1857653 92.1173333,11.4787245 92.1173333,11.8047959 C92.1173333,12.4771429 92.2689123,12.9979592 92.5715088,13.3672449 C92.8746667,13.7365306 93.3316491,13.9211735 93.9447018,13.9211735 C94.0777544,13.9211735 94.2074386,13.9043367 94.3337544,13.8712245 C94.4606316,13.8381122 94.5633684,13.7881633 94.6436491,13.7213776 L94.6436491,12.6034184 L93.565193,12.6034184 L93.565193,11.4052041 L95.941614,11.4052041 L95.941614,14.4004592 C95.7153684,14.619898 95.4155789,14.8062245 95.042807,14.9594388 C94.6700351,15.1126531 94.2545965,15.1889796 93.794807,15.1889796" id="Fill-7" fill="#1A1919"></path>
                        <polyline id="Fill-8" fill="#1A1919" points="97.8885614 15.0694388 97.8885614 8.56035714 101.963228 8.56035714 101.963228 9.79785714 99.3566316 9.79785714 99.3566316 11.1060714 101.574175 11.1060714 101.574175 12.3340306 99.3566316 12.3340306 99.3566316 13.8313776 102.063158 13.8313776 102.063158 15.0694388 97.8885614 15.0694388"></polyline>
                        <path d="M105.428211,11.555051 L106.187228,11.555051 C106.573474,11.555051 106.867649,11.4736735 107.071439,11.3103571 C107.274105,11.147602 107.375719,10.9062755 107.375719,10.5869388 C107.375719,10.2670408 107.274105,10.0442347 107.071439,9.91795918 C106.867649,9.79168367 106.573474,9.72826531 106.187228,9.72826531 L105.428211,9.72826531 L105.428211,11.555051 Z M103.960702,15.0694388 L103.960702,8.56035714 L106.306807,8.56035714 C106.653754,8.56035714 106.977684,8.59403061 107.280842,8.6602551 C107.584,8.72647959 107.84786,8.83816327 108.074667,8.9947449 C108.300912,9.15132653 108.480561,9.35897959 108.614175,9.61882653 C108.747228,9.87811224 108.813474,10.2008163 108.813474,10.5869388 C108.813474,11.0662245 108.709053,11.4602041 108.499088,11.77 C108.289684,12.0792347 108.008421,12.3110204 107.655298,12.4636735 L109.133474,15.0694388 L107.485754,15.0694388 L106.237193,12.7229592 L105.428211,12.7229592 L105.428211,15.0694388 L103.960702,15.0694388 L103.960702,15.0694388 Z" id="Fill-9" fill="#1A1919"></path>
                        <path d="M110.680702,15.0694388 L110.680702,8.56035714 L112.289123,8.56035714 L113.337263,11.4557143 C113.40407,11.6482143 113.466947,11.8463265 113.527018,12.0494898 C113.587088,12.2526531 113.649965,12.4535714 113.717333,12.6533673 L113.756632,12.6533673 C113.823439,12.4535714 113.884632,12.2526531 113.941333,12.0494898 C113.998035,11.8463265 114.059789,11.6482143 114.126035,11.4557143 L115.154526,8.56035714 L116.752842,8.56035714 L116.752842,15.0694388 L115.414456,15.0694388 L115.414456,12.6831122 C115.414456,12.5231633 115.421193,12.3469388 115.434667,12.1544388 C115.44814,11.9613776 115.464421,11.7666327 115.484632,11.5702041 C115.504281,11.3737755 115.52393,11.1807143 115.54414,10.9910204 C115.564351,10.8013265 115.584561,10.6267857 115.604211,10.4668367 L115.564351,10.4668367 L115.034947,12.0146939 L114.106386,14.5003571 L113.297965,14.5003571 L112.368842,12.0146939 L111.848982,10.4668367 L111.809684,10.4668367 C111.829333,10.6267857 111.848982,10.8013265 111.869754,10.9910204 C111.889404,11.1807143 111.909614,11.3737755 111.929263,11.5702041 C111.949474,11.7666327 111.965754,11.9613776 111.979228,12.1544388 C111.99214,12.3469388 111.999439,12.5231633 111.999439,12.6831122 L111.999439,15.0694388 L110.680702,15.0694388" id="Fill-10" fill="#1A1919"></path>
                        <path d="M120.417123,11.7744898 L120.257684,12.3738776 L121.646035,12.3738776 L121.495579,11.7744898 C121.402386,11.4489796 121.312561,11.1027041 121.226667,10.7367857 C121.139649,10.3708673 121.053193,10.0178571 120.966737,9.67831633 L120.926316,9.67831633 C120.846596,10.0245918 120.765193,10.3787245 120.682105,10.7418367 C120.598456,11.1043878 120.510316,11.4489796 120.417123,11.7744898 Z M118.060351,15.0694388 L120.097684,8.56035714 L121.864982,8.56035714 L123.902316,15.0694388 L122.344982,15.0694388 L121.945263,13.5215816 L119.957895,13.5215816 L119.558737,15.0694388 L118.060351,15.0694388 L118.060351,15.0694388 Z" id="Fill-11" fill="#1A1919"></path>
                        <path d="M125.210386,15.0694388 L125.210386,8.56035714 L126.718877,8.56035714 L128.416,11.7946939 L129.055439,13.232551 L129.095298,13.232551 C129.062175,12.8862755 129.023439,12.5001531 128.980211,12.0741837 C128.936982,11.6482143 128.915649,11.242449 128.915649,10.8563265 L128.915649,8.56035714 L130.313544,8.56035714 L130.313544,15.0694388 L128.806175,15.0694388 L127.10793,11.8244388 L126.468491,10.4067857 L126.428632,10.4067857 C126.462316,10.7665306 126.500491,11.1526531 126.543719,11.5651531 C126.586947,11.9776531 126.608281,12.3772449 126.608281,12.7633673 L126.608281,15.0694388 L125.210386,15.0694388" id="Fill-12" fill="#1A1919"></path>
                        <path d="M93.4854737,25.1720408 C92.64,25.1720408 91.9938246,24.9222959 91.5475088,24.4233673 C91.1017544,23.9238776 90.8788772,23.1286224 90.8788772,22.0370408 L90.8788772,18.5434184 L92.3570526,18.5434184 L92.3570526,22.1868878 C92.3570526,22.8255612 92.453614,23.2717347 92.6461754,23.5248469 C92.8392982,23.7779592 93.1188772,23.9042347 93.4854737,23.9042347 C93.8515088,23.9042347 94.1344561,23.7779592 94.3337544,23.5248469 C94.5341754,23.2717347 94.6335439,22.8255612 94.6335439,22.1868878 L94.6335439,18.5434184 L96.0516491,18.5434184 L96.0516491,22.0370408 C96.0516491,23.1286224 95.8332632,23.9238776 95.397614,24.4233673 C94.9614035,24.9222959 94.3242105,25.1720408 93.4854737,25.1720408" id="Fill-13" fill="#1A1919"></path>
                        <polyline id="Fill-14" fill="#1A1919" points="98.1585965 25.0519388 98.1585965 18.5434184 99.6266667 18.5434184 99.6266667 21.2086735 99.6665263 21.2086735 101.603368 18.5434184 103.221333 18.5434184 101.254175 21.1390816 103.581193 25.0519388 101.973333 25.0519388 100.385684 22.3069898 99.6266667 23.3048469 99.6266667 25.0519388 98.1585965 25.0519388"></polyline>
                        <path d="M106.357333,21.5381122 L107.116351,21.5381122 C107.502035,21.5381122 107.797333,21.4567347 108,21.2934184 C108.202667,21.130102 108.304842,20.8893367 108.304842,20.5694388 C108.304842,20.250102 108.202667,20.0272959 108,19.9004592 C107.797333,19.7741837 107.502035,19.7113265 107.116351,19.7113265 L106.357333,19.7113265 L106.357333,21.5381122 Z M104.889263,25.0519388 L104.889263,18.5434184 L107.236491,18.5434184 C107.582316,18.5434184 107.906807,18.5765306 108.209965,18.6427551 C108.512561,18.7095408 108.777544,18.8212245 109.003789,18.9772449 C109.229474,19.1338265 109.409684,19.3414796 109.542737,19.6013265 C109.675789,19.8611735 109.742596,20.1838776 109.742596,20.5694388 C109.742596,21.0487245 109.637614,21.4432653 109.428211,21.7525 C109.218246,22.0622959 108.936982,22.2935204 108.584421,22.4467347 L110.062596,25.0519388 L108.414316,25.0519388 L107.166316,22.7060204 L106.357333,22.7060204 L106.357333,25.0519388 L104.889263,25.0519388 L104.889263,25.0519388 Z" id="Fill-15" fill="#1A1919"></path>
                        <path d="M113.058246,21.757551 L112.898246,22.3563776 L114.286035,22.3563776 L114.136702,21.757551 C114.043509,21.4320408 113.953123,21.0857653 113.866667,20.7192857 C113.780211,20.3533673 113.693754,20.0009184 113.606737,19.6613776 L113.567439,19.6613776 C113.487158,20.0070918 113.405754,20.3617857 113.322105,20.7243367 C113.239018,21.087449 113.151439,21.4320408 113.058246,21.757551 Z M110.701474,25.0519388 L112.738246,18.5434184 L114.506105,18.5434184 L116.543439,25.0519388 L114.984982,25.0519388 L114.585263,23.5046429 L112.598456,23.5046429 L112.198737,25.0519388 L110.701474,25.0519388 L110.701474,25.0519388 Z" id="Fill-16" fill="#1A1919"></path>
                        <polygon id="Fill-17" fill="#1A1919" points="117.851509 25.0525 119.319018 25.0525 119.319018 18.5434184 117.851509 18.5434184"></polygon>
                        <path d="M121.456281,25.0519388 L121.456281,18.5434184 L122.964211,18.5434184 L124.661895,21.7777551 L125.300772,23.215051 L125.341193,23.215051 C125.307509,22.8693367 125.269333,22.4832143 125.226105,22.0572449 C125.182316,21.6312755 125.160982,21.2255102 125.160982,20.8393878 L125.160982,18.5434184 L126.559439,18.5434184 L126.559439,25.0519388 L125.051509,25.0519388 L123.353825,21.8075 L122.714386,20.3898469 L122.674526,20.3898469 C122.707649,20.7495918 122.746386,21.1357143 122.789614,21.5482143 C122.832842,21.9607143 122.854175,22.3603061 122.854175,22.7458673 L122.854175,25.0519388 L121.456281,25.0519388" id="Fill-18" fill="#1A1919"></path>
                        <polygon id="Fill-19" fill="#1A1919" points="128.69614 25.0525 130.163649 25.0525 130.163649 18.5434184 128.69614 18.5434184"></polygon>
                        <path d="M133.829053,21.757551 L133.669614,22.3563776 L135.057404,22.3563776 L134.907509,21.757551 C134.814316,21.4320408 134.724491,21.0857653 134.638035,20.7192857 C134.551579,20.3533673 134.465123,20.0009184 134.378105,19.6613776 L134.338246,19.6613776 C134.257965,20.0070918 134.177123,20.3617857 134.093474,20.7243367 C134.010386,21.087449 133.922246,21.4320408 133.829053,21.757551 Z M131.472281,25.0519388 L133.509053,18.5434184 L135.276912,18.5434184 L137.314246,25.0519388 L135.756351,25.0519388 L135.356632,23.5046429 L133.369263,23.5046429 L132.970667,25.0519388 L131.472281,25.0519388 L131.472281,25.0519388 Z" id="Fill-20" fill="#1A1919"></path>
                        <path d="M138.622316,25.0519388 L138.622316,18.5434184 L140.129684,18.5434184 L141.82793,21.7777551 L142.466807,23.215051 L142.506667,23.215051 C142.472982,22.8693367 142.435368,22.4832143 142.39214,22.0572449 C142.348912,21.6312755 142.327018,21.2255102 142.327018,20.8393878 L142.327018,18.5434184 L143.725474,18.5434184 L143.725474,25.0519388 L142.216982,25.0519388 L140.51986,21.8075 L139.880421,20.3898469 L139.840561,20.3898469 C139.873684,20.7495918 139.91186,21.1357143 139.955088,21.5482143 C139.998316,21.9607143 140.020211,22.3603061 140.020211,22.7458673 L140.020211,25.0519388 L138.622316,25.0519388" id="Fill-21" fill="#1A1919"></path>
                        <path d="M92.3862456,31.5211735 L93.1458246,31.5211735 C93.5320702,31.5211735 93.8262456,31.4403571 94.0294737,31.2764796 C94.2327018,31.1131633 94.3337544,30.872398 94.3337544,30.5525 C94.3337544,30.2331633 94.2327018,30.0109184 94.0294737,29.8840816 C93.8262456,29.7572449 93.5320702,29.6943878 93.1458246,29.6943878 L92.3862456,29.6943878 L92.3862456,31.5211735 Z M90.9187368,35.0355612 L90.9187368,28.5264796 L93.2654035,28.5264796 C93.6117895,28.5264796 93.9357193,28.5601531 94.2388772,28.6263776 C94.5420351,28.692602 94.8064561,28.8042857 95.0327018,28.9608673 C95.2595088,29.117449 95.4391579,29.325102 95.5722105,29.584949 C95.7058246,29.8442347 95.7720702,30.1669388 95.7720702,30.5525 C95.7720702,31.0323469 95.6670877,31.4263265 95.4571228,31.7361224 C95.2477193,32.0453571 94.9664561,32.2771429 94.6133333,32.4297959 L96.0915088,35.0355612 L94.4443509,35.0355612 L93.1957895,32.6890816 L92.3862456,32.6890816 L92.3862456,35.0355612 L90.9187368,35.0355612 L90.9187368,35.0355612 Z" id="Fill-22" fill="#1A1919"></path>
                        <polyline id="Fill-23" fill="#1A1919" points="97.6392982 35.0355612 97.6392982 28.5264796 101.713965 28.5264796 101.713965 29.7639796 99.1073684 29.7639796 99.1073684 31.0716327 101.324351 31.0716327 101.324351 32.3001531 99.1073684 32.3001531 99.1073684 33.7975 101.813333 33.7975 101.813333 35.0355612 97.6392982 35.0355612"></polyline>
                        <path d="M105.697684,35.155102 C105.27214,35.155102 104.847719,35.0765306 104.424982,34.9205102 C104.001684,34.7639286 103.62386,34.5293367 103.290947,34.2167347 L104.129684,33.2082143 C104.362667,33.4080102 104.620912,33.5707653 104.90386,33.697602 C105.186807,33.8244388 105.464702,33.8872959 105.738105,33.8872959 C106.04407,33.8872959 106.272,33.8306122 106.421895,33.7172449 C106.571789,33.6044388 106.646456,33.4512245 106.646456,33.2587245 C106.646456,33.1582653 106.625123,33.072398 106.581895,32.9988776 C106.538105,32.9253571 106.475228,32.8608163 106.39214,32.8041327 C106.308491,32.7480102 106.209123,32.6941327 106.092912,32.6441837 C105.97614,32.5942347 105.847579,32.5392347 105.707789,32.4797449 L104.858947,32.12 C104.692211,32.0537755 104.531088,31.9673469 104.375018,31.8601531 C104.218386,31.7540816 104.078596,31.6294898 103.955649,31.4863776 C103.83214,31.3432653 103.733895,31.1771429 103.660912,30.987449 C103.587368,30.7977551 103.550877,30.5828061 103.550877,30.3431633 C103.550877,30.0771429 103.607579,29.8262755 103.720421,29.59 C103.833825,29.3537245 103.993263,29.1471939 104.19986,28.9704082 C104.406456,28.7947449 104.650667,28.6566837 104.934175,28.5562245 C105.217123,28.4563265 105.52814,28.4063776 105.867789,28.4063776 C106.247298,28.4063776 106.621754,28.479898 106.991158,28.6263776 C107.360561,28.7728571 107.685053,28.9855612 107.965193,29.2656122 L107.216281,30.1938776 C107.002947,30.0271939 106.789614,29.8986735 106.576842,29.8088776 C106.363509,29.7190816 106.127158,29.6741837 105.867789,29.6741837 C105.614596,29.6741837 105.413614,29.7263776 105.263719,29.8290816 C105.113263,29.9323469 105.039158,30.0771429 105.039158,30.2634694 C105.039158,30.3633673 105.06386,30.4481122 105.113263,30.5182653 C105.163789,30.5878571 105.233404,30.6512755 105.323228,30.7079592 C105.413614,30.7640816 105.518035,30.817398 105.638175,30.8673469 C105.757754,30.9172959 105.887439,30.9722959 106.027228,31.0323469 L106.865965,31.3713265 C107.265684,31.5312755 107.58007,31.7507143 107.809684,32.0302041 C108.039298,32.3096939 108.154386,32.6789796 108.154386,33.1386224 C108.154386,33.4113776 108.09993,33.6689796 107.989333,33.912551 C107.87986,34.155 107.720421,34.3677041 107.510456,34.5506633 C107.300491,34.7341837 107.042807,34.880102 106.736281,34.9906633 C106.430316,35.100102 106.08393,35.155102 105.697684,35.155102" id="Fill-24" fill="#1A1919"></path>
                        <polyline id="Fill-25" fill="#1A1919" points="109.862175 35.0355612 109.862175 28.5264796 113.936281 28.5264796 113.936281 29.7639796 111.330246 29.7639796 111.330246 31.0716327 113.547228 31.0716327 113.547228 32.3001531 111.330246 32.3001531 111.330246 33.7975 114.036772 33.7975 114.036772 35.0355612 109.862175 35.0355612"></polyline>
                        <path d="M117.461895,31.7411735 L117.301895,32.34 L118.690246,32.34 L118.539789,31.7411735 C118.446596,31.415102 118.356772,31.0688265 118.270877,30.7029082 C118.184421,30.3369898 118.097404,29.9839796 118.010947,29.6444388 L117.971088,29.6444388 C117.890807,29.9907143 117.809965,30.3448469 117.726316,30.7079592 C117.643228,31.0705102 117.555088,31.415102 117.461895,31.7411735 Z M115.104561,35.0355612 L117.141895,28.5264796 L118.909754,28.5264796 L120.947088,35.0355612 L119.389193,35.0355612 L118.989474,33.4877041 L117.002105,33.4877041 L116.602947,35.0355612 L115.104561,35.0355612 L115.104561,35.0355612 Z" id="Fill-26" fill="#1A1919"></path>
                        <path d="M123.722667,31.5211735 L124.481684,31.5211735 C124.86793,31.5211735 125.162105,31.4403571 125.365895,31.2764796 C125.568561,31.1131633 125.670175,30.872398 125.670175,30.5525 C125.670175,30.2331633 125.568561,30.0109184 125.365895,29.8840816 C125.162105,29.7572449 124.86793,29.6943878 124.481684,29.6943878 L123.722667,29.6943878 L123.722667,31.5211735 Z M122.255158,35.0355612 L122.255158,28.5264796 L124.601263,28.5264796 C124.947649,28.5264796 125.27214,28.5601531 125.575298,28.6263776 C125.878456,28.692602 126.142316,28.8042857 126.369123,28.9608673 C126.595368,29.117449 126.775018,29.325102 126.908632,29.584949 C127.041684,29.8442347 127.10793,30.1669388 127.10793,30.5525 C127.10793,31.0323469 127.003509,31.4263265 126.793544,31.7361224 C126.58414,32.0453571 126.302877,32.2771429 125.949754,32.4297959 L127.427368,35.0355612 L125.780211,35.0355612 L124.531649,32.6890816 L123.722667,32.6890816 L123.722667,35.0355612 L122.255158,35.0355612 L122.255158,35.0355612 Z" id="Fill-27" fill="#1A1919"></path>
                        <path d="M131.691789,35.155102 C131.279158,35.155102 130.888982,35.0838265 130.523509,34.9407143 C130.157474,34.797602 129.836351,34.5860204 129.559579,34.3065306 C129.283368,34.0270408 129.064982,33.6796429 128.905544,33.2632143 C128.745544,32.8473469 128.666386,32.3663776 128.666386,31.8208673 C128.666386,31.2815306 128.748912,30.8011224 128.915649,30.3785204 C129.081825,29.9559184 129.304702,29.5978571 129.584281,29.304898 C129.86386,29.0119388 130.190035,28.7896939 130.562807,28.6359184 C130.935579,28.4832653 131.329123,28.4063776 131.741754,28.4063776 C132.161123,28.4063776 132.537263,28.4916837 132.870175,28.6611735 C133.203088,28.8306633 133.479298,29.0293367 133.698807,29.254949 L132.92014,30.1938776 C132.753404,30.040102 132.578807,29.9160714 132.395789,29.8195408 C132.212772,29.7230102 132.004491,29.6741837 131.771509,29.6741837 C131.552,29.6741837 131.343719,29.7230102 131.147228,29.8195408 C130.951298,29.9160714 130.781193,30.0541327 130.638035,30.2331633 C130.494877,30.4127551 130.381474,30.6327551 130.298947,30.892602 C130.215298,31.1518878 130.173754,31.4448469 130.173754,31.7709184 C130.173754,32.4432653 130.316912,32.9635204 130.603228,33.3333673 C130.888982,33.7026531 131.272421,33.8872959 131.75186,33.8872959 C132.017965,33.8872959 132.256,33.8289286 132.465404,33.7121939 C132.675368,33.5960204 132.86007,33.4512245 133.019509,33.2783673 L133.798737,34.1970918 C133.252491,34.8352041 132.550175,35.155102 131.691789,35.155102" id="Fill-28" fill="#1A1919"></path>
                        <polyline id="Fill-29" fill="#1A1919" points="135.386386 35.0355612 135.386386 28.5264796 136.853895 28.5264796 136.853895 31.0323469 139.101193 31.0323469 139.101193 28.5264796 140.578807 28.5264796 140.578807 35.0355612 139.101193 35.0355612 139.101193 32.3197959 136.853895 32.3197959 136.853895 35.0355612 135.386386 35.0355612"></polyline>
                        <polyline id="Fill-30" fill="#1A1919" points="142.71607 35.0355612 142.71607 28.5264796 146.790737 28.5264796 146.790737 29.7639796 144.18414 29.7639796 144.18414 31.0716327 146.401123 31.0716327 146.401123 32.3001531 144.18414 32.3001531 144.18414 33.7975 146.890105 33.7975 146.890105 35.0355612 142.71607 35.0355612"></polyline>
                        <path d="M150.255719,31.5211735 L151.014737,31.5211735 C151.400982,31.5211735 151.695158,31.4403571 151.898386,31.2764796 C152.101614,31.1131633 152.202667,30.872398 152.202667,30.5525 C152.202667,30.2331633 152.101614,30.0109184 151.898386,29.8840816 C151.695158,29.7572449 151.400982,29.6943878 151.014737,29.6943878 L150.255719,29.6943878 L150.255719,31.5211735 Z M148.787649,35.0355612 L148.787649,28.5264796 L151.134316,28.5264796 C151.480702,28.5264796 151.804632,28.5601531 152.107789,28.6263776 C152.410947,28.692602 152.675368,28.8042857 152.901614,28.9608673 C153.128421,29.117449 153.30807,29.325102 153.441123,29.584949 C153.574737,29.8442347 153.640982,30.1669388 153.640982,30.5525 C153.640982,31.0323469 153.536,31.4263265 153.326035,31.7361224 C153.116632,32.0453571 152.835368,32.2771429 152.482246,32.4297959 L153.960421,35.0355612 L152.313263,35.0355612 L151.064702,32.6890816 L150.255719,32.6890816 L150.255719,35.0355612 L148.787649,35.0355612 L148.787649,35.0355612 Z" id="Fill-31" fill="#1A1919"></path>
                        <path d="M157.355789,35.155102 C156.929684,35.155102 156.505263,35.0765306 156.082526,34.9205102 C155.659789,34.7639286 155.281965,34.5293367 154.949053,34.2167347 L155.787789,33.2082143 C156.020772,33.4080102 156.279018,33.5707653 156.561965,33.697602 C156.844912,33.8244388 157.122807,33.8872959 157.395649,33.8872959 C157.701614,33.8872959 157.930105,33.8306122 158.08,33.7172449 C158.229895,33.6044388 158.304,33.4512245 158.304,33.2587245 C158.304,33.1582653 158.282667,33.072398 158.239439,32.9988776 C158.196211,32.9253571 158.133333,32.8608163 158.049684,32.8041327 C157.966596,32.7480102 157.866667,32.6941327 157.750456,32.6441837 C157.633684,32.5942347 157.505684,32.5392347 157.365895,32.4797449 L156.517053,32.12 C156.350316,32.0537755 156.189193,31.9673469 156.033123,31.8601531 C155.87593,31.7540816 155.73614,31.6294898 155.613754,31.4863776 C155.490246,31.3432653 155.392,31.1771429 155.318456,30.987449 C155.244912,30.7977551 155.208982,30.5828061 155.208982,30.3431633 C155.208982,30.0771429 155.265123,29.8262755 155.378526,29.59 C155.49193,29.3537245 155.651368,29.1471939 155.857965,28.9704082 C156.064,28.7947449 156.308772,28.6566837 156.592281,28.5562245 C156.875228,28.4563265 157.185684,28.4063776 157.525895,28.4063776 C157.905404,28.4063776 158.27986,28.479898 158.649263,28.6263776 C159.018667,28.7728571 159.343158,28.9855612 159.622737,29.2656122 L158.873825,30.1938776 C158.660491,30.0271939 158.447158,29.8986735 158.234386,29.8088776 C158.021614,29.7190816 157.785263,29.6741837 157.525895,29.6741837 C157.272702,29.6741837 157.071158,29.7263776 156.921825,29.8290816 C156.771368,29.9323469 156.696702,30.0771429 156.696702,30.2634694 C156.696702,30.3633673 156.721404,30.4481122 156.771368,30.5182653 C156.821895,30.5878571 156.891509,30.6512755 156.981333,30.7079592 C157.071158,30.7640816 157.17614,30.817398 157.296281,30.8673469 C157.415298,30.9172959 157.545544,30.9722959 157.685333,31.0323469 L158.52407,31.3713265 C158.923789,31.5312755 159.238175,31.7507143 159.467789,32.0302041 C159.697404,32.3096939 159.812491,32.6789796 159.812491,33.1386224 C159.812491,33.4113776 159.757474,33.6689796 159.647439,33.912551 C159.537965,34.155 159.378526,34.3677041 159.168561,34.5506633 C158.958596,34.7341837 158.700912,34.880102 158.394386,34.9906633 C158.088421,35.100102 157.742035,35.155102 157.355789,35.155102" id="Fill-32" fill="#1A1919"></path>
                        <path d="M90.9187368,45.0180612 L90.9187368,38.5089796 L92.4266667,38.5089796 L94.1243509,41.7438776 L94.7632281,43.1811735 L94.8030877,43.1811735 C94.7699649,42.834898 94.7317895,42.4493367 94.6885614,42.0233673 C94.6453333,41.597398 94.6234386,41.1910714 94.6234386,40.8055102 L94.6234386,38.5089796 L96.0218947,38.5089796 L96.0218947,45.0180612 L94.5139649,45.0180612 L92.8162807,41.7736224 L92.1768421,40.3559694 L92.1369825,40.3559694 C92.1706667,40.7157143 92.2082807,41.1012755 92.2515088,41.5143367 C92.2947368,41.9268367 92.3166316,42.3264286 92.3166316,42.7119898 L92.3166316,45.0180612 L90.9187368,45.0180612" id="Fill-33" fill="#1A1919"></path>
                        <polyline id="Fill-34" fill="#1A1919" points="98.1585965 45.0180612 98.1585965 38.5089796 102.233263 38.5089796 102.233263 39.7470408 99.6266667 39.7470408 99.6266667 41.0546939 101.843649 41.0546939 101.843649 42.2826531 99.6266667 42.2826531 99.6266667 43.7805612 102.332632 43.7805612 102.332632 45.0180612 98.1585965 45.0180612"></polyline>
                        <polyline id="Fill-35" fill="#1A1919" points="105.498386 45.0180612 105.498386 39.7470408 103.710877 39.7470408 103.710877 38.5089796 108.763509 38.5089796 108.763509 39.7470408 106.976561 39.7470408 106.976561 45.0180612 105.498386 45.0180612"></polyline>
                        <path d="M110.960281,45.0180612 L109.75214,38.5089796 L111.260632,38.5089796 L111.709193,41.5541837 C111.749614,41.8931633 111.792842,42.2343878 111.839439,42.5772959 C111.886035,42.9202041 111.929263,43.2647959 111.969123,43.6105102 L112.009544,43.6105102 C112.075789,43.2647959 112.140351,42.9202041 112.203789,42.5772959 C112.267228,42.2343878 112.332351,41.8931633 112.398596,41.5541837 L113.097544,38.5089796 L114.346105,38.5089796 L115.045053,41.5541837 C115.111298,41.8869898 115.176421,42.2242857 115.23986,42.5677551 C115.303298,42.910102 115.36786,43.2575 115.434105,43.6105102 L115.473965,43.6105102 C115.520561,43.2575 115.566035,42.9117857 115.609263,42.5722449 C115.652491,42.2327041 115.697404,41.8931633 115.744,41.5541837 L116.193684,38.5089796 L117.601684,38.5089796 L116.442947,45.0180612 L114.595368,45.0180612 L113.956491,42.0632143 C113.903158,41.810102 113.854877,41.5558673 113.812211,41.2993878 C113.76786,41.0434694 113.730246,40.7948469 113.696561,40.5557653 L113.656702,40.5557653 C113.616842,40.7948469 113.575298,41.0434694 113.53207,41.2993878 C113.488281,41.5558673 113.44,41.810102 113.387228,42.0632143 L112.778105,45.0180612 L110.960281,45.0180612" id="Fill-36" fill="#1A1919"></path>
                        <path d="M121.745404,43.8703571 C122.191719,43.8703571 122.544281,43.6789796 122.804211,43.2956633 C123.06414,42.9134694 123.193263,42.3926531 123.193263,41.7337755 C123.193263,41.0816327 123.06414,40.572602 122.804211,40.2066837 C122.544281,39.8402041 122.191719,39.6572449 121.745404,39.6572449 C121.299649,39.6572449 120.947088,39.8402041 120.687158,40.2066837 C120.427789,40.572602 120.297544,41.0816327 120.297544,41.7337755 C120.297544,42.3926531 120.427789,42.9134694 120.687158,43.2956633 C120.947088,43.6789796 121.299649,43.8703571 121.745404,43.8703571 Z M121.745404,45.1381633 C121.306386,45.1381633 120.904982,45.0595918 120.542316,44.9035714 C120.179088,44.7469898 119.868632,44.5225 119.608702,44.2295408 C119.349333,43.9365816 119.147228,43.5802041 119.004632,43.1609694 C118.861474,42.7417347 118.790175,42.2663776 118.790175,41.7337755 C118.790175,41.2011735 118.861474,40.7269388 119.004632,40.3110714 C119.147228,39.8952041 119.349333,39.5461224 119.608702,39.2627041 C119.868632,38.9798469 120.179088,38.7637755 120.542316,38.6139286 C120.904982,38.4640816 121.306386,38.3894388 121.745404,38.3894388 C122.185544,38.3894388 122.585825,38.4640816 122.949053,38.6139286 C123.311719,38.7637755 123.623298,38.9820918 123.882667,39.2683163 C124.142596,39.5539796 124.343579,39.9047449 124.486737,40.3211735 C124.629895,40.7370408 124.701754,41.2079082 124.701754,41.7337755 C124.701754,42.2663776 124.629895,42.7417347 124.486737,43.1609694 C124.343579,43.5802041 124.142596,43.9365816 123.882667,44.2295408 C123.623298,44.5225 123.311719,44.7469898 122.949053,44.9035714 C122.585825,45.0595918 122.185544,45.1381633 121.745404,45.1381633 L121.745404,45.1381633 Z" id="Fill-37" fill="#1A1919"></path>
                        <path d="M127.996632,41.5042347 L128.756211,41.5042347 C129.141895,41.5042347 129.436632,41.4228571 129.63986,41.2595408 C129.842526,41.0967857 129.94414,40.8554592 129.94414,40.5355612 C129.94414,40.2162245 129.842526,39.9934184 129.63986,39.8665816 C129.436632,39.7408673 129.141895,39.6768878 128.756211,39.6768878 L127.996632,39.6768878 L127.996632,41.5042347 Z M126.529123,45.0180612 L126.529123,38.5089796 L128.875789,38.5089796 C129.222175,38.5089796 129.546105,38.5426531 129.849263,38.6088776 C130.152421,38.6756633 130.416842,38.7867857 130.643088,38.9439286 C130.869333,39.099949 131.049544,39.307602 131.182596,39.567449 C131.315649,39.8272959 131.381895,40.15 131.381895,40.5355612 C131.381895,41.0148469 131.277474,41.4093878 131.067509,41.7186224 C130.858105,42.0284184 130.576842,42.2596429 130.223719,42.4122959 L131.701895,45.0180612 L130.054175,45.0180612 L128.806175,42.6721429 L127.996632,42.6721429 L127.996632,45.0180612 L126.529123,45.0180612 L126.529123,45.0180612 Z" id="Fill-38" fill="#1A1919"></path>
                        <polyline id="Fill-39" fill="#1A1919" points="133.249684 45.0180612 133.249684 38.5089796 134.717754 38.5089796 134.717754 41.1747959 134.757614 41.1747959 136.694456 38.5089796 138.312421 38.5089796 136.345263 41.1046429 138.672281 45.0180612 137.064421 45.0180612 135.476211 42.272551 134.717754 43.2715306 134.717754 45.0180612 133.249684 45.0180612"></polyline>
                    </g>
                </g>
            </g>
        </g>
    </g>
</svg>